STARTFONT 2.1
COMMENT
COMMENT Converted from OpenType font "notosans.ttf" by "otf2bdf 3.0".
COMMENT
FONT -FreeType-Noto Sans-Medium-R-Normal--89-640-100-100-P-433-ISO10646-1
SIZE 64 100 100
FONTBOUNDINGBOX 304 155 -55 -35
STARTPROPERTIES 19
FOUNDRY "FreeType"
FAMILY_NAME "Noto Sans"
WEIGHT_NAME "Medium"
SLANT "R"
SETWIDTH_NAME "Normal"
ADD_STYLE_NAME ""
PIXEL_SIZE 89
POINT_SIZE 640
RESOLUTION_X 100
RESOLUTION_Y 100
SPACING "P"
AVERAGE_WIDTH 433
CHARSET_REGISTRY "ISO10646"
CHARSET_ENCODING "1"
FONT_ASCENT 95
FONT_DESCENT 26
COPYRIGHT "Copyright 2015-2021 Google LLC. All Rights Reserved."
_OTF_FONTFILE "notosans.ttf"
_OTF_PSNAME "NotoSans-Regular"
ENDPROPERTIES
CHARS 3053
STARTCHAR 0000
ENCODING 0
SWIDTH 0 0
DWIDTH 0 0
BBX 0 0 0 0
BITMAP
ENDCHAR
STARTCHAR 000D
ENCODING 13
SWIDTH 258 0
DWIDTH 23 0
BBX 0 0 0 0
BITMAP
ENDCHAR
STARTCHAR 0020
ENCODING 32
SWIDTH 258 0
DWIDTH 23 0
BBX 0 0 0 0
BITMAP
ENDCHAR
STARTCHAR 0021
ENCODING 33
SWIDTH 258 0
DWIDTH 23 0
BBX 11 64 6 -1
BITMAP
7FE0
7FE0
7FE0
7FE0
7FC0
7FC0
3FC0
3FC0
3FC0
3FC0
3FC0
3FC0
3FC0
3FC0
3FC0
3FC0
3FC0
3FC0
3FC0
3FC0
3FC0
3FC0
3FC0
3FC0
3FC0
3F80
1F80
1F80
1F80
1F80
1F80
1F80
1F80
1F80
1F80
1F80
1F80
1F80
1F80
1F80
1F80
1F80
1F80
1F80
1F80
0000
0000
0000
0000
0000
0000
0000
0E00
3FC0
7FE0
7FE0
7FE0
FFE0
FFE0
FFE0
7FE0
7FE0
3FC0
1F80
ENDCHAR
STARTCHAR 0022
ENCODING 34
SWIDTH 405 0
DWIDTH 36 0
BBX 24 22 6 41
BITMAP
FF00FF
FF00FF
FF00FF
FF00FF
FF00FF
FF007F
FF007F
FF007F
FF007F
7E007F
7E007F
7E007F
7E007E
7E007E
7E007E
7E007E
7E007E
7E007E
7E003E
7E003E
7E003E
7E003E
ENDCHAR
STARTCHAR 0023
ENCODING 35
SWIDTH 641 0
DWIDTH 57 0
BBX 53 63 2 0
BITMAP
00000FC001F800
00000FC001F800
00001FC001F800
00001FC003F800
00001FC003F000
00001F8003F000
00001F8003F000
00001F8003F000
00003F8003F000
00003F8007F000
00003F0007E000
00003F0007E000
00003F0007E000
00007F0007E000
00007F000FE000
00007E000FC000
00007E000FC000
00007E000FC000
0FFFFFFFFFFFF8
0FFFFFFFFFFFF8
0FFFFFFFFFFFF8
0FFFFFFFFFFFF8
0FFFFFFFFFFFF8
0FFFFFFFFFFFF8
0001FC003F8000
0001F8003F0000
0001F8003F0000
0001F8003F0000
0001F8003F0000
0003F8007F0000
0003F0007E0000
0003F0007E0000
0003F0007E0000
0003F0007E0000
0007F000FE0000
0007E000FE0000
0007E000FC0000
0007E000FC0000
FFFFFFFFFFFFC0
FFFFFFFFFFFFC0
FFFFFFFFFFFFC0
FFFFFFFFFFFFC0
FFFFFFFFFFFFC0
FFFFFFFFFFFFC0
001FC003F80000
001FC003F80000
001F8003F00000
001F8003F00000
001F8003F00000
003F8007F00000
003F8007F00000
003F0007E00000
003F0007E00000
003F0007E00000
003F000FE00000
007F000FE00000
007E000FC00000
007E000FC00000
007E000FC00000
007E001FC00000
00FE001FC00000
00FE001F800000
00FC001F800000
ENDCHAR
STARTCHAR 0024
ENCODING 36
SWIDTH 562 0
DWIDTH 50 0
BBX 40 72 6 -5
BITMAP
0000FC0000
0000FC0000
0000FC0000
0000FC0000
0000FC0000
0000FC0000
0000FC0000
0001FFC000
003FFFFF00
01FFFFFFE0
03FFFFFFFC
0FFFFFFFF8
1FFFFFFFF8
3FFFFFFFF8
7FFCFC3FF0
7FE0FC03F0
FF80FC0030
FF00FC0000
FF00FC0000
FE00FC0000
FE00FC0000
FE00FC0000
FE00FC0000
FE00FC0000
FF00FC0000
FF00FC0000
FF80FC0000
7FC0FC0000
7FF0FC0000
3FFEFC0000
3FFFFC0000
1FFFFC0000
0FFFFF0000
03FFFFE000
00FFFFFC00
003FFFFF00
000FFFFFC0
0001FFFFE0
0000FFFFF0
0000FFFFF8
0000FC7FFC
0000FC0FFE
0000FC03FE
0000FC01FE
0000FC01FF
0000FC00FF
0000FC00FF
0000FC00FF
0000FC00FF
0000FC00FF
0000FC00FF
0000FC01FE
0000FC03FE
E000FC07FE
FE00FC1FFC
FFF8FFFFF8
FFFFFFFFF0
FFFFFFFFE0
FFFFFFFFC0
FFFFFFFF00
7FFFFFFC00
07FFFFE000
000BFC0000
0000FC0000
0000FC0000
0000FC0000
0000FC0000
0000FC0000
0000FC0000
0000FC0000
0000FC0000
0000FC0000
ENDCHAR
STARTCHAR 0025
ENCODING 37
SWIDTH 821 0
DWIDTH 73 0
BBX 66 65 4 -1
BITMAP
00FFC0000000000000
01FFF0000001F80000
07FFF8000003F80000
0FFFFC000007F00000
0FFFFE000007F00000
1FE1FF00000FE00000
1FC07F00000FE00000
3F803F80001FC00000
3F803F80001FC00000
3F001F80003F800000
7F001FC0003F000000
7F001FC0007F000000
7E000FC000FE000000
7E000FC000FE000000
7E000FC001FC000000
FE000FC001FC000000
FE000FE003F8000000
FE000FE003F8000000
FE000FE007F0000000
FE000FE007E0000000
FE000FE00FE0000000
FE000FE01FC0000000
FE000FE01FC0000000
7E000FE03F80000000
7E000FC03F80000000
7E000FC07F007F0000
7E000FC07F03FFC000
7F001FC0FE07FFF000
7F001FC0FC0FFFF800
3F001F81FC1FFFFC00
3F803F83F83FFFFC00
3F803F83F83F81FE00
1FC07F07F07F00FE00
1FE1FF07F07F007F00
0FFFFE0FE0FE007F00
07FFFE0FE0FE003F00
03FFFC1FC0FC003F80
01FFF01F80FC003F80
00FFC03F80FC001F80
0000007F01FC001F80
0000007F01FC001F80
000000FE01FC001F80
000000FE01FC001F80
000001FC01FC001F80
000001FC01FC001FC0
000003F801FC001FC0
000003F001FC001F80
000007F001FC001F80
00000FE001FC001F80
00000FE001FC001F80
00001FC000FC001F80
00001FC000FC001F80
00003F8000FC003F80
00003F8000FE003F80
00007F0000FE003F00
00007E00007E007F00
0000FE00007F007F00
0001FC00007F00FE00
0001FC00003F81FE00
0003F800003FFFFC00
0003F800001FFFFC00
0007F000000FFFF800
0007F0000007FFF000
000FE0000003FFC000
0000000000007F0000
ENDCHAR
STARTCHAR 0026
ENCODING 38
SWIDTH 731 0
DWIDTH 65 0
BBX 59 65 5 -1
BITMAP
0001FFF800000000
0007FFFE00000000
001FFFFF00000000
003FFFFFC0000000
007FFFFFE0000000
00FFFFFFE0000000
01FFC07FF0000000
01FF001FF0000000
03FE000FF8000000
03FC0007F8000000
03FC0007F8000000
03F80007F8000000
03F80003F8000000
03F80003F8000000
03F80003F8000000
03FC0007F8000000
03FC0007F8000000
03FC0007F8000000
03FE000FF0000000
01FE001FF0000000
01FF003FE0000000
00FF807FE0000000
00FF80FFC0000000
007FC1FF80000000
003FE7FF00000000
001FFFFE00000000
001FFFFC00000000
000FFFF000000000
0007FFE000000000
000FFF8000000000
001FFF8000000000
007FFFC000000000
00FFFFE00000FF00
01FFFFF00000FF00
07FF9FFC0001FE00
0FFE0FFE0001FE00
1FFC07FF0001FE00
1FF803FF8001FC00
3FF001FFC003FC00
7FE000FFE003FC00
7FC0007FF007F800
7F80003FF807F800
FF80001FFC0FF800
FF00000FFE0FF000
FF000007FF1FF000
FF000003FF9FE000
FF000001FFFFE000
FF000000FFFFC000
FF0000007FFF8000
FF0000003FFF8000
FF0000001FFF0000
FF8000000FFE0000
FF8000000FFF0000
7FC000003FFF8000
7FE000007FFFC000
7FF00001FFFFE000
3FF80007FFFFF000
3FFF007FFF1FF800
1FFFFFFFFE0FFC00
0FFFFFFFFC07FE00
07FFFFFFF003FF00
01FFFFFFE001FF80
00FFFFFF0000FFC0
001FFFFC00007FE0
0001FFC000000000
ENDCHAR
STARTCHAR 0027
ENCODING 39
SWIDTH 225 0
DWIDTH 20 0
BBX 8 22 6 41
BITMAP
FF
FF
FF
FF
FF
FF
FF
FF
FF
7E
7E
7E
7E
7E
7E
7E
7E
7E
7E
7E
7E
7E
ENDCHAR
STARTCHAR 0028
ENCODING 40
SWIDTH 292 0
DWIDTH 26 0
BBX 20 77 4 -14
BITMAP
000FF0
001FE0
003FC0
003F80
007F80
00FF00
00FF00
01FE00
01FC00
03FC00
03F800
07F800
07F800
0FF000
0FF000
1FE000
1FE000
1FE000
3FC000
3FC000
3FC000
3FC000
7F8000
7F8000
7F8000
7F8000
7F8000
FF0000
FF0000
FF0000
FF0000
FF0000
FF0000
FF0000
FF0000
FF0000
FF0000
FE0000
FE0000
FE0000
FE0000
FF0000
FF0000
FF0000
FF0000
FF0000
FF0000
FF0000
FF0000
FF0000
7F8000
7F8000
7F8000
7F8000
7F8000
3FC000
3FC000
3FC000
3FE000
1FE000
1FE000
1FF000
0FF000
0FF000
07F800
07F800
03FC00
03FC00
01FE00
01FE00
00FF00
00FF00
007F80
003F80
001FC0
001FE0
000FF0
ENDCHAR
STARTCHAR 0029
ENCODING 41
SWIDTH 292 0
DWIDTH 26 0
BBX 20 77 3 -14
BITMAP
FF0000
7F8000
3F8000
3FC000
1FE000
0FE000
0FF000
07F800
07F800
03FC00
03FC00
01FE00
01FE00
01FE00
00FF00
00FF00
007F80
007F80
007F80
007F80
003FC0
003FC0
003FC0
001FC0
001FE0
001FE0
001FE0
001FE0
001FE0
000FF0
000FF0
000FF0
000FF0
000FF0
000FF0
000FF0
000FF0
000FF0
000FF0
000FF0
000FF0
000FF0
000FF0
000FF0
000FF0
000FF0
000FF0
000FF0
001FE0
001FE0
001FE0
001FE0
001FE0
003FE0
003FC0
003FC0
003FC0
007F80
007F80
007F80
00FF80
00FF00
00FF00
01FE00
01FE00
03FE00
03FC00
03FC00
07F800
0FF000
0FF000
1FE000
1FE000
3FC000
3F8000
7F0000
FF0000
ENDCHAR
STARTCHAR 002A
ENCODING 42
SWIDTH 540 0
DWIDTH 48 0
BBX 41 40 4 28
BITMAP
0000FF800000
0000FF800000
0000FF000000
0000FF000000
0000FF000000
0000FF000000
00007F000000
00007F000000
00007F000000
00007F000000
00007F000000
00007E000000
00007E000000
70007E000700
7E007E003F00
FFE03E03FF00
FFFC3E3FFF00
FFFFFFFFFF80
FFFFFFFFFF80
FFFFFFFFFF80
FFFFFFFFFF80
01FFFFFFC000
0000FF800000
0001FFC00000
0003FFE00000
0007FFE00000
0007E7F00000
000FE7F80000
001FE3FC0000
003FC3FC0000
003FC1FE0000
007F81FF0000
00FF80FF8000
01FF00FF8000
01FF007FC000
03FF007FE000
03FE003FE000
00FE003F8000
003C001E0000
000C00180000
ENDCHAR
STARTCHAR 002B
ENCODING 43
SWIDTH 562 0
DWIDTH 50 0
BBX 42 43 4 10
BITMAP
00003F800000
00003F800000
00003F800000
00003F800000
00003F800000
00003F800000
00003F800000
00003F800000
00003F800000
00003F800000
00003F800000
00003F800000
00003F800000
00003F800000
00003F800000
00003F800000
00003F800000
00003F800000
00003F800000
FFFFFFFFFFC0
FFFFFFFFFFC0
FFFFFFFFFFC0
FFFFFFFFFFC0
FFFFFFFFFFC0
FFFFFFFFFFC0
00003F800000
00003F800000
00003F800000
00003F800000
00003F800000
00003F800000
00003F800000
00003F800000
00003F800000
00003F800000
00003F800000
00003F800000
00003F800000
00003F800000
00003F800000
00003F800000
00003F800000
00003F800000
ENDCHAR
STARTCHAR 002C
ENCODING 44
SWIDTH 258 0
DWIDTH 23 0
BBX 13 21 4 -11
BITMAP
0FF8
0FF8
0FF8
1FF0
1FF0
1FF0
1FE0
1FE0
1FE0
3FC0
3FC0
3FC0
3F80
7F80
7F00
7F00
7F00
7E00
FE00
FC00
FC00
ENDCHAR
STARTCHAR 002D
ENCODING 45
SWIDTH 315 0
DWIDTH 28 0
BBX 21 7 4 20
BITMAP
FFFFF8
FFFFF8
FFFFF8
FFFFF8
FFFFF8
FFFFF8
FFFFF8
ENDCHAR
STARTCHAR 002E
ENCODING 46
SWIDTH 258 0
DWIDTH 23 0
BBX 11 12 6 -1
BITMAP
0E00
3FC0
7FE0
7FE0
7FE0
FFE0
FFE0
FFE0
7FE0
7FE0
3FC0
1F80
ENDCHAR
STARTCHAR 002F
ENCODING 47
SWIDTH 371 0
DWIDTH 33 0
BBX 31 63 1 0
BITMAP
000001FE
000001FC
000003FC
000003FC
000003F8
000007F8
000007F8
000007F0
00000FF0
00000FE0
00001FE0
00001FE0
00001FC0
00003FC0
00003FC0
00003F80
00007F80
00007F00
0000FF00
0000FF00
0000FE00
0001FE00
0001FE00
0001FC00
0003FC00
0003FC00
0007F800
0007F800
0007F000
000FF000
000FF000
000FE000
001FE000
001FE000
003FC000
003FC000
003F8000
007F8000
007F8000
007F0000
00FF0000
00FF0000
00FE0000
01FE0000
01FC0000
03FC0000
03FC0000
03F80000
07F80000
07F80000
07F00000
0FF00000
0FE00000
1FE00000
1FE00000
1FC00000
3FC00000
3FC00000
3F800000
7F800000
7F000000
FF000000
FF000000
ENDCHAR
STARTCHAR 0030
ENCODING 48
SWIDTH 562 0
DWIDTH 50 0
BBX 42 65 4 -1
BITMAP
0001FFF00000
000FFFFC0000
003FFFFF0000
007FFFFF8000
00FFFFFFC000
01FFFFFFE000
03FFE0FFF000
03FF001FF800
07FC000FF800
0FF80007FC00
0FF00003FE00
1FF00001FE00
1FE00001FE00
1FE00000FF00
3FC00000FF00
3FC000007F00
3FC000007F80
3FC000007F80
7F8000007F80
7F8000003F80
7F8000003FC0
7F8000003FC0
7F8000003FC0
7F8000003FC0
7F0000003FC0
7F0000003FC0
7F0000003FC0
FF0000003FC0
FF0000003FC0
FF0000001FC0
FF0000001FC0
FF0000001FC0
FF0000001FC0
FF0000001FC0
FF0000001FC0
FF0000003FC0
FF0000003FC0
7F0000003FC0
7F0000003FC0
7F0000003FC0
7F8000003FC0
7F8000003FC0
7F8000003FC0
7F8000003FC0
7F8000003FC0
3F8000007F80
3F8000007F80
3FC000007F80
3FC000007F80
1FC00000FF00
1FE00000FF00
1FE00000FF00
0FF00001FE00
0FF00001FE00
07F80003FE00
07FC0007FC00
03FE000FF800
03FF803FF800
01FFFFFFF000
00FFFFFFE000
007FFFFFC000
003FFFFF8000
000FFFFF0000
0003FFF80000
00007FC00000
ENDCHAR
STARTCHAR 0031
ENCODING 49
SWIDTH 562 0
DWIDTH 50 0
BBX 24 63 8 0
BITMAP
0000FF
0001FF
0007FF
000FFF
001FFF
007FFF
00FFFF
01FFFF
03FEFF
0FFCFF
1FF8FF
3FF0FF
FFE0FF
FFC0FF
7F00FF
3E00FF
1C00FF
0800FF
0000FF
0000FF
0000FF
0000FF
0000FF
0000FF
0000FF
0000FF
0000FF
0000FF
0000FF
0000FF
0000FF
0000FF
0000FF
0000FF
0000FF
0000FF
0000FF
0000FF
0000FF
0000FF
0000FF
0000FF
0000FF
0000FF
0000FF
0000FF
0000FF
0000FF
0000FF
0000FF
0000FF
0000FF
0000FF
0000FF
0000FF
0000FF
0000FF
0000FF
0000FF
0000FF
0000FF
0000FF
0000FF
ENDCHAR
STARTCHAR 0032
ENCODING 50
SWIDTH 562 0
DWIDTH 50 0
BBX 42 64 4 0
BITMAP
0007FFE00000
003FFFFC0000
00FFFFFF0000
03FFFFFFC000
07FFFFFFE000
1FFFFFFFF000
3FFFC1FFF800
7FF8003FF800
3FE0000FFC00
1F800007FC00
0F000003FE00
0C000003FE00
00000001FE00
00000001FE00
00000001FF00
00000000FF00
00000000FF00
00000000FF00
00000000FF00
00000001FE00
00000001FE00
00000001FE00
00000001FE00
00000003FE00
00000003FC00
00000003FC00
00000007F800
0000000FF800
0000000FF000
0000001FF000
0000003FE000
0000003FC000
0000007F8000
000000FF8000
000001FF0000
000003FE0000
000007FC0000
00000FF80000
00001FF00000
00003FE00000
00007FC00000
0000FF800000
0001FF000000
0003FE000000
0007FC000000
000FF8000000
001FF0000000
003FE0000000
007FC0000000
00FF80000000
01FF00000000
03FE00000000
07FC00000000
0FF800000000
1FF000000000
3FE000000000
7FC000000000
FFFFFFFFFFC0
FFFFFFFFFFC0
FFFFFFFFFFC0
FFFFFFFFFFC0
FFFFFFFFFFC0
FFFFFFFFFFC0
FFFFFFFFFFC0
ENDCHAR
STARTCHAR 0033
ENCODING 51
SWIDTH 562 0
DWIDTH 50 0
BBX 42 65 4 -1
BITMAP
000FFFF00000
007FFFFE0000
01FFFFFF8000
07FFFFFFC000
1FFFFFFFE000
7FFFFFFFF000
7FFF81FFF800
7FF0001FFC00
3FC0000FFC00
1F000007FE00
1C000003FE00
00000001FE00
00000001FF00
00000000FF00
00000000FF00
00000000FF00
00000000FF00
00000000FF00
00000000FF00
00000001FE00
00000001FE00
00000003FE00
00000003FC00
00000007FC00
0000000FF800
0000001FF000
0000007FE000
000007FFC000
003FFFFF0000
003FFFFC0000
003FFFE00000
003FFFFC0000
003FFFFF8000
003FFFFFE000
003FFFFFF800
000000FFFC00
0000001FFE00
00000007FE00
00000001FF00
00000000FF80
00000000FF80
000000007F80
000000007F80
000000007FC0
000000003FC0
000000003FC0
000000003FC0
000000007FC0
000000007FC0
000000007F80
000000007F80
00000000FF80
00000000FF80
00000001FF00
80000003FF00
E0000007FE00
FC00000FFE00
FFC0007FFC00
FFFFFFFFF800
FFFFFFFFF000
FFFFFFFFE000
FFFFFFFF8000
3FFFFFFE0000
07FFFFF00000
003FFE000000
ENDCHAR
STARTCHAR 0034
ENCODING 52
SWIDTH 562 0
DWIDTH 50 0
BBX 47 64 2 0
BITMAP
00000007FC00
00000007FC00
0000000FFC00
0000001FFC00
0000001FFC00
0000003FFC00
0000007FFC00
0000007FFC00
000000FFFC00
000001FDFC00
000001F9FC00
000003F9FC00
000007F1FC00
00000FF3FC00
00000FE3FC00
00001FE3FC00
00003FC3FC00
00003F83FC00
00007F03FC00
0000FF03FC00
0000FE03FC00
0001FC03FC00
0003FC03FC00
0007F803FC00
0007F003FC00
000FF003FC00
001FE003FC00
001FC003FC00
003F8003FC00
007F8003FC00
007F0003FC00
00FE0003FC00
01FE0003FC00
03FC0003FC00
03F80003FC00
07F80003FC00
0FF00003FC00
0FE00003FC00
1FC00003FC00
3FC00003FC00
3F800003FC00
7F000003FC00
FF000003FC00
FFFFFFFFFFFE
FFFFFFFFFFFE
FFFFFFFFFFFE
FFFFFFFFFFFE
FFFFFFFFFFFE
FFFFFFFFFFFE
FFFFFFFFFFFE
00000003FC00
00000003FC00
00000003FC00
00000003FC00
00000003FC00
00000003FC00
00000003FC00
00000003FC00
00000003FC00
00000003FC00
00000003FC00
00000003FC00
00000003FC00
00000003FC00
ENDCHAR
STARTCHAR 0035
ENCODING 53
SWIDTH 562 0
DWIDTH 50 0
BBX 40 64 6 -1
BITMAP
1FFFFFFFE0
1FFFFFFFE0
1FFFFFFFE0
1FFFFFFFE0
1FFFFFFFE0
1FFFFFFFE0
1FFFFFFFE0
1FC0000000
1FC0000000
1FC0000000
1FC0000000
1FC0000000
3FC0000000
3FC0000000
3FC0000000
3F80000000
3F80000000
3F80000000
3F80000000
3F80000000
3F80000000
3F80000000
3F80000000
3F80000000
7F8FFF0000
7FFFFFF000
7FFFFFFC00
7FFFFFFF00
7FFFFFFF80
7FFFFFFFE0
1FFFFFFFF0
0F0001FFF0
0000003FF8
0000001FFC
0000000FFC
00000007FE
00000003FE
00000001FE
00000001FE
00000001FF
00000000FF
00000000FF
00000000FF
00000000FF
00000000FF
00000000FF
00000000FF
00000001FE
00000001FE
00000001FE
00000003FE
00000003FC
00000007FC
0000000FF8
C000001FF8
F800007FF0
FF8003FFE0
FFFFFFFFC0
FFFFFFFF80
FFFFFFFF00
FFFFFFFC00
3FFFFFF000
07FFFFC000
003FFC0000
ENDCHAR
STARTCHAR 0036
ENCODING 54
SWIDTH 562 0
DWIDTH 50 0
BBX 42 65 5 -1
BITMAP
000007FFF800
00007FFFF800
0001FFFFF800
0007FFFFF800
000FFFFFF800
003FFFFFF800
007FFF003800
00FFF0000000
01FFC0000000
01FF80000000
03FE00000000
07FC00000000
07F800000000
0FF800000000
0FF000000000
1FE000000000
1FE000000000
1FC000000000
3FC000000000
3FC000000000
3F8000000000
7F8000000000
7F8000000000
7F8000000000
7F800FE00000
7F00FFFE0000
7F03FFFF8000
FF0FFFFFC000
FF1FFFFFF000
FF3FFFFFF800
FF7FF9FFFC00
FFFF001FFC00
FFFC0007FE00
FFF00003FF00
FFE00001FF00
FFC00000FF00
FFC00000FF80
FF8000007F80
FF0000007F80
FF0000003F80
FF0000003F80
FF0000003FC0
FF0000003FC0
FF0000003FC0
FF0000003FC0
7F0000003FC0
7F0000003FC0
7F8000003F80
7F8000007F80
3F8000007F80
3FC000007F80
3FC000007F80
1FE00000FF00
1FF00001FF00
0FF00001FE00
0FF80003FE00
07FE000FFC00
03FF803FFC00
01FFFFFFF800
01FFFFFFF000
007FFFFFE000
003FFFFF8000
000FFFFF0000
0003FFFC0000
00007FC00000
ENDCHAR
STARTCHAR 0037
ENCODING 55
SWIDTH 562 0
DWIDTH 50 0
BBX 42 63 4 0
BITMAP
FFFFFFFFFFC0
FFFFFFFFFFC0
FFFFFFFFFFC0
FFFFFFFFFFC0
FFFFFFFFFFC0
FFFFFFFFFFC0
FFFFFFFFFFC0
000000003FC0
000000007F80
000000007F80
00000000FF00
00000000FF00
00000001FE00
00000001FE00
00000003FE00
00000003FC00
00000003FC00
00000007F800
00000007F800
0000000FF000
0000000FF000
0000001FE000
0000001FE000
0000003FC000
0000003FC000
0000007FC000
0000007F8000
000000FF8000
000000FF0000
000000FF0000
000001FE0000
000001FE0000
000003FC0000
000003FC0000
000007FC0000
000007F80000
00000FF80000
00000FF00000
00001FF00000
00001FE00000
00003FE00000
00003FC00000
00003FC00000
00007F800000
00007F800000
0000FF800000
0000FF000000
0001FF000000
0001FE000000
0003FE000000
0003FC000000
0007FC000000
0007F8000000
000FF8000000
000FF8000000
000FF0000000
001FF0000000
001FE0000000
003FE0000000
003FC0000000
007FC0000000
007F80000000
00FF80000000
ENDCHAR
STARTCHAR 0038
ENCODING 56
SWIDTH 562 0
DWIDTH 50 0
BBX 42 65 4 -1
BITMAP
0003FFF00000
001FFFFE0000
007FFFFF8000
00FFFFFFE000
01FFFFFFF000
03FFFFFFF800
07FF803FFC00
0FFE000FFE00
0FF80003FE00
1FF00001FE00
1FE00001FF00
1FE00000FF00
1FC00000FF00
3FC00000FF00
3FC000007F00
3FC000007F00
3FC000007F00
1FC00000FF00
1FE00000FF00
1FE00000FF00
1FF00001FE00
0FF00001FE00
0FF80003FC00
07FC000FF800
03FF001FF000
01FFC07FE000
00FFF0FFC000
007FFFFF8000
003FFFFF0000
001FFFFC0000
0007FFF00000
000FFFFC0000
003FFFFF0000
007FFFFFC000
01FFE7FFE000
03FF80FFF000
07FE003FFC00
0FFC000FFE00
1FF00007FE00
1FE00001FF00
3FC00000FF80
3FC000007F80
7F8000007FC0
7F8000003FC0
7F0000003FC0
FF0000001FC0
FF0000001FC0
FF0000001FC0
FF0000001FC0
FF0000001FC0
7F0000003FC0
7F8000003FC0
7F8000003FC0
7FC000007F80
3FC00000FF80
3FE00001FF80
3FF00003FF00
1FFC000FFE00
0FFFE0FFFE00
07FFFFFFFC00
03FFFFFFF000
01FFFFFFE000
007FFFFF8000
000FFFFE0000
0000FFE00000
ENDCHAR
STARTCHAR 0039
ENCODING 57
SWIDTH 562 0
DWIDTH 50 0
BBX 42 65 4 -1
BITMAP
0003FFE00000
001FFFF80000
003FFFFE0000
00FFFFFF8000
01FFFFFFC000
03FFFFFFE000
07FFC1FFF000
0FFE003FF800
0FF8000FF800
1FF00007FC00
1FE00003FE00
3FC00001FE00
3FC00000FF00
7F800000FF00
7F8000007F00
7F8000007F80
7F8000007F80
7F0000003F80
7F0000003F80
FF0000003FC0
FF0000003FC0
FF0000003FC0
FF0000003FC0
7F0000003FC0
7F0000003FC0
7F8000003FC0
7F8000007FC0
7F8000007FC0
7FC00000FFC0
3FC00001FFC0
3FE00003FFC0
1FF00007FFC0
1FF8000FFFC0
0FFF007FBFC0
07FFFFFFBFC0
03FFFFFF3FC0
01FFFFFC3FC0
00FFFFF83FC0
003FFFE03F80
0007FF803F80
000000007F80
000000007F80
000000007F80
000000007F80
000000007F00
00000000FF00
00000000FF00
00000001FE00
00000001FE00
00000003FE00
00000003FC00
00000007FC00
0000000FF800
0000001FF000
0000003FF000
0000007FE000
000001FFC000
04000FFF8000
07FFFFFF0000
07FFFFFE0000
07FFFFFC0000
07FFFFF00000
07FFFFC00000
07FFFE000000
00FFE0000000
ENDCHAR
STARTCHAR 003A
ENCODING 58
SWIDTH 258 0
DWIDTH 23 0
BBX 11 50 6 -1
BITMAP
0F00
3FC0
7FE0
7FE0
FFE0
FFE0
FFE0
FFE0
7FE0
7FE0
3FC0
1F80
0000
0000
0000
0000
0000
0000
0000
0000
0000
0000
0000
0000
0000
0000
0000
0000
0000
0000
0000
0000
0000
0000
0000
0000
0000
0000
0E00
3FC0
7FE0
7FE0
7FE0
FFE0
FFE0
FFE0
7FE0
7FE0
3FC0
1F80
ENDCHAR
STARTCHAR 003B
ENCODING 59
SWIDTH 258 0
DWIDTH 23 0
BBX 14 60 3 -11
BITMAP
03E0
07F8
0FF8
0FFC
1FFC
1FFC
1FFC
1FFC
1FFC
0FFC
07F8
03F0
0000
0000
0000
0000
0000
0000
0000
0000
0000
0000
0000
0000
0000
0000
0000
0000
0000
0000
0000
0000
0000
0000
0000
0000
0000
0000
0000
0FF8
0FF8
0FF8
0FF0
1FF0
1FF0
1FF0
1FE0
1FE0
3FC0
3FC0
3FC0
3F80
3F80
7F80
7F00
7F00
7E00
FE00
FC00
FC00
ENDCHAR
STARTCHAR 003C
ENCODING 60
SWIDTH 562 0
DWIDTH 50 0
BBX 42 43 4 10
BITMAP
000000000040
0000000001C0
0000000007C0
000000001FC0
000000007FC0
00000001FFC0
00000007FFC0
0000001FFF80
0000007FFE00
000001FFF800
000007FFE000
00001FFF8000
00007FFC0000
0001FFF00000
0007FFC00000
001FFF000000
007FFC000000
01FFF0000000
07FFC0000000
1FFF00000000
7FF800000000
FFE000000000
FF8000000000
FFE000000000
FFF800000000
7FFF00000000
1FFFC0000000
07FFF0000000
00FFFE000000
003FFF800000
000FFFE00000
0001FFFC0000
00007FFF0000
00001FFFE000
000007FFF800
000000FFFE00
0000003FFFC0
0000000FFFC0
00000003FFC0
000000007FC0
000000001FC0
0000000007C0
0000000000C0
ENDCHAR
STARTCHAR 003D
ENCODING 61
SWIDTH 562 0
DWIDTH 50 0
BBX 41 24 5 19
BITMAP
FFFFFFFFFF80
FFFFFFFFFF80
FFFFFFFFFF80
FFFFFFFFFF80
FFFFFFFFFF80
FFFFFFFFFF80
000000000000
000000000000
000000000000
000000000000
000000000000
000000000000
000000000000
000000000000
000000000000
000000000000
000000000000
FFFFFFFFFF80
FFFFFFFFFF80
FFFFFFFFFF80
FFFFFFFFFF80
FFFFFFFFFF80
FFFFFFFFFF80
FFFFFFFFFF80
ENDCHAR
STARTCHAR 003E
ENCODING 62
SWIDTH 562 0
DWIDTH 50 0
BBX 42 44 4 10
BITMAP
C00000000000
F00000000000
FC0000000000
FF0000000000
FFC000000000
FFF000000000
FFFC00000000
3FFF00000000
0FFFC0000000
03FFF0000000
00FFFC000000
003FFF000000
000FFFC00000
0003FFF00000
0000FFFC0000
00001FFF0000
000007FFC000
000001FFF000
0000007FFC00
0000001FFF00
00000007FFC0
00000001FFC0
000000007FC0
00000000FFC0
00000003FFC0
0000001FFFC0
0000007FFF00
000001FFF800
00000FFFE000
00003FFF8000
0001FFFC0000
0007FFF00000
001FFFC00000
00FFFF000000
03FFF8000000
1FFFE0000000
7FFF80000000
FFFE00000000
FFF000000000
FFC000000000
FF0000000000
F80000000000
E00000000000
800000000000
ENDCHAR
STARTCHAR 003F
ENCODING 63
SWIDTH 427 0
DWIDTH 38 0
BBX 35 65 1 -1
BITMAP
007FFF0000
03FFFFE000
1FFFFFF800
7FFFFFFC00
FFFFFFFE00
7FFFFFFF00
7FFFFFFF80
3FC001FFC0
3E00007FC0
1000003FC0
0000001FE0
0000001FE0
0000001FE0
0000000FE0
0000000FE0
0000000FE0
0000000FE0
0000000FE0
0000001FE0
0000001FE0
0000001FE0
0000003FC0
0000007FC0
000000FF80
000001FF80
000003FF00
000007FE00
00000FFC00
00001FF800
00003FF000
00007FE000
0000FFC000
0001FF0000
0003FE0000
0003FC0000
0007F80000
0007F00000
000FF00000
000FE00000
000FC00000
000FC00000
001FC00000
001FC00000
001FC00000
001FC00000
001FC00000
0000000000
0000000000
0000000000
0000000000
0000000000
0000000000
0000000000
0007000000
001FE00000
003FE00000
003FF00000
003FF00000
007FF00000
007FF00000
007FF00000
003FF00000
003FF00000
001FE00000
000FC00000
ENDCHAR
STARTCHAR 0040
ENCODING 64
SWIDTH 888 0
DWIDTH 79 0
BBX 70 71 5 -8
BITMAP
0000000FFFFE000000
0000007FFFFFC00000
000003FFFFFFF80000
00000FFFFFFFFE0000
00003FFFFFFFFF0000
0000FFFFF1FFFFC000
0001FFF00003FFE000
0007FF8000007FF000
000FFE0000001FF800
001FF800000007FC00
003FE000000003FE00
007FC000000000FF00
00FF80000000007F00
00FF00000000003F80
01FE00000000003FC0
03FC00000000001FC0
03F800000000000FE0
07F00001FFF8000FE0
07F0000FFFFF8007F0
0FE0001FFFFFC007F0
0FC0007FFFFFC003F0
1FC000FFFFFFC003F8
1FC001FFE1FFC003F8
3F8003FF001FC001F8
3F8007FC001FC001F8
3F0007F8001FC001F8
3F000FF0001FC001F8
7F000FE0001FC001FC
7F001FE0001FC001FC
7E001FC0001FC001FC
7E001FC0001FC000FC
7E003FC0001FC000FC
FE003F80001FC001FC
FE003F80001FC001FC
FE003F80001FC001FC
FE003F80001FC001FC
FE003F80001FC001F8
FE003F80001F8001F8
FE003F80003F8001F8
FE003F80003F8003F8
FE003F80003F8003F0
FE003F80003F8003F0
FE001FC0007FC007F0
FE001FC0007FC007E0
7E001FE000FFC00FE0
7E000FE001FFC00FC0
7E000FF803F7E01FC0
7F0007FE0FE3F87F80
7F0007FFFFE3FFFF00
3F0003FFFFC1FFFE00
3F8001FFFF81FFFC00
3F80007FFE007FF800
1FC0001FF8003FE000
1FC000000000000000
1FE000000000000000
0FE000000000000000
0FF000000000000000
07F800000000000000
03FC00000000000000
03FE00000000000000
01FF00000000000000
00FFC0000000080000
007FF0000000780000
003FFE000007F80000
000FFFE000FFF80000
0007FFFFFFFFF80000
0001FFFFFFFFF80000
0000FFFFFFFFF00000
00001FFFFFFF800000
000003FFFFFC000000
0000001FFF00000000
ENDCHAR
STARTCHAR 0041
ENCODING 65
SWIDTH 630 0
DWIDTH 56 0
BBX 57 64 0 0
BITMAP
0000007F00000000
000000FF00000000
000000FF80000000
000000FF80000000
000001FFC0000000
000001FFC0000000
000003FFC0000000
000003FFE0000000
000003FFE0000000
000007F7F0000000
000007F7F0000000
00000FF7F0000000
00000FE7F8000000
00000FE3F8000000
00001FE3FC000000
00001FC3FC000000
00003FC1FC000000
00003FC1FE000000
00003F81FE000000
00007F80FE000000
00007F80FF000000
00007F007F000000
0000FF007F800000
0000FE007F800000
0001FE003F800000
0001FE003FC00000
0001FC003FC00000
0003FC001FE00000
0003FC001FE00000
0007F8000FE00000
0007F8000FF00000
0007F0000FF00000
000FF00007F80000
000FF00007F80000
001FE00007F80000
001FE00003FC0000
001FE00003FC0000
003FFFFFFFFC0000
003FFFFFFFFE0000
003FFFFFFFFE0000
007FFFFFFFFF0000
007FFFFFFFFF0000
00FFFFFFFFFF0000
00FFFFFFFFFF8000
00FF0000007F8000
01FE0000007FC000
01FE0000003FC000
03FC0000003FC000
03FC0000003FE000
03FC0000001FE000
07F80000001FE000
07F80000000FF000
0FF80000000FF000
0FF00000000FF800
0FF000000007F800
1FE000000007F800
1FE000000003FC00
1FE000000003FC00
3FC000000003FE00
3FC000000001FE00
7F8000000001FE00
7F8000000001FF00
7F8000000000FF00
FF0000000000FF80
ENDCHAR
STARTCHAR 0042
ENCODING 66
SWIDTH 641 0
DWIDTH 57 0
BBX 44 63 9 0
BITMAP
FFFFFFF80000
FFFFFFFF0000
FFFFFFFFE000
FFFFFFFFF000
FFFFFFFFFC00
FFFFFFFFFE00
FF0007FFFF00
FF00001FFF00
FF000003FF80
FF000001FF80
FF000000FF80
FF0000007FC0
FF0000007FC0
FF0000007FC0
FF0000007FC0
FF0000003FC0
FF0000003FC0
FF0000007FC0
FF0000007FC0
FF0000007F80
FF0000007F80
FF000000FF80
FF000000FF00
FF000001FF00
FF000003FE00
FF00000FFC00
FF0007FFF800
FFFFFFFFE000
FFFFFFFF8000
FFFFFFFC0000
FFFFFFFF8000
FFFFFFFFF000
FFFFFFFFFC00
FF0000FFFE00
FF000007FF00
FF000001FF80
FF000000FFC0
FF0000007FC0
FF0000003FE0
FF0000003FE0
FF0000001FF0
FF0000001FF0
FF0000001FF0
FF0000001FF0
FF0000001FF0
FF0000001FF0
FF0000001FF0
FF0000001FF0
FF0000001FF0
FF0000003FF0
FF0000003FE0
FF0000007FE0
FF0000007FE0
FF000000FFC0
FF000003FF80
FF00001FFF80
FFFFFFFFFF00
FFFFFFFFFE00
FFFFFFFFFC00
FFFFFFFFF000
FFFFFFFFE000
FFFFFFFF0000
FFFFFFF00000
ENDCHAR
STARTCHAR 0043
ENCODING 67
SWIDTH 630 0
DWIDTH 56 0
BBX 48 65 5 -1
BITMAP
000001FFFF00
00001FFFFFF0
00007FFFFFFE
0001FFFFFFFF
0007FFFFFFFF
000FFFFFFFFE
001FFFFFFFFE
007FFF0003FC
00FFF800007C
00FFF000000C
01FFC0000000
03FF80000000
07FF00000000
07FE00000000
0FFC00000000
0FF800000000
1FF800000000
1FF000000000
1FF000000000
3FE000000000
3FE000000000
3FC000000000
7FC000000000
7FC000000000
7FC000000000
7F8000000000
7F8000000000
7F8000000000
7F8000000000
FF8000000000
FF8000000000
FF8000000000
FF8000000000
FF8000000000
FF8000000000
FF8000000000
7F8000000000
7F8000000000
7F8000000000
7F8000000000
7FC000000000
7FC000000000
7FC000000000
3FC000000000
3FE000000000
3FE000000000
3FF000000000
1FF000000000
1FF800000000
0FF800000000
0FFC00000000
07FE00000000
07FF00000000
03FF80000000
03FFC0000000
01FFF0000004
00FFFC00003C
007FFFE00FFC
003FFFFFFFFC
001FFFFFFFFC
0007FFFFFFFC
0003FFFFFFFC
0000FFFFFFF8
00001FFFFFC0
000000FFF800
ENDCHAR
STARTCHAR 0044
ENCODING 68
SWIDTH 720 0
DWIDTH 64 0
BBX 50 63 9 0
BITMAP
FFFFFFF0000000
FFFFFFFF000000
FFFFFFFFE00000
FFFFFFFFF80000
FFFFFFFFFC0000
FFFFFFFFFF0000
FF000FFFFF8000
FF00001FFFC000
FF000003FFE000
FF000000FFF000
FF0000007FF800
FF0000001FF800
FF0000000FFC00
FF00000007FE00
FF00000003FE00
FF00000003FF00
FF00000001FF00
FF00000001FF00
FF00000000FF80
FF00000000FF80
FF000000007F80
FF000000007FC0
FF000000007FC0
FF000000007FC0
FF000000003FC0
FF000000003FC0
FF000000003FC0
FF000000003FC0
FF000000003FC0
FF000000003FC0
FF000000003FC0
FF000000003FC0
FF000000003FC0
FF000000003FC0
FF000000003FC0
FF000000003FC0
FF000000003FC0
FF000000007FC0
FF000000007FC0
FF000000007FC0
FF000000007F80
FF000000007F80
FF00000000FF80
FF00000000FF80
FF00000001FF00
FF00000001FF00
FF00000003FF00
FF00000003FE00
FF00000007FE00
FF0000000FFC00
FF0000001FF800
FF0000003FF800
FF000000FFF000
FF000003FFE000
FF00000FFFC000
FF0000FFFF8000
FFFFFFFFFF0000
FFFFFFFFFC0000
FFFFFFFFF80000
FFFFFFFFE00000
FFFFFFFF000000
FFFFFFFC000000
FFFFFF80000000
ENDCHAR
STARTCHAR 0045
ENCODING 69
SWIDTH 551 0
DWIDTH 49 0
BBX 35 63 9 0
BITMAP
FFFFFFFFE0
FFFFFFFFE0
FFFFFFFFE0
FFFFFFFFE0
FFFFFFFFE0
FFFFFFFFE0
FFFFFFFFE0
FF00000000
FF00000000
FF00000000
FF00000000
FF00000000
FF00000000
FF00000000
FF00000000
FF00000000
FF00000000
FF00000000
FF00000000
FF00000000
FF00000000
FF00000000
FF00000000
FF00000000
FF00000000
FF00000000
FFFFFFFF80
FFFFFFFF80
FFFFFFFF80
FFFFFFFF80
FFFFFFFF80
FFFFFFFF80
FFFFFFFF80
FF00000000
FF00000000
FF00000000
FF00000000
FF00000000
FF00000000
FF00000000
FF00000000
FF00000000
FF00000000
FF00000000
FF00000000
FF00000000
FF00000000
FF00000000
FF00000000
FF00000000
FF00000000
FF00000000
FF00000000
FF00000000
FF00000000
FF00000000
FFFFFFFFE0
FFFFFFFFE0
FFFFFFFFE0
FFFFFFFFE0
FFFFFFFFE0
FFFFFFFFE0
FFFFFFFFE0
ENDCHAR
STARTCHAR 0046
ENCODING 70
SWIDTH 517 0
DWIDTH 46 0
BBX 35 63 9 0
BITMAP
FFFFFFFFE0
FFFFFFFFE0
FFFFFFFFE0
FFFFFFFFE0
FFFFFFFFE0
FFFFFFFFE0
FFFFFFFFE0
FF00000000
FF00000000
FF00000000
FF00000000
FF00000000
FF00000000
FF00000000
FF00000000
FF00000000
FF00000000
FF00000000
FF00000000
FF00000000
FF00000000
FF00000000
FF00000000
FF00000000
FF00000000
FF00000000
FF00000000
FF00000000
FF00000000
FFFFFFFF80
FFFFFFFF80
FFFFFFFF80
FFFFFFFF80
FFFFFFFF80
FFFFFFFF80
FFFFFFFF80
FF00000000
FF00000000
FF00000000
FF00000000
FF00000000
FF00000000
FF00000000
FF00000000
FF00000000
FF00000000
FF00000000
FF00000000
FF00000000
FF00000000
FF00000000
FF00000000
FF00000000
FF00000000
FF00000000
FF00000000
FF00000000
FF00000000
FF00000000
FF00000000
FF00000000
FF00000000
FF00000000
ENDCHAR
STARTCHAR 0047
ENCODING 71
SWIDTH 720 0
DWIDTH 64 0
BBX 53 65 5 -1
BITMAP
000000FFFFE000
000007FFFFFE00
00003FFFFFFFC0
0000FFFFFFFFF0
0003FFFFFFFFF0
0007FFFFFFFFE0
001FFFFFFFFFE0
003FFFC000FFC0
007FFE00000FC0
00FFF0000001C0
01FFE000000000
01FF8000000000
03FF0000000000
07FE0000000000
07FC0000000000
0FF80000000000
0FF80000000000
1FF00000000000
1FF00000000000
3FE00000000000
3FE00000000000
3FC00000000000
7FC00000000000
7FC00000000000
7FC00000000000
7F800000000000
7F800000000000
7F800000000000
7F800000000000
FF800000000000
FF800001FFFFF8
FF800001FFFFF8
FF800001FFFFF8
FF800001FFFFF8
FF800001FFFFF8
7F800001FFFFF8
7F800001FFFFF8
7F800001FFFFF8
7F8000000007F8
7F8000000007F8
7FC000000007F8
7FC000000007F8
7FC000000007F8
3FC000000007F8
3FE000000007F8
3FE000000007F8
1FF000000007F8
1FF000000007F8
1FF800000007F8
0FF800000007F8
0FFC00000007F8
07FE00000007F8
07FF00000007F8
03FF80000007F8
01FFE0000007F8
00FFF0000007F8
007FFE000007F8
003FFFE000FFF8
001FFFFFFFFFF8
000FFFFFFFFFF8
0007FFFFFFFFF8
0001FFFFFFFFF8
00007FFFFFFFC0
00000FFFFFFC00
0000007FFE0000
ENDCHAR
STARTCHAR 0048
ENCODING 72
SWIDTH 731 0
DWIDTH 65 0
BBX 48 63 9 0
BITMAP
FF00000000FF
FF00000000FF
FF00000000FF
FF00000000FF
FF00000000FF
FF00000000FF
FF00000000FF
FF00000000FF
FF00000000FF
FF00000000FF
FF00000000FF
FF00000000FF
FF00000000FF
FF00000000FF
FF00000000FF
FF00000000FF
FF00000000FF
FF00000000FF
FF00000000FF
FF00000000FF
FF00000000FF
FF00000000FF
FF00000000FF
FF00000000FF
FF00000000FF
FF00000000FF
FFFFFFFFFFFF
FFFFFFFFFFFF
FFFFFFFFFFFF
FFFFFFFFFFFF
FFFFFFFFFFFF
FFFFFFFFFFFF
FFFFFFFFFFFF
FF00000000FF
FF00000000FF
FF00000000FF
FF00000000FF
FF00000000FF
FF00000000FF
FF00000000FF
FF00000000FF
FF00000000FF
FF00000000FF
FF00000000FF
FF00000000FF
FF00000000FF
FF00000000FF
FF00000000FF
FF00000000FF
FF00000000FF
FF00000000FF
FF00000000FF
FF00000000FF
FF00000000FF
FF00000000FF
FF00000000FF
FF00000000FF
FF00000000FF
FF00000000FF
FF00000000FF
FF00000000FF
FF00000000FF
FF00000000FF
ENDCHAR
STARTCHAR 0049
ENCODING 73
SWIDTH 337 0
DWIDTH 30 0
BBX 22 63 4 0
BITMAP
FFFFFC
FFFFFC
FFFFFC
FFFFFC
7FFFF8
07FF80
01FE00
01FE00
01FE00
01FE00
01FE00
01FE00
01FE00
01FE00
01FE00
01FE00
01FE00
01FE00
01FE00
01FE00
01FE00
01FE00
01FE00
01FE00
01FE00
01FE00
01FE00
01FE00
01FE00
01FE00
01FE00
01FE00
01FE00
01FE00
01FE00
01FE00
01FE00
01FE00
01FE00
01FE00
01FE00
01FE00
01FE00
01FE00
01FE00
01FE00
01FE00
01FE00
01FE00
01FE00
01FE00
01FE00
01FE00
01FE00
01FE00
01FE00
01FE00
1FFFE0
FFFFFC
FFFFFC
FFFFFC
FFFFFC
FFFFFC
ENDCHAR
STARTCHAR 004A
ENCODING 74
SWIDTH 270 0
DWIDTH 24 0
BBX 23 80 -7 -17
BITMAP
0001FE
0001FE
0001FE
0001FE
0001FE
0001FE
0001FE
0001FE
0001FE
0001FE
0001FE
0001FE
0001FE
0001FE
0001FE
0001FE
0001FE
0001FE
0001FE
0001FE
0001FE
0001FE
0001FE
0001FE
0001FE
0001FE
0001FE
0001FE
0001FE
0001FE
0001FE
0001FE
0001FE
0001FE
0001FE
0001FE
0001FE
0001FE
0001FE
0001FE
0001FE
0001FE
0001FE
0001FE
0001FE
0001FE
0001FE
0001FE
0001FE
0001FE
0001FE
0001FE
0001FE
0001FE
0001FE
0001FE
0001FE
0001FE
0001FE
0001FE
0001FE
0001FE
0001FE
0001FE
0001FE
0001FE
0001FE
0003FE
0003FC
0003FC
0007FC
000FF8
E07FF8
FFFFF0
FFFFF0
FFFFE0
FFFFC0
FFFF00
FFFC00
3FE000
ENDCHAR
STARTCHAR 004B
ENCODING 75
SWIDTH 618 0
DWIDTH 55 0
BBX 46 63 9 0
BITMAP
FF0000001FF8
FF0000003FE0
FF0000007FC0
FF000000FF80
FF000001FF80
FF000003FF00
FF000007FE00
FF000007FC00
FF00000FF800
FF00001FF000
FF00003FE000
FF00007FC000
FF0000FF8000
FF0001FF0000
FF0003FE0000
FF0007FE0000
FF0007FC0000
FF000FF80000
FF001FF00000
FF003FE00000
FF007FC00000
FF00FF800000
FF01FF000000
FF03FE000000
FF07FC000000
FF0FF8000000
FF1FF8000000
FF1FF0000000
FF3FF8000000
FF7FFC000000
FFFFFC000000
FFFFFE000000
FFFFFF000000
FFF9FF800000
FFF1FF800000
FFE0FFC00000
FFC07FE00000
FF803FE00000
FF003FF00000
FF001FF80000
FF000FFC0000
FF0007FC0000
FF0007FE0000
FF0003FF0000
FF0001FF8000
FF0000FF8000
FF0000FFC000
FF00007FE000
FF00003FE000
FF00001FF000
FF00001FF800
FF00000FFC00
FF000007FC00
FF000003FE00
FF000003FF00
FF000001FF80
FF000000FF80
FF0000007FC0
FF0000007FE0
FF0000003FE0
FF0000001FF0
FF0000001FF8
FF0000000FFC
ENDCHAR
STARTCHAR 004C
ENCODING 76
SWIDTH 517 0
DWIDTH 46 0
BBX 35 63 9 0
BITMAP
FF00000000
FF00000000
FF00000000
FF00000000
FF00000000
FF00000000
FF00000000
FF00000000
FF00000000
FF00000000
FF00000000
FF00000000
FF00000000
FF00000000
FF00000000
FF00000000
FF00000000
FF00000000
FF00000000
FF00000000
FF00000000
FF00000000
FF00000000
FF00000000
FF00000000
FF00000000
FF00000000
FF00000000
FF00000000
FF00000000
FF00000000
FF00000000
FF00000000
FF00000000
FF00000000
FF00000000
FF00000000
FF00000000
FF00000000
FF00000000
FF00000000
FF00000000
FF00000000
FF00000000
FF00000000
FF00000000
FF00000000
FF00000000
FF00000000
FF00000000
FF00000000
FF00000000
FF00000000
FF00000000
FF00000000
FF00000000
FFFFFFFFE0
FFFFFFFFE0
FFFFFFFFE0
FFFFFFFFE0
FFFFFFFFE0
FFFFFFFFE0
FFFFFFFFE0
ENDCHAR
STARTCHAR 004D
ENCODING 77
SWIDTH 900 0
DWIDTH 80 0
BBX 63 63 9 0
BITMAP
FFF0000000001FFE
FFF0000000001FFE
FFF8000000003FFE
FFF8000000003FFE
FFF8000000007FFE
FFFC000000007FFE
FFFC000000007FFE
FDFC00000000FEFE
FDFE00000000FEFE
FEFE00000001FEFE
FEFF00000001FCFE
FEFF00000001FDFE
FE7F00000003F9FE
FE7F80000003F9FE
FE7F80000003F9FE
FE3F80000007F1FE
FE3FC0000007F1FE
FE1FC000000FF1FE
FE1FE000000FE1FE
FE1FE000000FE1FE
FE0FE000001FC1FE
FE0FF000001FC1FE
FE0FF000003FC1FE
FE07F000003F81FE
FE07F800003F81FE
FE03F800007F01FE
FE03FC00007F01FE
FE03FC00007F01FE
FE01FC0000FE01FE
FE01FE0000FE01FE
FE01FE0001FE01FE
FE00FE0001FC01FE
FE00FF0001FC01FE
FE007F0003F801FE
FE007F8003F801FE
FE007F8007F801FE
FE003F8007F001FE
FE003FC007F001FE
FE003FC00FF001FE
FE001FC00FE001FE
FE001FE00FE001FE
FE000FE01FC001FE
FE000FF01FC001FE
FE000FF03FC001FE
FE0007F03F8001FE
FE0007F83F8001FE
FE0007F87F0001FE
FE0003F87F0001FE
FE0003FC7F0001FE
FE0001FCFE0001FE
FE0001FEFE0001FE
FE0001FFFE0001FE
FE0000FFFC0001FE
FE0000FFFC0001FE
FE0000FFF80001FE
FE00007FF80001FE
FE00007FF80001FE
FE00003FF00001FE
FE00003FF00001FE
FE00003FF00001FE
FE00001FE00001FE
FE00001FE00001FE
FE00001FC00001FE
ENDCHAR
STARTCHAR 004E
ENCODING 78
SWIDTH 753 0
DWIDTH 67 0
BBX 50 63 9 0
BITMAP
FF800000003FC0
FFC00000003FC0
FFE00000003FC0
FFE00000003FC0
FFF00000003FC0
FFF80000003FC0
FFF80000003FC0
FFFC0000003FC0
FFFE0000003FC0
FFFE0000003FC0
FDFF0000003FC0
FDFF8000003FC0
FCFF8000003FC0
FC7FC000003FC0
FE7FE000003FC0
FE3FE000003FC0
FE1FF000003FC0
FE1FF000003FC0
FE0FF800003FC0
FE07FC00003FC0
FE07FC00003FC0
FE03FE00003FC0
FE03FF00003FC0
FE01FF00003FC0
FE00FF80003FC0
FE00FFC0003FC0
FE007FC0003FC0
FE003FE0003FC0
FE003FF0003FC0
FE001FF0003FC0
FE000FF8003FC0
FE000FF8003FC0
FE0007FC003FC0
FE0003FE003FC0
FE0003FE003FC0
FE0001FF003FC0
FE0000FF803FC0
FE0000FF803FC0
FE00007FC03FC0
FE00007FE01FC0
FE00003FE01FC0
FE00001FF01FC0
FE00001FF81FC0
FE00000FF81FC0
FE000007FC1FC0
FE000007FE1FC0
FE000003FE1FC0
FE000001FF1FC0
FE000001FF1FC0
FE000000FF9FC0
FE0000007FDFC0
FE0000007FDFC0
FE0000003FFFC0
FE0000003FFFC0
FE0000001FFFC0
FE0000000FFFC0
FE0000000FFFC0
FE00000007FFC0
FE00000003FFC0
FE00000003FFC0
FE00000001FFC0
FE00000000FFC0
FE00000000FFC0
ENDCHAR
STARTCHAR 004F
ENCODING 79
SWIDTH 776 0
DWIDTH 69 0
BBX 59 65 5 -1
BITMAP
000007FFFC000000
00003FFFFFC00000
0001FFFFFFF00000
0003FFFFFFFC0000
000FFFFFFFFE0000
001FFFFFFFFF8000
003FFFFFFFFFC000
007FFE0007FFE000
00FFF00000FFF000
01FFC000007FF000
03FF8000001FF800
07FF0000000FFC00
07FE00000007FC00
0FFC00000003FE00
0FF800000003FE00
1FF800000001FF00
1FF000000001FF00
1FF000000000FF80
3FE000000000FF80
3FE0000000007F80
3FC0000000007FC0
7FC0000000007FC0
7FC0000000003FC0
7FC0000000003FC0
7F80000000003FC0
7F80000000003FE0
7F80000000003FE0
7F80000000003FE0
7F80000000003FE0
FF80000000003FE0
FF80000000001FE0
FF80000000001FE0
FF80000000001FE0
FF80000000001FE0
FF80000000003FE0
7F80000000003FE0
7F80000000003FE0
7F80000000003FE0
7F80000000003FE0
7F80000000003FE0
7FC0000000003FC0
7FC0000000003FC0
7FC0000000007FC0
3FC0000000007FC0
3FE0000000007F80
3FE000000000FF80
1FE000000000FF80
1FF000000000FF00
1FF000000001FF00
0FF800000001FF00
0FFC00000003FE00
07FC00000007FE00
07FE0000000FFC00
03FF0000001FF800
01FF8000003FF800
01FFE000007FF000
00FFF80003FFE000
007FFF801FFFC000
003FFFFFFFFF8000
001FFFFFFFFF0000
0007FFFFFFFC0000
0001FFFFFFF80000
00007FFFFFE00000
00001FFFFF000000
000000FFE0000000
ENDCHAR
STARTCHAR 0050
ENCODING 80
SWIDTH 596 0
DWIDTH 53 0
BBX 40 63 9 0
BITMAP
FFFFFFC000
FFFFFFFC00
FFFFFFFF00
FFFFFFFF80
FFFFFFFFE0
FFFFFFFFF0
FF003FFFF8
FF0000FFF8
FF00001FFC
FF00000FFC
FF000007FE
FF000003FE
FF000001FF
FF000001FF
FF000001FF
FF000000FF
FF000000FF
FF000000FF
FF000000FF
FF000000FF
FF000000FF
FF000000FF
FF000000FF
FF000001FF
FF000001FE
FF000003FE
FF000003FE
FF000007FC
FF00000FFC
FF00003FF8
FF0001FFF0
FFFFFFFFE0
FFFFFFFFC0
FFFFFFFF80
FFFFFFFF00
FFFFFFFC00
FFFFFFE000
FFFFFF0000
FF00000000
FF00000000
FF00000000
FF00000000
FF00000000
FF00000000
FF00000000
FF00000000
FF00000000
FF00000000
FF00000000
FF00000000
FF00000000
FF00000000
FF00000000
FF00000000
FF00000000
FF00000000
FF00000000
FF00000000
FF00000000
FF00000000
FF00000000
FF00000000
FF00000000
ENDCHAR
STARTCHAR 0051
ENCODING 81
SWIDTH 776 0
DWIDTH 69 0
BBX 59 79 5 -15
BITMAP
000007FFFC000000
00003FFFFFC00000
0001FFFFFFF00000
0003FFFFFFFC0000
000FFFFFFFFE0000
001FFFFFFFFF8000
003FFFFFFFFFC000
007FFE0007FFE000
00FFF00000FFF000
01FFC000007FF000
03FF8000001FF800
07FF0000000FFC00
07FE00000007FC00
0FFC00000003FE00
0FF800000003FE00
1FF800000001FF00
1FF000000001FF00
1FF000000000FF80
3FE000000000FF80
3FE0000000007F80
3FC0000000007FC0
7FC0000000007FC0
7FC0000000003FC0
7FC0000000003FC0
7F80000000003FC0
7F80000000003FE0
7F80000000003FE0
7F80000000003FE0
7F80000000003FE0
FF80000000003FE0
FF80000000001FE0
FF80000000001FE0
FF80000000001FE0
FF80000000001FE0
FF80000000003FE0
7F80000000003FE0
7F80000000003FE0
7F80000000003FE0
7F80000000003FE0
7F80000000003FC0
7FC0000000003FC0
7FC0000000003FC0
7FC0000000007FC0
3FC0000000007FC0
3FE0000000007F80
3FE000000000FF80
1FE000000000FF80
1FF000000000FF00
1FF000000001FF00
0FF800000001FF00
0FFC00000003FE00
07FC00000007FE00
07FE0000000FFC00
03FF0000001FF800
01FF8000003FF800
01FFE000007FF000
00FFF80003FFE000
007FFF801FFFC000
003FFFFFFFFF8000
001FFFFFFFFF0000
0007FFFFFFFC0000
0001FFFFFFF80000
00007FFFFFE00000
00001FFFFF800000
000000FFFFC00000
000000007FE00000
000000007FF00000
000000003FF80000
000000001FFC0000
000000000FFC0000
0000000007FE0000
0000000003FF0000
0000000001FF8000
0000000001FFC000
0000000000FFE000
00000000007FF000
00000000003FF800
00000000001FFC00
00000000000FFE00
ENDCHAR
STARTCHAR 0052
ENCODING 82
SWIDTH 618 0
DWIDTH 55 0
BBX 45 63 9 0
BITMAP
FFFFFFE00000
FFFFFFFC0000
FFFFFFFF0000
FFFFFFFFC000
FFFFFFFFE000
FFFFFFFFF000
FF007FFFF800
FF00007FFC00
FF00001FFC00
FF000007FE00
FF000003FE00
FF000003FE00
FF000001FF00
FF000001FF00
FF000000FF00
FF000000FF00
FF000000FF00
FF000000FF00
FF000000FF00
FF000000FF00
FF000000FF00
FF000000FF00
FF000001FF00
FF000001FE00
FF000003FE00
FF000003FE00
FF000007FC00
FF00000FF800
FF00003FF800
FF0001FFF000
FFFFFFFFE000
FFFFFFFF8000
FFFFFFFF0000
FFFFFFFC0000
FFFFFFF00000
FFFFFFF00000
FFFFFFF80000
FF0007F80000
FF0007FC0000
FF0003FE0000
FF0003FE0000
FF0001FF0000
FF0000FF0000
FF0000FF8000
FF00007FC000
FF00007FC000
FF00003FE000
FF00001FE000
FF00001FF000
FF00000FF800
FF00000FF800
FF000007FC00
FF000007FE00
FF000003FE00
FF000001FF00
FF000001FF00
FF000000FF80
FF000000FFC0
FF0000007FC0
FF0000003FE0
FF0000003FE0
FF0000001FF0
FF0000001FF8
ENDCHAR
STARTCHAR 0053
ENCODING 83
SWIDTH 540 0
DWIDTH 48 0
BBX 40 65 5 -1
BITMAP
0007FFFC00
003FFFFFC0
00FFFFFFF0
01FFFFFFFC
07FFFFFFFC
0FFFFFFFF8
1FFFFFFFF8
1FFE000FF8
3FF00001F0
3FE0000030
7FC0000000
7FC0000000
7F80000000
FF80000000
FF80000000
FF00000000
FF00000000
FF80000000
FF80000000
7F80000000
7F80000000
7FC0000000
7FE0000000
3FF0000000
3FF8000000
1FFE000000
0FFF800000
0FFFE00000
03FFFC0000
01FFFF0000
00FFFFE000
003FFFF800
000FFFFE00
0003FFFF00
0000FFFFC0
00001FFFE0
000007FFF0
000000FFF8
0000003FF8
0000001FFC
00000007FE
00000003FE
00000003FE
00000001FE
00000001FE
00000001FF
00000000FF
00000000FF
00000000FF
00000001FE
00000001FE
00000001FE
00000003FE
00000003FE
00000007FC
E000000FFC
FC00003FF8
FFE003FFF0
FFFFFFFFE0
FFFFFFFFC0
FFFFFFFF80
FFFFFFFF00
7FFFFFFC00
0FFFFFE000
003FFC0000
ENDCHAR
STARTCHAR 0054
ENCODING 84
SWIDTH 551 0
DWIDTH 49 0
BBX 47 63 1 0
BITMAP
FFFFFFFFFFFE
FFFFFFFFFFFE
FFFFFFFFFFFE
FFFFFFFFFFFE
FFFFFFFFFFFE
FFFFFFFFFFFE
FFFFFFFFFFFE
00000FF00000
00000FF00000
00000FF00000
00000FF00000
00000FF00000
00000FF00000
00000FF00000
00000FF00000
00000FF00000
00000FF00000
00000FF00000
00000FF00000
00000FF00000
00000FF00000
00000FF00000
00000FF00000
00000FF00000
00000FF00000
00000FF00000
00000FF00000
00000FF00000
00000FF00000
00000FF00000
00000FF00000
00000FF00000
00000FF00000
00000FF00000
00000FF00000
00000FF00000
00000FF00000
00000FF00000
00000FF00000
00000FF00000
00000FF00000
00000FF00000
00000FF00000
00000FF00000
00000FF00000
00000FF00000
00000FF00000
00000FF00000
00000FF00000
00000FF00000
00000FF00000
00000FF00000
00000FF00000
00000FF00000
00000FF00000
00000FF00000
00000FF00000
00000FF00000
00000FF00000
00000FF00000
00000FF00000
00000FF00000
00000FF00000
ENDCHAR
STARTCHAR 0055
ENCODING 85
SWIDTH 720 0
DWIDTH 64 0
BBX 49 64 8 -1
BITMAP
FF000000007F80
FF000000007F80
FF000000007F80
FF000000007F80
FF000000007F80
FF000000007F80
FF000000007F80
FF000000007F80
FF000000007F80
FF000000007F80
FF000000007F80
FF000000007F80
FF000000007F80
FF000000007F80
FF000000007F80
FF000000007F80
FF000000007F80
FF000000007F80
FF000000007F80
FF000000007F80
FF000000007F80
FF000000007F80
FF000000007F80
FF000000007F80
FF000000007F80
FF000000007F80
FF000000007F80
FF000000007F80
FF000000007F80
FF000000007F80
FF000000007F80
FF000000007F80
FF000000007F80
FF000000007F80
FF000000007F80
FF000000007F80
FF000000007F80
FF000000007F80
FF000000007F80
FF000000007F80
FF000000007F80
FF000000007F80
FF000000007F80
FF000000007F80
FF000000007F80
FF00000000FF00
7F80000000FF00
7F80000000FF00
7F80000001FF00
7FC0000001FE00
3FC0000003FE00
3FE0000003FE00
1FF0000007FC00
1FF800000FFC00
0FFC00001FF800
0FFF00007FF000
07FFF003FFE000
03FFFFFFFFE000
01FFFFFFFF8000
00FFFFFFFF0000
003FFFFFFE0000
000FFFFFF80000
0003FFFFC00000
00001FFC000000
ENDCHAR
STARTCHAR 0056
ENCODING 86
SWIDTH 596 0
DWIDTH 53 0
BBX 53 63 0 0
BITMAP
FF8000000007F8
7F800000000FF8
7F800000000FF0
7FC00000001FF0
3FC00000001FF0
3FC00000001FE0
3FE00000003FE0
1FE00000003FE0
1FF00000003FC0
0FF00000007FC0
0FF00000007F80
0FF80000007F80
07F8000000FF80
07F8000000FF00
07FC000000FF00
03FC000001FF00
03FC000001FE00
03FE000001FE00
01FE000003FE00
01FE000003FC00
01FF000003FC00
00FF000007FC00
00FF000007F800
007F80000FF800
007F80000FF000
007F80000FF000
003FC0001FF000
003FC0001FE000
003FE0001FE000
001FE0003FE000
001FE0003FC000
001FF0003FC000
000FF0007FC000
000FF0007F8000
000FF8007F8000
0007F800FF8000
0007F800FF0000
0003FC00FF0000
0003FC01FE0000
0003FC01FE0000
0001FE03FE0000
0001FE03FC0000
0001FE03FC0000
0000FF07FC0000
0000FF07F80000
0000FF07F80000
00007F87F80000
00007F8FF00000
00007F8FF00000
00003FCFF00000
00003FDFE00000
00001FDFE00000
00001FDFC00000
00001FFFC00000
00000FFFC00000
00000FFF800000
00000FFF800000
000007FF800000
000007FF000000
000007FF000000
000003FF000000
000003FE000000
000003FE000000
ENDCHAR
STARTCHAR 0057
ENCODING 87
SWIDTH 922 0
DWIDTH 82 0
BBX 80 63 1 0
BITMAP
FF8000000FF0000000FF
7F8000001FF8000000FF
7F8000001FF8000001FF
7F8000001FF8000001FE
7FC000003FFC000001FE
3FC000003FFC000001FE
3FC000003FFC000003FE
3FC000003FFE000003FC
3FE000007FFE000003FC
1FE000007FFE000003FC
1FE000007FFE000007FC
1FE00000FF7F000007F8
0FF00000FE7F000007F8
0FF00000FE7F000007F8
0FF00001FE7F80000FF8
0FF00001FE3F80000FF0
07F80001FC3F80000FF0
07F80001FC3FC0000FF0
07F80003FC3FC0001FE0
07FC0003FC1FC0001FE0
03FC0003F81FC0001FE0
03FC0007F81FE0001FE0
03FC0007F81FE0003FC0
03FE0007F00FE0003FC0
01FE0007F00FF0003FC0
01FE000FF00FF0003FC0
01FE000FF007F0007F80
01FF000FE007F8007F80
00FF001FE007F8007F80
00FF001FE003F8007F80
00FF001FC003FC00FF00
007F801FC003FC00FF00
007F803FC003FC00FF00
007F803FC001FC00FE00
007F803F8001FE01FE00
003FC07F8001FE01FE00
003FC07F8000FE01FE00
003FC07F0000FF01FC00
003FC0FF0000FF03FC00
001FE0FF00007F03FC00
001FE0FF00007F03FC00
001FE0FE00007F83F800
001FE1FE00007F87F800
000FF1FE00003F87F800
000FF1FC00003FC7F800
000FF1FC00003FC7F000
0007F3FC00001FCFF000
0007F3F800001FCFF000
0007FBF800001FCFF000
0007FBF800000FEFE000
0003FBF800000FEFE000
0003FBF000000FEFE000
0003FFF000000FFFC000
0003FFF0000007FFC000
0001FFE0000007FFC000
0001FFE0000007FFC000
0001FFE0000003FF8000
0001FFE0000003FF8000
0000FFC0000003FF8000
0000FFC0000003FF8000
0000FFC0000001FF0000
0000FF80000001FF0000
00007F80000001FF0000
ENDCHAR
STARTCHAR 0058
ENCODING 88
SWIDTH 585 0
DWIDTH 52 0
BBX 50 63 1 0
BITMAP
7FC0000000FF80
3FE0000000FF00
1FE0000001FE00
1FF0000003FE00
0FF8000003FC00
07F8000007F800
07FC00000FF800
03FE00000FF000
03FE00001FE000
01FF00001FE000
00FF00003FC000
00FF80007F8000
007FC0007F8000
003FC000FF0000
003FE001FF0000
001FF001FE0000
000FF003FC0000
000FF807FC0000
0007F807F80000
0003FC0FF00000
0003FE0FF00000
0001FE1FE00000
0000FF3FC00000
0000FFBFC00000
00007FFF800000
00003FFF000000
00003FFF000000
00001FFE000000
00001FFC000000
00000FFC000000
00000FFC000000
00001FFE000000
00001FFE000000
00003FFF000000
00007FFF800000
00007FFF800000
0000FF7FC00000
0000FF3FE00000
0001FE1FE00000
0003FC1FF00000
0003FC0FF00000
0007F807F80000
000FF807FC0000
000FF003FC0000
001FE003FE0000
003FE001FF0000
003FC000FF0000
007F8000FF8000
007F80007FC000
00FF00007FC000
01FF00003FE000
01FE00001FE000
03FC00001FF000
07FC00000FF800
07F800000FF800
0FF0000007FC00
1FF0000003FE00
1FE0000003FE00
3FE0000001FF00
3FC0000000FF80
7F80000000FF80
FF800000007FC0
FF000000007FC0
ENDCHAR
STARTCHAR 0059
ENCODING 89
SWIDTH 562 0
DWIDTH 50 0
BBX 50 63 0 0
BITMAP
FF800000007FC0
7FC00000007F80
3FC0000000FF80
3FE0000000FF00
1FE0000001FF00
1FF0000001FE00
0FF0000003FE00
0FF8000007FC00
07F8000007F800
07FC00000FF800
03FE00000FF000
03FE00001FF000
01FF00001FE000
00FF00003FE000
00FF80003FC000
007F80007FC000
007FC0007F8000
003FC000FF8000
003FE000FF0000
001FE001FE0000
001FF001FE0000
000FF003FC0000
000FF803FC0000
0007F807F80000
0007FC0FF80000
0003FC0FF00000
0001FE1FF00000
0001FE1FE00000
0000FF3FE00000
0000FFBFC00000
00007FFF800000
00007FFF800000
00003FFF000000
00003FFF000000
00001FFE000000
00001FFE000000
00000FFC000000
00000FFC000000
000007F8000000
000007F8000000
000007F8000000
000007F8000000
000007F8000000
000007F8000000
000007F8000000
000007F8000000
000007F8000000
000007F8000000
000007F8000000
000007F8000000
000007F8000000
000007F8000000
000007F8000000
000007F8000000
000007F8000000
000007F8000000
000007F8000000
000007F8000000
000007F8000000
000007F8000000
000007F8000000
000007F8000000
000007F8000000
ENDCHAR
STARTCHAR 005A
ENCODING 90
SWIDTH 562 0
DWIDTH 50 0
BBX 44 63 3 0
BITMAP
7FFFFFFFFFE0
7FFFFFFFFFE0
7FFFFFFFFFE0
7FFFFFFFFFE0
7FFFFFFFFFE0
7FFFFFFFFFE0
7FFFFFFFFFE0
000000007FC0
000000007FC0
00000000FF80
00000001FF00
00000001FF00
00000003FE00
00000007FC00
00000007FC00
0000000FF800
0000001FF000
0000001FF000
0000003FE000
0000007FC000
0000007FC000
000000FF8000
000001FF0000
000001FF0000
000003FE0000
000007FC0000
000007FC0000
00000FF80000
00001FF00000
00001FF00000
00003FE00000
00007FC00000
00007FC00000
0000FF800000
0001FF000000
0001FF000000
0003FE000000
0007FC000000
0007FC000000
000FF8000000
001FF0000000
001FF0000000
003FE0000000
007FC0000000
007FC0000000
00FF80000000
01FF00000000
01FF00000000
03FE00000000
07FC00000000
07FC00000000
0FF800000000
1FF000000000
1FF000000000
3FE000000000
7FC000000000
7FFFFFFFFFF0
FFFFFFFFFFF0
FFFFFFFFFFF0
FFFFFFFFFFF0
FFFFFFFFFFF0
FFFFFFFFFFF0
FFFFFFFFFFF0
ENDCHAR
STARTCHAR 005B
ENCODING 91
SWIDTH 326 0
DWIDTH 29 0
BBX 20 77 7 -14
BITMAP
FFFFF0
FFFFF0
FFFFF0
FFFFF0
FFFFF0
FFFFF0
FF0000
FF0000
FF0000
FF0000
FF0000
FF0000
FF0000
FF0000
FF0000
FF0000
FF0000
FF0000
FF0000
FF0000
FF0000
FF0000
FF0000
FF0000
FF0000
FF0000
FF0000
FF0000
FF0000
FF0000
FF0000
FF0000
FF0000
FF0000
FF0000
FF0000
FF0000
FF0000
FF0000
FF0000
FF0000
FF0000
FF0000
FF0000
FF0000
FF0000
FF0000
FF0000
FF0000
FF0000
FF0000
FF0000
FF0000
FF0000
FF0000
FF0000
FF0000
FF0000
FF0000
FF0000
FF0000
FF0000
FF0000
FF0000
FF0000
FF0000
FF0000
FF0000
FF0000
FF0000
FF0000
FFFFF0
FFFFF0
FFFFF0
FFFFF0
FFFFF0
FFFFF0
ENDCHAR
STARTCHAR 005C
ENCODING 92
SWIDTH 371 0
DWIDTH 33 0
BBX 31 63 1 0
BITMAP
FF000000
7F000000
7F800000
7F800000
3F800000
3FC00000
3FC00000
1FE00000
1FE00000
0FE00000
0FF00000
0FF00000
07F00000
07F80000
07F80000
03F80000
03FC0000
01FC0000
01FE0000
01FE0000
00FE0000
00FF0000
00FF0000
007F0000
007F8000
003F8000
003FC000
003FC000
001FC000
001FE000
001FE000
000FE000
000FF000
0007F000
0007F800
0007F800
0003F800
0003FC00
0003FC00
0001FC00
0001FE00
0000FE00
0000FF00
0000FF00
00007F00
00007F80
00007F80
00003F80
00003FC0
00003FC0
00001FE0
00001FE0
00000FE0
00000FF0
00000FF0
000007F0
000007F8
000007F8
000003FC
000003FC
000001FC
000001FE
000001FE
ENDCHAR
STARTCHAR 005D
ENCODING 93
SWIDTH 326 0
DWIDTH 29 0
BBX 20 77 2 -14
BITMAP
FFFFF0
FFFFF0
FFFFF0
FFFFF0
FFFFF0
FFFFF0
000FF0
000FF0
000FF0
000FF0
000FF0
000FF0
000FF0
000FF0
000FF0
000FF0
000FF0
000FF0
000FF0
000FF0
000FF0
000FF0
000FF0
000FF0
000FF0
000FF0
000FF0
000FF0
000FF0
000FF0
000FF0
000FF0
000FF0
000FF0
000FF0
000FF0
000FF0
000FF0
000FF0
000FF0
000FF0
000FF0
000FF0
000FF0
000FF0
000FF0
000FF0
000FF0
000FF0
000FF0
000FF0
000FF0
000FF0
000FF0
000FF0
000FF0
000FF0
000FF0
000FF0
000FF0
000FF0
000FF0
000FF0
000FF0
000FF0
000FF0
000FF0
000FF0
000FF0
000FF0
000FF0
FFFFF0
FFFFF0
FFFFF0
FFFFF0
FFFFF0
FFFFF0
ENDCHAR
STARTCHAR 005E
ENCODING 94
SWIDTH 562 0
DWIDTH 50 0
BBX 43 40 4 24
BITMAP
00003E000000
00003E000000
00007F000000
00007F000000
0000FF800000
0000FF800000
0001FFC00000
0001FFC00000
0003F7E00000
0003F7F00000
0007F3F00000
0007E3F80000
000FE1F80000
000FC1FC0000
001FC0FC0000
001F80FE0000
001F807E0000
003F007F0000
003F003F0000
007F003F8000
007E001F8000
00FE001FC000
00FC000FC000
01FC000FE000
01F80007E000
03F80007F000
03F00003F000
07F00003F800
07F00001F800
0FE00001FC00
0FE00000FC00
1FC00000FE00
1FC000007E00
1F8000007F00
3F8000003F00
3F0000003F80
7F0000001FC0
7F0000001FC0
FE0000000FE0
FE0000000FE0
ENDCHAR
STARTCHAR 005F
ENCODING 95
SWIDTH 438 0
DWIDTH 39 0
BBX 40 6 0 -14
BITMAP
FFFFFFFFFF
FFFFFFFFFF
FFFFFFFFFF
FFFFFFFFFF
FFFFFFFFFF
FFFFFFFFFF
ENDCHAR
STARTCHAR 0060
ENCODING 96
SWIDTH 270 0
DWIDTH 24 0
BBX 17 14 4 54
BITMAP
FF8000
FFC000
7FC000
3FE000
3FE000
1FF000
0FF800
07F800
03FC00
01FE00
00FE00
007F00
003F80
001F80
ENDCHAR
STARTCHAR 0061
ENCODING 97
SWIDTH 551 0
DWIDTH 49 0
BBX 39 49 4 -1
BITMAP
0003FFF800
003FFFFF00
00FFFFFF80
03FFFFFFE0
03FFFFFFF0
03FFFFFFF0
03FF007FF8
01F8000FF8
01C00007FC
00000003FC
00000003FC
00000003FC
00000001FE
00000001FE
00000001FE
00000001FE
00000001FE
00000001FE
00000001FE
0000007FFE
0003FFFFFE
003FFFFFFE
00FFFFFFFE
03FFFFFFFE
07FFFFFFFE
0FFFC001FE
1FFC0001FE
3FF00001FE
7FE00001FE
7FC00001FE
7F800001FE
FF800001FE
FF000001FE
FF000003FE
FF000003FE
FF000003FE
FF000007FE
FF000007FE
FF80000FFE
7F80001FFE
7FC0007FFE
7FF001FEFE
3FFF3FFCFE
3FFFFFF8FE
1FFFFFF0FE
0FFFFFE0FE
03FFFF807E
00FFFF007E
001FF00000
ENDCHAR
STARTCHAR 0062
ENCODING 98
SWIDTH 607 0
DWIDTH 54 0
BBX 42 69 8 -1
BITMAP
FE0000000000
FE0000000000
FE0000000000
FE0000000000
FE0000000000
FE0000000000
FE0000000000
FE0000000000
FE0000000000
FE0000000000
FE0000000000
FE0000000000
FE0000000000
FE0000000000
FE0000000000
FE0000000000
FE0000000000
FE0000000000
FE0000000000
FE0000000000
FE01FFF80000
FE07FFFE0000
FE0FFFFF8000
FE3FFFFFC000
FE7FFFFFE000
FEFFFFFFF000
FFFF00FFF800
FFFC001FFC00
FFF00007FC00
FFE00003FE00
FFC00003FE00
FFC00001FF00
FF800000FF00
FF800000FF00
FF000000FF80
FF0000007F80
FF0000007F80
FF0000007F80
FF0000007F80
FF0000007FC0
FE0000003FC0
FE0000003FC0
FE0000003FC0
FE0000003FC0
FE0000003FC0
FE0000003FC0
FE0000003FC0
FE0000003FC0
FF0000007FC0
FF0000007F80
FF0000007F80
FF0000007F80
FF0000007F80
FF000000FF80
FF800000FF80
FF800000FF00
FFC00001FF00
FFC00001FE00
FFE00003FE00
FFF00007FE00
FFF8000FFC00
FFFE003FF800
FEFFFFFFF800
FC7FFFFFF000
FC3FFFFFE000
FC1FFFFF8000
FC0FFFFF0000
F803FFFC0000
00007FC00000
ENDCHAR
STARTCHAR 0063
ENCODING 99
SWIDTH 472 0
DWIDTH 42 0
BBX 35 50 5 -1
BITMAP
0000030000
0001FFFC00
000FFFFF80
003FFFFFE0
00FFFFFFC0
01FFFFFFC0
03FFFFFF80
07FFF0FF80
0FFF000780
0FFC000000
1FF8000000
1FF0000000
3FE0000000
3FC0000000
7FC0000000
7F80000000
7F80000000
7F80000000
FF80000000
FF00000000
FF00000000
FF00000000
FF00000000
FF00000000
FF00000000
FF00000000
FF00000000
FF00000000
FF00000000
FF00000000
FF00000000
FF00000000
FF80000000
7F80000000
7F80000000
7FC0000000
7FC0000000
3FE0000000
3FE0000000
1FF0000000
1FF8000000
0FFE0001C0
07FF800FC0
03FFFFFFC0
03FFFFFFC0
00FFFFFFC0
007FFFFFC0
001FFFFFC0
0007FFFE00
00007FE000
ENDCHAR
STARTCHAR 0064
ENCODING 100
SWIDTH 607 0
DWIDTH 54 0
BBX 42 69 5 -1
BITMAP
000000003FC0
000000003FC0
000000003FC0
000000003FC0
000000003FC0
000000003FC0
000000003FC0
000000003FC0
000000003FC0
000000003FC0
000000003FC0
000000003FC0
000000003FC0
000000003FC0
000000003FC0
000000003FC0
000000003FC0
000000003FC0
000000003FC0
000030003FC0
0007FFC03FC0
001FFFF83FC0
007FFFFC3FC0
00FFFFFE1FC0
03FFFFFF9FC0
07FFFFFF9FC0
07FF807FFFC0
0FFE000FFFC0
1FF80007FFC0
1FF00001FFC0
3FE00001FFC0
3FE00000FFC0
3FC00000FFC0
7FC000007FC0
7F8000007FC0
7F8000007FC0
7F8000003FC0
FF8000003FC0
FF0000003FC0
FF0000003FC0
FF0000003FC0
FF0000003FC0
FF0000003FC0
FF0000003FC0
FF0000003FC0
FF0000003FC0
FF0000003FC0
FF0000003FC0
FF0000003FC0
FF0000003FC0
FF0000003FC0
FF8000003FC0
7F8000003FC0
7F8000007FC0
7FC000007FC0
7FC000007FC0
3FC00000FFC0
3FE00000FFC0
3FF00001FFC0
1FF80003FFC0
0FFC0007FFC0
0FFF001FFFC0
07FFFFFFDFC0
03FFFFFF9FC0
01FFFFFF1FC0
00FFFFFE1FC0
003FFFF80FC0
000FFFE00FC0
0001FF000000
ENDCHAR
STARTCHAR 0065
ENCODING 101
SWIDTH 562 0
DWIDTH 50 0
BBX 41 50 5 -1
BITMAP
00000C000000
0003FFF00000
000FFFFC0000
003FFFFF0000
00FFFFFF8000
01FFFFFFE000
03FFFFFFF000
07FF807FF000
07FC001FF800
0FF80007FC00
1FF00007FC00
1FE00003FE00
3FE00001FE00
3FC00001FE00
3FC00001FF00
7F800000FF00
7F800000FF00
7F800000FF00
FF000000FF00
FF000000FF00
FFFFFFFFFF80
FFFFFFFFFF80
FFFFFFFFFF80
FFFFFFFFFF80
FFFFFFFFFF80
FFFFFFFFFF80
FFFFFFFFFF80
FF0000000000
FF0000000000
FF0000000000
FF0000000000
FF0000000000
7F8000000000
7F8000000000
7F8000000000
7FC000000000
3FC000000000
3FE000000000
1FF000000000
1FF800000000
0FFC00000400
0FFE00003C00
07FFC001FC00
03FFFFFFFC00
01FFFFFFFC00
00FFFFFFFC00
003FFFFFFC00
000FFFFFF800
0003FFFFC000
00003FF80000
ENDCHAR
STARTCHAR 0066
ENCODING 102
SWIDTH 337 0
DWIDTH 30 0
BBX 33 68 1 0
BITMAP
00001FF800
0000FFFF80
0001FFFF80
0007FFFF80
000FFFFF00
000FFFFF00
001FFE7F00
003FF00000
003FE00000
003FC00000
007FC00000
007F800000
007F800000
007F800000
007F800000
007F800000
007F800000
007F800000
007F800000
007F800000
01FFFFF800
0FFFFFF800
7FFFFFF800
FFFFFFF800
FFFFFFF800
FFFFFFF800
007F800000
007F800000
007F800000
007F800000
007F800000
007F800000
007F800000
007F800000
007F800000
007F800000
007F800000
007F800000
007F800000
007F800000
007F800000
007F800000
007F800000
007F800000
007F800000
007F800000
007F800000
007F800000
007F800000
007F800000
007F800000
007F800000
007F800000
007F800000
007F800000
007F800000
007F800000
007F800000
007F800000
007F800000
007F800000
007F800000
007F800000
007F800000
007F800000
007F800000
007F800000
007F800000
ENDCHAR
STARTCHAR 0067
ENCODING 103
SWIDTH 607 0
DWIDTH 54 0
BBX 42 70 5 -21
BITMAP
000038000000
0007FFC00FC0
001FFFF00FC0
007FFFFC0FC0
00FFFFFE1FC0
01FFFFFF9FC0
03FFFFFF9FC0
07FF807FDFC0
0FFE000FFFC0
0FF80007FFC0
1FF00003FFC0
3FF00001FFC0
3FE00000FFC0
3FC00000FFC0
7FC000007FC0
7F8000007FC0
7F8000003FC0
7F8000003FC0
FF8000003FC0
FF0000003FC0
FF0000003FC0
FF0000003FC0
FF0000003FC0
FF0000003FC0
FF0000003FC0
FF0000003FC0
FF0000003FC0
FF0000003FC0
FF0000003FC0
FF0000003FC0
FF0000003FC0
FF0000003FC0
FF8000003FC0
7F8000003FC0
7F8000003FC0
7FC000007FC0
7FC000007FC0
3FC000007FC0
3FE00000FFC0
1FF00001FFC0
1FF80003FFC0
0FFC0007FFC0
0FFF001FFFC0
07FFFFFFDFC0
03FFFFFFBFC0
01FFFFFF3FC0
00FFFFFE3FC0
003FFFF83FC0
000FFFE03FC0
0001FF003FC0
000000003FC0
000000003FC0
000000003FC0
000000003FC0
000000003FC0
000000003FC0
000000007F80
000000007F80
00000000FF80
00000000FF80
00000001FF00
0E000007FF00
0FC0000FFE00
0FFE007FFC00
0FFFFFFFFC00
0FFFFFFFF800
0FFFFFFFE000
0FFFFFFFC000
01FFFFFF0000
001FFFF80000
ENDCHAR
STARTCHAR 0068
ENCODING 104
SWIDTH 607 0
DWIDTH 54 0
BBX 40 68 8 0
BITMAP
FE00000000
FE00000000
FE00000000
FE00000000
FE00000000
FE00000000
FE00000000
FE00000000
FE00000000
FE00000000
FE00000000
FE00000000
FE00000000
FE00000000
FE00000000
FE00000000
FE00000000
FE00000000
FE00000000
FE00000000
FE00FFFC00
FE03FFFF00
FE0FFFFFC0
FE3FFFFFE0
FE7FFFFFF0
FEFFFFFFF8
FEFF807FFC
FFFC000FFC
FFF00007FC
FFE00003FE
FFC00003FE
FFC00001FE
FF800001FE
FF800000FF
FF800000FF
FF000000FF
FF000000FF
FF000000FF
FF000000FF
FF000000FF
FE000000FF
FE000000FF
FE000000FF
FE000000FF
FE000000FF
FE000000FF
FE000000FF
FE000000FF
FE000000FF
FE000000FF
FE000000FF
FE000000FF
FE000000FF
FE000000FF
FE000000FF
FE000000FF
FE000000FF
FE000000FF
FE000000FF
FE000000FF
FE000000FF
FE000000FF
FE000000FF
FE000000FF
FE000000FF
FE000000FF
FE000000FF
FE000000FF
ENDCHAR
STARTCHAR 0069
ENCODING 105
SWIDTH 247 0
DWIDTH 22 0
BBX 9 66 7 0
BITMAP
0800
7E00
7F00
FF80
FF80
FF80
FF80
FF80
7F00
3E00
0000
0000
0000
0000
0000
0000
0000
0000
7F00
7F00
7F00
7F00
7F00
7F00
7F00
7F00
7F00
7F00
7F00
7F00
7F00
7F00
7F00
7F00
7F00
7F00
7F00
7F00
7F00
7F00
7F00
7F00
7F00
7F00
7F00
7F00
7F00
7F00
7F00
7F00
7F00
7F00
7F00
7F00
7F00
7F00
7F00
7F00
7F00
7F00
7F00
7F00
7F00
7F00
7F00
7F00
ENDCHAR
STARTCHAR 006A
ENCODING 106
SWIDTH 247 0
DWIDTH 22 0
BBX 21 87 -5 -21
BITMAP
000080
0007E0
0007F0
000FF8
000FF8
000FF8
000FF8
000FF8
0007F0
0003E0
000000
000000
000000
000000
000000
000000
000000
000000
0007F0
0007F0
0007F0
0007F0
0007F0
0007F0
0007F0
0007F0
0007F0
0007F0
0007F0
0007F0
0007F0
0007F0
0007F0
0007F0
0007F0
0007F0
0007F0
0007F0
0007F0
0007F0
0007F0
0007F0
0007F0
0007F0
0007F0
0007F0
0007F0
0007F0
0007F0
0007F0
0007F0
0007F0
0007F0
0007F0
0007F0
0007F0
0007F0
0007F0
0007F0
0007F0
0007F0
0007F0
0007F0
0007F0
0007F0
0007F0
0007F0
0007F0
0007F0
0007F0
0007F0
0007F0
0007F0
0007F0
0007F0
000FF0
000FF0
000FF0
001FF0
003FE0
C0FFE0
FFFFE0
FFFFC0
FFFF80
FFFF00
FFFE00
7FF800
ENDCHAR
STARTCHAR 006B
ENCODING 107
SWIDTH 528 0
DWIDTH 47 0
BBX 38 68 8 0
BITMAP
FE00000000
FE00000000
FE00000000
FE00000000
FE00000000
FE00000000
FE00000000
FE00000000
FE00000000
FE00000000
FE00000000
FE00000000
FE00000000
FE00000000
FE00000000
FE00000000
FE00000000
FE00000000
FE00000000
FE00000000
FE00000FF8
FE00001FF0
FE00003FE0
FE00007FC0
FE0000FF80
FE0001FF00
FE0003FF00
FE0007FE00
FE000FFC00
FE000FF800
FE001FF000
FE003FE000
FE007FC000
FE00FF8000
FE01FF0000
FE03FE0000
FE07FC0000
FE0FF80000
FE1FF00000
FE3FE00000
FE3FC00000
FE7FE00000
FEFFE00000
FFFFF00000
FFFFF80000
FFFFFC0000
FFF7FC0000
FFE3FE0000
FFC1FF0000
FF01FF8000
FE00FF8000
FE007FC000
FE003FE000
FE003FF000
FE001FF000
FE000FF800
FE0007FC00
FE0007FE00
FE0003FF00
FE0001FF00
FE0000FF80
FE0000FFC0
FE00007FE0
FE00003FE0
FE00001FF0
FE00001FF8
FE00000FFC
FE000007FC
ENDCHAR
STARTCHAR 006C
ENCODING 108
SWIDTH 247 0
DWIDTH 22 0
BBX 7 68 8 0
BITMAP
FE
FE
FE
FE
FE
FE
FE
FE
FE
FE
FE
FE
FE
FE
FE
FE
FE
FE
FE
FE
FE
FE
FE
FE
FE
FE
FE
FE
FE
FE
FE
FE
FE
FE
FE
FE
FE
FE
FE
FE
FE
FE
FE
FE
FE
FE
FE
FE
FE
FE
FE
FE
FE
FE
FE
FE
FE
FE
FE
FE
FE
FE
FE
FE
FE
FE
FE
FE
ENDCHAR
STARTCHAR 006D
ENCODING 109
SWIDTH 933 0
DWIDTH 83 0
BBX 68 49 8 0
BITMAP
00000C000000100000
FC01FFF80007FFE000
FC07FFFE001FFFF800
FC1FFFFF007FFFFE00
FC3FFFFF80FFFFFF00
FE7FFFFFC1FFFFFF80
FEFFFFFFE3FFFFFF80
FEFF00FFF7FC03FFC0
FFF8003FFFF000FFC0
FFF0001FFFC0007FE0
FFE0000FFF80003FE0
FFC0000FFF00001FE0
FFC00007FF00001FE0
FF800007FE00000FF0
FF800003FE00000FF0
FF000003FC00000FF0
FF000003FC00000FF0
FF000003FC00000FF0
FF000003FC00000FF0
FF000003FC00000FF0
FF000003FC00000FF0
FE000003FC00000FF0
FE000003FC00000FF0
FE000003FC00000FF0
FE000003FC00000FF0
FE000003FC00000FF0
FE000003FC00000FF0
FE000003FC00000FF0
FE000003FC00000FF0
FE000003FC00000FF0
FE000003FC00000FF0
FE000003FC00000FF0
FE000003FC00000FF0
FE000003FC00000FF0
FE000003FC00000FF0
FE000003FC00000FF0
FE000003FC00000FF0
FE000003FC00000FF0
FE000003FC00000FF0
FE000003FC00000FF0
FE000003FC00000FF0
FE000003FC00000FF0
FE000003FC00000FF0
FE000003FC00000FF0
FE000003FC00000FF0
FE000003FC00000FF0
FE000003FC00000FF0
FE000003FC00000FF0
FE000003FC00000FF0
ENDCHAR
STARTCHAR 006E
ENCODING 110
SWIDTH 607 0
DWIDTH 54 0
BBX 40 49 8 0
BITMAP
0000070000
FC00FFFC00
FC07FFFF00
FC0FFFFFC0
FC3FFFFFE0
FE7FFFFFF0
FEFFFFFFF8
FEFF807FFC
FFFC000FFC
FFF00007FC
FFE00003FE
FFC00003FE
FFC00001FE
FF800001FE
FF800000FF
FF800000FF
FF000000FF
FF000000FF
FF000000FF
FF000000FF
FF000000FF
FE000000FF
FE000000FF
FE000000FF
FE000000FF
FE000000FF
FE000000FF
FE000000FF
FE000000FF
FE000000FF
FE000000FF
FE000000FF
FE000000FF
FE000000FF
FE000000FF
FE000000FF
FE000000FF
FE000000FF
FE000000FF
FE000000FF
FE000000FF
FE000000FF
FE000000FF
FE000000FF
FE000000FF
FE000000FF
FE000000FF
FE000000FF
FE000000FF
ENDCHAR
STARTCHAR 006F
ENCODING 111
SWIDTH 596 0
DWIDTH 53 0
BBX 44 50 5 -1
BITMAP
000003000000
0001FFF80000
000FFFFF0000
003FFFFFC000
00FFFFFFE000
01FFFFFFF000
03FFFFFFF800
07FFC03FFC00
0FFE0007FE00
0FFC0003FF00
1FF00001FF00
1FF00000FF80
3FE000007FC0
3FC000007FC0
7FC000003FC0
7F8000003FE0
7F8000001FE0
7F8000001FE0
FF8000001FE0
FF0000001FF0
FF0000000FF0
FF0000000FF0
FF0000000FF0
FF0000000FF0
FF0000000FF0
FF0000000FF0
FF0000000FF0
FF0000000FF0
FF0000000FF0
FF0000000FF0
FF0000001FF0
FF8000001FE0
7F8000001FE0
7F8000001FE0
7F8000003FE0
7FC000003FE0
3FC000003FC0
3FE000007FC0
1FE00000FF80
1FF00000FF80
0FF80001FF00
0FFC0007FF00
07FF001FFE00
03FFFFFFFC00
01FFFFFFF800
00FFFFFFF000
003FFFFFC000
001FFFFF8000
0003FFFC0000
00007FC00000
ENDCHAR
STARTCHAR 0070
ENCODING 112
SWIDTH 607 0
DWIDTH 54 0
BBX 42 70 8 -21
BITMAP
000002000000
FC01FFF80000
FC07FFFE0000
FC0FFFFF8000
FC3FFFFFC000
FE7FFFFFE000
FEFFFFFFF000
FEFF00FFF800
FFFC001FFC00
FFF0000FFC00
FFE00007FE00
FFC00003FE00
FFC00001FF00
FF800001FF00
FF800000FF00
FF800000FF80
FF0000007F80
FF0000007F80
FF0000007F80
FF0000007F80
FF0000007FC0
FE0000003FC0
FE0000003FC0
FE0000003FC0
FE0000003FC0
FE0000003FC0
FE0000003FC0
FE0000003FC0
FE0000007FC0
FF0000007FC0
FF0000007F80
FF0000007F80
FF0000007F80
FF0000007F80
FF000000FF80
FF800000FF00
FF800001FF00
FFC00001FF00
FFC00003FE00
FFE00003FE00
FFF00007FC00
FFF8001FFC00
FFFE003FF800
FEFFFFFFF000
FE7FFFFFF000
FE3FFFFFC000
FE1FFFFF8000
FE0FFFFF0000
FE03FFFC0000
FE003FC00000
FE0000000000
FE0000000000
FE0000000000
FE0000000000
FE0000000000
FE0000000000
FE0000000000
FE0000000000
FE0000000000
FE0000000000
FE0000000000
FE0000000000
FE0000000000
FE0000000000
FE0000000000
FE0000000000
FE0000000000
FE0000000000
FE0000000000
FE0000000000
ENDCHAR
STARTCHAR 0071
ENCODING 113
SWIDTH 607 0
DWIDTH 54 0
BBX 42 70 5 -21
BITMAP
000030000000
0007FFC00FC0
001FFFF80FC0
007FFFFC1FC0
00FFFFFE1FC0
01FFFFFF1FC0
03FFFFFF9FC0
07FF807FDFC0
0FFC000FFFC0
1FF80007FFC0
1FF00003FFC0
3FE00001FFC0
3FE00000FFC0
3FC00000FFC0
7FC000007FC0
7F8000007FC0
7F8000007FC0
7F8000003FC0
FF8000003FC0
FF0000003FC0
FF0000003FC0
FF0000003FC0
FF0000003FC0
FF0000003FC0
FF0000003FC0
FF0000003FC0
FF0000003FC0
FF0000003FC0
FF0000003FC0
FF0000003FC0
FF0000003FC0
FF0000003FC0
FF8000003FC0
7F8000003FC0
7F8000007FC0
7FC000007FC0
7FC000007FC0
3FC00000FFC0
3FE00000FFC0
1FF00001FFC0
1FF80003FFC0
0FFC0007FFC0
0FFF001FFFC0
07FFFFFFDFC0
03FFFFFFBFC0
01FFFFFF3FC0
00FFFFFC3FC0
003FFFF83FC0
000FFFE03FC0
0001FF003FC0
000000003FC0
000000003FC0
000000003FC0
000000003FC0
000000003FC0
000000003FC0
000000003FC0
000000003FC0
000000003FC0
000000003FC0
000000003FC0
000000003FC0
000000003FC0
000000003FC0
000000003FC0
000000003FC0
000000003FC0
000000003FC0
000000003FC0
000000003FC0
ENDCHAR
STARTCHAR 0072
ENCODING 114
SWIDTH 405 0
DWIDTH 36 0
BBX 27 49 8 0
BITMAP
00000400
FC00FFE0
FC03FFE0
FC07FFE0
FC0FFFE0
FC1FFFE0
FC3FFFE0
FE7FFFE0
FEFF8000
FEFE0000
FFF80000
FFF00000
FFE00000
FFC00000
FFC00000
FF800000
FF800000
FF000000
FF000000
FF000000
FF000000
FE000000
FE000000
FE000000
FE000000
FE000000
FE000000
FE000000
FE000000
FE000000
FE000000
FE000000
FE000000
FE000000
FE000000
FE000000
FE000000
FE000000
FE000000
FE000000
FE000000
FE000000
FE000000
FE000000
FE000000
FE000000
FE000000
FE000000
FE000000
ENDCHAR
STARTCHAR 0073
ENCODING 115
SWIDTH 472 0
DWIDTH 42 0
BBX 34 50 5 -1
BITMAP
0000400000
007FFFC000
01FFFFFC00
07FFFFFF00
1FFFFFFF00
3FFFFFFF00
3FFFFFFE00
7FF003FE00
FF80003E00
FF00000400
FE00000000
FE00000000
FE00000000
FE00000000
FE00000000
FF00000000
FF80000000
FFC0000000
7FF0000000
7FFC000000
3FFF000000
1FFFE00000
0FFFF80000
03FFFF0000
00FFFFC000
003FFFF000
000FFFF800
0001FFFC00
00007FFE00
00001FFF00
000007FF00
000001FF80
000000FF80
0000007F80
0000003FC0
0000003FC0
0000003FC0
0000003FC0
0000003F80
0000007F80
8000007F80
F00000FF80
FE0003FF00
FFFCFFFE00
FFFFFFFE00
FFFFFFFC00
FFFFFFF000
7FFFFFE000
0FFFFF0000
00FFF00000
ENDCHAR
STARTCHAR 0074
ENCODING 116
SWIDTH 360 0
DWIDTH 32 0
BBX 29 60 1 -1
BITMAP
003E0000
003E0000
003E0000
007E0000
007E0000
007E0000
00FE0000
00FE0000
00FE0000
00FE0000
01FE0000
07FFFFF8
1FFFFFF8
7FFFFFF8
FFFFFFF8
FFFFFFF8
FFFFFFF8
01FE0000
01FE0000
01FE0000
01FE0000
01FE0000
01FE0000
01FE0000
01FE0000
01FE0000
01FE0000
01FE0000
01FE0000
01FE0000
01FE0000
01FE0000
01FE0000
01FE0000
01FE0000
01FE0000
01FE0000
01FE0000
01FE0000
01FE0000
01FE0000
01FE0000
01FE0000
01FE0000
01FE0000
01FE0000
01FE0000
01FE0000
01FE0000
01FF0000
00FF0000
00FF8000
00FFE000
007FFFF8
007FFFF8
003FFFF8
001FFFF8
000FFFF8
0003FFF8
00007FC0
ENDCHAR
STARTCHAR 0075
ENCODING 117
SWIDTH 607 0
DWIDTH 54 0
BBX 40 49 7 -1
BITMAP
FF0000007F
FF0000007F
FF0000007F
FF0000007F
FF0000007F
FF0000007F
FF0000007F
FF0000007F
FF0000007F
FF0000007F
FF0000007F
FF0000007F
FF0000007F
FF0000007F
FF0000007F
FF0000007F
FF0000007F
FF0000007F
FF0000007F
FF0000007F
FF0000007F
FF0000007F
FF0000007F
FF0000007F
FF0000007F
FF0000007F
FF0000007F
FF000000FF
FF000000FF
FF000000FF
FF000000FF
FF000000FF
FF000000FF
FF000000FF
FF000001FF
FF000001FF
FF800003FF
7F800003FF
7FC00007FF
7FE0000FFF
7FF0001FFF
3FF8007FFF
1FFFFFFF7F
1FFFFFFE7F
0FFFFFFC7F
07FFFFF83F
01FFFFE03F
007FFF803F
0007F80000
ENDCHAR
STARTCHAR 0076
ENCODING 118
SWIDTH 506 0
DWIDTH 45 0
BBX 45 48 0 0
BITMAP
FF00000007F8
FF8000000FF8
7F8000000FF0
7F8000000FF0
3FC000001FF0
3FC000001FE0
3FE000001FE0
1FE000003FC0
1FE000003FC0
1FF000007FC0
0FF000007F80
0FF000007F80
07F80000FF80
07F80000FF00
07F80000FF00
03FC0001FE00
03FC0001FE00
03FE0001FE00
01FE0003FC00
01FE0003FC00
00FF0003FC00
00FF0007F800
00FF0007F800
007F800FF000
007F800FF000
003F800FF000
003FC01FE000
003FC01FE000
001FE01FC000
001FE03FC000
001FE03FC000
000FF03F8000
000FF07F8000
0007F07F8000
0007F87F0000
0007F8FF0000
0003F8FE0000
0003F8FE0000
0003FDFE0000
0001FDFC0000
0001FDFC0000
0000FFFC0000
0000FFF80000
0000FFF80000
00007FF00000
00007FF00000
00007FF00000
00003FE00000
ENDCHAR
STARTCHAR 0077
ENCODING 119
SWIDTH 776 0
DWIDTH 69 0
BBX 68 48 1 0
BITMAP
FF000003FC00000FF0
FF000007FE00000FF0
7F800007FE00001FE0
7F800007FE00001FE0
7F80000FFF00001FE0
7F80000FFF00003FC0
3FC0000FFF00003FC0
3FC0001FFF80003FC0
3FC0001FFF80003FC0
1FC0001FBF80007F80
1FE0001FBF80007F80
1FE0003F9FC0007F80
1FE0003F9FC0007F80
0FE0003F9FC000FF00
0FF0007F1FE000FF00
0FF0007F0FE000FF00
0FF0007F0FE000FE00
07F800FF0FF001FE00
07F800FE07F001FE00
07F800FE07F001FE00
03F801FE07F001FC00
03FC01FC07F803FC00
03FC01FC03F803FC00
03FC03FC03F803F800
01FC03F803FC03F800
01FE03F801FC07F800
01FE07F801FC07F800
01FE07F001FE07F000
00FE07F000FE0FF000
00FF07F000FE0FF000
00FF0FF000FF0FF000
007F0FE000FF0FE000
007F0FE0007F1FE000
007F8FE0007F1FE000
007F9FC0007F9FC000
003F9FC0003F9FC000
003F9FC0003F9FC000
003F9F80003FBFC000
003FFF80001FBF8000
001FFF80001FFF8000
001FFF00001FFF8000
001FFF00000FFF0000
000FFF00000FFF0000
000FFE00000FFF0000
000FFE00000FFF0000
000FFE000007FE0000
0007FC000007FE0000
0007FC000007FE0000
ENDCHAR
STARTCHAR 0078
ENCODING 120
SWIDTH 528 0
DWIDTH 47 0
BBX 43 48 2 0
BITMAP
FF8000003FC0
7FC000007FC0
3FE00000FF80
1FE00000FF00
1FF00001FF00
0FF80003FE00
07FC0003FC00
07FC0007FC00
03FE000FF800
01FF000FF000
00FF001FE000
00FF803FE000
007FC07FC000
003FC07F8000
003FE0FF8000
001FF1FF0000
000FF1FE0000
000FFBFC0000
0007FFFC0000
0003FFF80000
0001FFF00000
0001FFF00000
0000FFE00000
00007FC00000
0000FFE00000
0000FFE00000
0001FFF00000
0003FFF80000
0007FFFC0000
0007FBFC0000
000FF9FE0000
001FF1FF0000
001FE0FF0000
003FC07F8000
007FC07FC000
00FF803FE000
00FF001FE000
01FF001FF000
03FE000FF800
03FC0007F800
07FC0007FC00
0FF80003FE00
1FF00001FF00
1FF00001FF00
3FE00000FF80
7FC000007FC0
7F8000007FC0
FF8000003FE0
ENDCHAR
STARTCHAR 0079
ENCODING 121
SWIDTH 506 0
DWIDTH 45 0
BBX 45 69 0 -21
BITMAP
FF00000007F8
7F8000000FF8
7F8000000FF8
7FC000000FF0
3FC000001FF0
3FC000001FE0
1FE000001FE0
1FE000003FE0
1FF000003FC0
0FF000003FC0
0FF000007FC0
07F800007F80
07F800007F80
07F80000FF00
03FC0000FF00
03FC0001FF00
01FE0001FE00
01FE0001FE00
01FE0003FC00
00FF0003FC00
00FF0003FC00
007F0007F800
007F8007F800
007F8007F800
003FC00FF000
003FC00FF000
001FC00FE000
001FE01FE000
001FE01FE000
000FE03FC000
000FF03FC000
0007F03FC000
0007F87F8000
0007F87F8000
0003F87F0000
0003FCFF0000
0001FCFF0000
0001FCFE0000
0001FCFE0000
0000FFFE0000
0000FFFC0000
00007FFC0000
00007FF80000
00007FF80000
00003FF80000
00003FF00000
00001FF00000
00001FE00000
00001FE00000
00001FE00000
00003FC00000
00003FC00000
00003FC00000
00007F800000
00007F800000
0000FF000000
0000FF000000
0001FF000000
0001FE000000
0003FE000000
0007FC000000
000FF8000000
407FF8000000
7FFFF0000000
7FFFE0000000
7FFFC0000000
7FFF80000000
7FFF00000000
7FF800000000
ENDCHAR
STARTCHAR 007A
ENCODING 122
SWIDTH 461 0
DWIDTH 41 0
BBX 35 48 3 0
BITMAP
3FFFFFFFE0
3FFFFFFFE0
3FFFFFFFE0
3FFFFFFFE0
3FFFFFFFE0
3FFFFFFFE0
0000003FC0
0000007FC0
0000007F80
000000FF00
000001FF00
000003FE00
000003FC00
000007FC00
00000FF800
00000FF000
00001FE000
00003FE000
00003FC000
00007F8000
0000FF8000
0001FF0000
0001FE0000
0003FC0000
0007FC0000
0007F80000
000FF00000
001FF00000
001FE00000
003FC00000
007FC00000
00FF800000
00FF000000
01FE000000
03FE000000
03FC000000
07F8000000
0FF8000000
1FF0000000
1FE0000000
3FC0000000
7FC0000000
7FFFFFFFE0
FFFFFFFFE0
FFFFFFFFE0
FFFFFFFFE0
FFFFFFFFE0
FFFFFFFFE0
ENDCHAR
STARTCHAR 007B
ENCODING 123
SWIDTH 371 0
DWIDTH 33 0
BBX 29 77 2 -14
BITMAP
000003F8
00001FF8
00007FF8
0000FFF8
0003FFF8
0003FFF8
0007FF80
000FFC00
000FF800
000FF000
000FF000
001FE000
001FE000
001FE000
001FE000
001FE000
001FE000
001FE000
001FE000
001FE000
001FE000
001FE000
001FE000
001FE000
001FE000
001FE000
001FE000
001FE000
001FE000
001FE000
001FE000
003FC000
007FC000
00FF8000
07FF8000
FFFE0000
FFFC0000
FFE00000
FFC00000
FFF80000
FFFE0000
FFFF0000
01FF8000
007FC000
003FC000
003FE000
001FE000
001FE000
001FE000
001FE000
001FE000
001FE000
001FE000
001FE000
001FE000
001FE000
001FE000
001FE000
001FE000
001FE000
001FE000
001FE000
001FE000
001FE000
001FE000
001FE000
000FF000
000FF000
000FF800
0007FE00
0007FFE0
0003FFF8
0001FFF8
0000FFF8
00003FF8
00000FF8
000001F8
ENDCHAR
STARTCHAR 007C
ENCODING 124
SWIDTH 540 0
DWIDTH 48 0
BBX 7 89 21 -21
BITMAP
FE
FE
FE
FE
FE
FE
FE
FE
FE
FE
FE
FE
FE
FE
FE
FE
FE
FE
FE
FE
FE
FE
FE
FE
FE
FE
FE
FE
FE
FE
FE
FE
FE
FE
FE
FE
FE
FE
FE
FE
FE
FE
FE
FE
FE
FE
FE
FE
FE
FE
FE
FE
FE
FE
FE
FE
FE
FE
FE
FE
FE
FE
FE
FE
FE
FE
FE
FE
FE
FE
FE
FE
FE
FE
FE
FE
FE
FE
FE
FE
FE
FE
FE
FE
FE
FE
FE
FE
FE
ENDCHAR
STARTCHAR 007D
ENCODING 125
SWIDTH 371 0
DWIDTH 33 0
BBX 28 77 3 -14
BITMAP
FE000000
FFC00000
FFF00000
FFF80000
FFFC0000
FFFE0000
0FFF0000
03FF0000
00FF8000
007F8000
007F8000
007F8000
003F8000
003F8000
003F8000
003F8000
003F8000
003F8000
003F8000
003F8000
003F8000
003F8000
003F8000
003F8000
003F8000
003F8000
003F8000
003F8000
003FC000
003FC000
003FC000
003FE000
001FF000
001FF800
000FFF00
0007FFF0
0001FFF0
00007FF0
00001FF0
0000FFF0
0003FFF0
0007FFF0
000FFC00
001FF000
001FE000
003FC000
003FC000
003FC000
003F8000
003F8000
003F8000
003F8000
003F8000
003F8000
003F8000
003F8000
003F8000
003F8000
003F8000
003F8000
003F8000
003F8000
003F8000
003F8000
007F8000
007F8000
007F8000
00FF8000
01FF0000
07FF0000
7FFE0000
FFFE0000
FFFC0000
FFF80000
FFE00000
FF800000
F8000000
ENDCHAR
STARTCHAR 007E
ENCODING 126
SWIDTH 562 0
DWIDTH 50 0
BBX 42 11 4 26
BITMAP
01FF80000040
0FFFF00000C0
1FFFFC0001C0
7FFFFF8003C0
FFFFFFF01FC0
FFFFFFFFFFC0
FF87FFFFFFC0
FC007FFFFFC0
F0000FFFFF00
E00003FFFE00
8000007FF800
ENDCHAR
STARTCHAR 00A0
ENCODING 160
SWIDTH 258 0
DWIDTH 23 0
BBX 0 0 0 0
BITMAP
ENDCHAR
STARTCHAR 00A1
ENCODING 161
SWIDTH 258 0
DWIDTH 23 0
BBX 11 65 6 -16
BITMAP
0600
1F80
7FC0
7FE0
7FE0
FFE0
FFE0
FFE0
7FE0
7FE0
7FC0
1F80
0000
0000
0000
0000
0000
0000
0000
0000
1F00
1F80
1F80
1F80
1F80
1F80
1F80
1F80
1F80
1F80
1F80
1F80
1F80
1F80
1F80
3F80
3F80
3F80
3F80
3F80
3F80
3F80
3FC0
3FC0
3FC0
3FC0
3FC0
3FC0
3FC0
3FC0
3FC0
3FC0
3FC0
3FC0
3FC0
7FC0
7FC0
7FC0
7FC0
7FC0
7FC0
7FC0
7FE0
7FE0
7FE0
ENDCHAR
STARTCHAR 00A2
ENCODING 162
SWIDTH 562 0
DWIDTH 50 0
BBX 35 65 8 -1
BITMAP
00007E0000
00007E0000
00007E0000
00007E0000
00007E0000
00007E0000
00007E0000
0001FFF800
000FFFFF80
003FFFFFE0
007FFFFFE0
01FFFFFFC0
03FFFFFFC0
07FFFFFFC0
0FFF000780
0FFC000080
1FF8000000
1FF0000000
3FE0000000
3FE0000000
3FC0000000
7FC0000000
7F80000000
7F80000000
7F80000000
FF80000000
FF00000000
FF00000000
FF00000000
FF00000000
FF00000000
FF00000000
FF00000000
FF00000000
FF00000000
FF00000000
FF00000000
FF80000000
7F80000000
7F80000000
7F80000000
7FC0000000
7FC0000000
3FC0000000
3FE0000000
1FF0000000
1FF8000000
0FFC0000C0
0FFF0007C0
07FFFFFFC0
03FFFFFFC0
01FFFFFFC0
00FFFFFFC0
003FFFFFC0
000FFFFF00
0001FFF800
00007E0000
00007E0000
00007E0000
00007E0000
00007E0000
00007E0000
00007E0000
00007E0000
00007E0000
ENDCHAR
STARTCHAR 00A3
ENCODING 163
SWIDTH 562 0
DWIDTH 50 0
BBX 45 64 3 0
BITMAP
000007FFC000
00003FFFFC00
0000FFFFFF80
0003FFFFFFC0
0007FFFFFFC0
000FFFFFFF80
001FFF03FF80
001FF8003F80
003FE0000700
003FE0000100
007FC0000000
007F80000000
007F80000000
007F80000000
007F80000000
007F80000000
007F00000000
007F00000000
007F00000000
007F00000000
007F00000000
007F00000000
007F00000000
007F00000000
007F00000000
007F00000000
007F00000000
007F00000000
007F00000000
007F00000000
FFFFFFFFE000
FFFFFFFFE000
FFFFFFFFE000
FFFFFFFFE000
FFFFFFFFE000
FFFFFFFFE000
007F00000000
007F00000000
007F00000000
007F00000000
007F00000000
007F00000000
007F00000000
007F00000000
007F00000000
007F00000000
007F00000000
00FF00000000
00FF00000000
00FF00000000
00FF00000000
01FE00000000
01FE00000000
03FC00000000
07F800000000
0FF000000000
3FE000000000
FFFFFFFFFFF8
FFFFFFFFFFF8
FFFFFFFFFFF8
FFFFFFFFFFF8
FFFFFFFFFFF8
FFFFFFFFFFF8
FFFFFFFFFFF8
ENDCHAR
STARTCHAR 00A4
ENCODING 164
SWIDTH 562 0
DWIDTH 50 0
BBX 40 39 5 11
BITMAP
0C00000018
1E0000003C
3F007F007E
7F83FFE0FF
7FCFFFF9FF
3FFFFFFFFE
1FFFFFFFFC
0FFFFFFFF8
07FF80FFF0
03FE003FE0
03F8000FE0
07F00007F0
07E00003F0
0FE00003F8
0FC00001F8
0FC00001F8
1F800000FC
1F800000FC
1F800000FC
1F800000FC
1F800000FC
1F800000FC
1F800000FC
1FC00001F8
0FC00001F8
0FE00003F8
0FE00003F0
07F00007F0
07F8000FE0
03FE003FE0
07FF80FFF0
0FFFFFFFF8
1FFFFFFFFC
3FFFFFFFFC
7FDFFFF9FE
FF87FFE0FF
7F00FF007E
1E0000003C
0C00000018
ENDCHAR
STARTCHAR 00A5
ENCODING 165
SWIDTH 562 0
DWIDTH 50 0
BBX 47 63 2 0
BITMAP
FF00000001FE
FF80000003FC
7F80000003FC
7FC0000007F8
3FC0000007F8
3FE000000FF0
1FE000000FF0
1FF000001FE0
0FF000001FE0
07F800003FC0
07F800003FC0
03FC00007F80
03FC00007F00
01FE0000FF00
01FE0000FE00
00FF0001FE00
00FF0001FC00
007F8003FC00
007F8003F800
003FC007F800
003FC00FF000
001FE00FF000
001FE01FE000
000FF01FE000
000FF03FC000
0007F83FC000
0003F87F8000
0003FC7F0000
0001FCFF0000
0001FEFE0000
0000FFFE0000
0000FFFC0000
00007FFC0000
03FFFFFFFF80
03FFFFFFFF80
03FFFFFFFF80
03FFFFFFFF80
03FFFFFFFF80
03FFFFFFFF80
00000FE00000
00000FE00000
00000FE00000
00000FE00000
00000FE00000
00000FE00000
00000FE00000
03FFFFFFFF80
03FFFFFFFF80
03FFFFFFFF80
03FFFFFFFF80
03FFFFFFFF80
03FFFFFFFF80
00000FE00000
00000FE00000
00000FE00000
00000FE00000
00000FE00000
00000FE00000
00000FE00000
00000FE00000
00000FE00000
00000FE00000
00000FE00000
ENDCHAR
STARTCHAR 00A6
ENCODING 166
SWIDTH 540 0
DWIDTH 48 0
BBX 7 89 21 -21
BITMAP
FE
FE
FE
FE
FE
FE
FE
FE
FE
FE
FE
FE
FE
FE
FE
FE
FE
FE
FE
FE
FE
FE
FE
FE
FE
FE
FE
FE
FE
FE
FE
FE
FE
FE
00
00
00
00
00
00
00
00
00
00
00
00
00
00
00
00
00
00
00
00
00
00
FE
FE
FE
FE
FE
FE
FE
FE
FE
FE
FE
FE
FE
FE
FE
FE
FE
FE
FE
FE
FE
FE
FE
FE
FE
FE
FE
FE
FE
FE
FE
FE
FE
ENDCHAR
STARTCHAR 00A7
ENCODING 167
SWIDTH 506 0
DWIDTH 45 0
BBX 35 68 5 0
BITMAP
0007FF8000
007FFFFC00
01FFFFFF80
07FFFFFFC0
0FFFFFFF80
1FFFFFFF80
3FF800FF80
3FE0001F00
3F80000300
7F80000000
7F80000000
7F80000000
7F80000000
7F80000000
3FC0000000
3FE0000000
3FF8000000
1FFE000000
0FFF800000
07FFF00000
03FFFC0000
00FFFF8000
01FFFFE000
07FFFFF000
0FFFFFFC00
1FE07FFE00
1FC00FFF00
3F8003FF80
3F0000FF80
7F00007FC0
7F00003FC0
7F00001FC0
7F00001FE0
7F00000FE0
7F00000FE0
7F80000FE0
7F80000FE0
3FC0000FC0
3FF0001FC0
1FF8001FC0
0FFF003F80
0FFFC07F80
03FFF1FF00
01FFFFFE00
007FFFFC00
001FFFF000
0007FFF800
0000FFFE00
00003FFF00
000007FF80
000001FF80
000000FFC0
0000003FC0
0000003FC0
0000001FE0
0000001FE0
0000001FE0
0000001FC0
0000001FC0
C000003FC0
F800007FC0
FF0001FF80
FFFFFFFF00
FFFFFFFF00
FFFFFFFC00
FFFFFFF800
3FFFFFE000
03FFFF0000
ENDCHAR
STARTCHAR 00A8
ENCODING 168
SWIDTH 573 0
DWIDTH 51 0
BBX 25 9 13 56
BITMAP
1C001E00
7F003F00
7F007F80
FF807F80
FF807F80
FF807F80
7F007F80
7F003F00
1C001E00
ENDCHAR
STARTCHAR 00A9
ENCODING 169
SWIDTH 821 0
DWIDTH 73 0
BBX 66 65 4 -1
BITMAP
0000007FFF80000000
000007FFFFF0000000
00001FFFFFFE000000
00007FFFFFFF800000
0001FFFC0FFFE00000
0003FF00007FF00000
000FFC00000FF80000
001FE0000003FE0000
003FC0000000FF0000
007F000000007F8000
00FE000000001FC000
01FC000000000FC000
03F80000300007E000
03F0000FFFC003F000
07E0003FFFF003F800
0FC000FFFFF801F800
0FC001FFFFF800FC00
1F8003FFFFF0007C00
1F8007FF07F0007E00
1F000FF80070003E00
3F000FF00000003F00
3E001FE00000001F00
3E001FC00000001F00
7C003FC00000001F80
7C003F800000001F80
7C003F800000000F80
7C007F000000000F80
7C007F000000000F80
7C007F000000000F80
F8007F000000000F80
F8007F000000000FC0
F8007F0000000007C0
F8007F0000000007C0
F8007F000000000FC0
F8007F000000000FC0
F8007F000000000F80
7C007F000000000F80
7C007F000000000F80
7C007F000000000F80
7C003F800000000F80
7C003F800000001F80
7E003FC00000001F00
3E001FC00000001F00
3F001FE00000003F00
3F000FF00000003F00
1F000FFC0070007E00
1F8007FFFFF0007E00
0FC003FFFFF000FC00
0FC001FFFFF000FC00
07E000FFFFF001F800
07F0003FFFE003F800
03F80007FF0007F000
01FC000000000FE000
00FE000000001FC000
00FF000000003FC000
007F800000007F8000
003FE0000001FF0000
000FF8000007FC0000
0007FE00001FF80000
0003FFE001FFF00000
0000FFFFFFFFC00000
00003FFFFFFF000000
00000FFFFFFC000000
000001FFFFE0000000
0000000FFC00000000
ENDCHAR
STARTCHAR 00AA
ENCODING 170
SWIDTH 348 0
DWIDTH 31 0
BBX 24 30 3 34
BITMAP
01FFC0
0FFFF0
3FFFFC
3FFFFE
1FF7FE
1E007F
10003F
00003F
00001F
00001F
00001F
00001F
00FFFF
07FFFF
1FFFFF
3FFFFF
7F801F
7E001F
FC001F
FC001F
FC003F
FC003F
FC003F
FC007F
FE01FF
7FFFFF
7FFFDF
3FFF8F
1FFE0F
03F800
ENDCHAR
STARTCHAR 00AB
ENCODING 171
SWIDTH 506 0
DWIDTH 45 0
BBX 38 37 4 5
BITMAP
0002000080
00078001E0
000FE003F0
000FF007FC
001FE007F8
003FC00FF0
007FC01FE0
00FF803FC0
01FF007FC0
01FE00FF80
03FC01FF00
07F801FE00
0FF803FC00
1FF007F800
3FE00FF800
3FC01FF000
7F803FE000
FF803FC000
FF007F8000
FF007FC000
7F803FE000
3FC01FF000
3FE00FF800
1FF007F800
0FF803FC00
07F801FE00
03FC01FF00
01FE00FF80
01FF007FC0
00FF803FC0
007F801FE0
003FC00FF0
001FE00FF8
000FF007FC
000FE003F8
00078001E0
0002000080
ENDCHAR
STARTCHAR 00AC
ENCODING 172
SWIDTH 562 0
DWIDTH 50 0
BBX 42 23 4 11
BITMAP
FFFFFFFFFFC0
FFFFFFFFFFC0
FFFFFFFFFFC0
FFFFFFFFFFC0
FFFFFFFFFFC0
FFFFFFFFFFC0
000000000FC0
000000000FC0
000000000FC0
000000000FC0
000000000FC0
000000000FC0
000000000FC0
000000000FC0
000000000FC0
000000000FC0
000000000FC0
000000000FC0
000000000FC0
000000000FC0
000000000FC0
000000000FC0
000000000FC0
ENDCHAR
STARTCHAR 00AD
ENCODING 173
SWIDTH 315 0
DWIDTH 28 0
BBX 21 7 4 20
BITMAP
FFFFF8
FFFFF8
FFFFF8
FFFFF8
FFFFF8
FFFFF8
FFFFF8
ENDCHAR
STARTCHAR 00AE
ENCODING 174
SWIDTH 821 0
DWIDTH 73 0
BBX 66 65 4 -1
BITMAP
0000007FFF80000000
000007FFFFF0000000
00001FFFFFFE000000
00007FFFFFFF800000
0001FFFC0FFFE00000
0003FF00007FF00000
000FFC00000FF80000
001FE0000003FE0000
003FC0000000FF0000
007F000000007F8000
00FE000000001FC000
01FC000000000FC000
03F80000000007E000
03F007FFFC0003F000
07E007FFFF8003F800
0FC007FFFFE001F800
0FC007FFFFF000FC00
1F8007FFFFF0007C00
1F8007FFFFF8007E00
1F0007F007F8003E00
3F0007F003FC003F00
3E0007F001FC001F00
3E0007F001FC001F00
7C0007F001FC001F80
7C0007F001FC001F80
7C0007F001FC000F80
7C0007F001FC000F80
7C0007F001FC000F80
7C0007F003FC000F80
F80007F007F8000F80
F80007F03FF0000FC0
F80007FFFFF00007C0
F80007FFFFE00007C0
F80007FFFF80000FC0
F80007FFFE00000FC0
F80007FFFF00000F80
7C0007F07F80000F80
7C0007F03F80000F80
7C0007F03FC0000F80
7C0007F01FC0000F80
7C0007F01FE0001F80
7E0007F00FE0001F00
3E0007F007F0001F00
3F0007F007F8003F00
3F0007F003F8003F00
1F0007F003FC007E00
1F8007F001FC007E00
0FC007F001FE00FC00
0FC007F000FF00FC00
07E007F0007F01F800
07F007F0007F83F800
03F807F0003F87F000
01FC000000000FE000
00FE000000001FC000
00FF000000003FC000
007F800000007F8000
003FE0000001FF0000
000FF8000007FC0000
0007FE00001FF80000
0003FFE001FFF00000
0000FFFFFFFFC00000
00003FFFFFFF000000
00000FFFFFFC000000
000001FFFFE0000000
0000000FFC00000000
ENDCHAR
STARTCHAR 00AF
ENCODING 175
SWIDTH 495 0
DWIDTH 44 0
BBX 45 5 0 68
BITMAP
FFFFFFFFFFF8
FFFFFFFFFFF8
FFFFFFFFFFF8
FFFFFFFFFFF8
FFFFFFFFFFF8
ENDCHAR
STARTCHAR 00B0
ENCODING 176
SWIDTH 427 0
DWIDTH 38 0
BBX 28 27 5 37
BITMAP
00FFE000
03FFFC00
07FFFE00
0FFFFF00
1FFFFF80
3FC03FC0
7F000FE0
7E0007E0
7E0007E0
FC0003F0
FC0003F0
FC0003F0
FC0003F0
FC0003F0
FC0003F0
FC0003F0
FC0003F0
FC0003F0
7E0007E0
7F000FE0
3F801FC0
3FF0FFC0
1FFFFF80
0FFFFF00
07FFFE00
01FFF800
003FC000
ENDCHAR
STARTCHAR 00B1
ENCODING 177
SWIDTH 562 0
DWIDTH 50 0
BBX 42 53 4 0
BITMAP
00003F800000
00003F800000
00003F800000
00003F800000
00003F800000
00003F800000
00003F800000
00003F800000
00003F800000
00003F800000
00003F800000
00003F800000
00003F800000
00003F800000
00003F800000
00003F800000
00003F800000
00003F800000
FFFFFFFFFFC0
FFFFFFFFFFC0
FFFFFFFFFFC0
FFFFFFFFFFC0
FFFFFFFFFFC0
FFFFFFFFFFC0
FFFFFFFFFFC0
00003F800000
00003F800000
00003F800000
00003F800000
00003F800000
00003F800000
00003F800000
00003F800000
00003F800000
00003F800000
00003F800000
00003F800000
00003F800000
00003F800000
00003F800000
00003F800000
00003F800000
00003F800000
000000000000
000000000000
000000000000
000000000000
FFFFFFFFFFC0
FFFFFFFFFFC0
FFFFFFFFFFC0
FFFFFFFFFFC0
FFFFFFFFFFC0
FFFFFFFFFFC0
ENDCHAR
STARTCHAR 00B2
ENCODING 178
SWIDTH 348 0
DWIDTH 31 0
BBX 25 39 2 37
BITMAP
003F8000
03FFF000
0FFFF800
1FFFFE00
7FFFFE00
7FE3FF00
3F007F80
3C003F80
18001F80
00001F80
00001F80
00001F80
00001F80
00001F80
00003F80
00003F00
00007F00
00007E00
0000FE00
0001FC00
0003F800
0007F000
000FE000
001FC000
003F8000
007F0000
00FE0000
01FC0000
03F80000
07F00000
0FE00000
1FC00000
3F800000
7F000000
FFFFFF80
FFFFFF80
FFFFFF80
FFFFFF80
FFFFFF80
ENDCHAR
STARTCHAR 00B3
ENCODING 179
SWIDTH 348 0
DWIDTH 31 0
BBX 27 40 2 36
BITMAP
007F8000
07FFF000
1FFFFC00
7FFFFE00
FFFFFF00
FFC1FF00
7E007F80
38003F80
00001F80
00001F80
00001F80
00001F80
00001F80
00003F80
00003F00
0000FF00
0003FE00
07FFFC00
07FFF000
07FFF000
07FFFC00
07FFFF00
0000FF80
00003F80
00001FC0
00000FC0
00000FC0
00000FE0
00000FE0
00000FC0
00000FC0
00001FC0
80003FC0
F0007F80
FF87FF80
FFFFFF00
FFFFFE00
FFFFF800
3FFFE000
01FE0000
ENDCHAR
STARTCHAR 00B4
ENCODING 180
SWIDTH 270 0
DWIDTH 24 0
BBX 17 14 4 54
BITMAP
00FF80
01FF80
01FF00
03FE00
07FE00
07FC00
0FF800
1FF000
1FE000
3FC000
7F8000
7F0000
FE0000
FC0000
ENDCHAR
STARTCHAR 00B5
ENCODING 181
SWIDTH 618 0
DWIDTH 55 0
BBX 40 69 8 -21
BITMAP
FE000000FF
FE000000FF
FE000000FF
FE000000FF
FE000000FF
FE000000FF
FE000000FF
FE000000FF
FE000000FF
FE000000FF
FE000000FF
FE000000FF
FE000000FF
FE000000FF
FE000000FF
FE000000FF
FE000000FF
FE000000FF
FE000000FF
FE000000FF
FE000000FF
FE000000FF
FE000000FF
FE000000FF
FE000000FF
FE000000FF
FE000000FF
FE000000FF
FE000000FF
FE000000FF
FE000000FF
FE000001FF
FE000001FF
FE000001FF
FF000001FF
FF000003FF
FF000003FF
FF800007FF
FF800007FF
FFC0000FFF
FFE0003FFF
FFF800FFFF
FFFFFFFEFF
FFFFFFFC7F
FFFFFFF87F
FEFFFFF07F
FE7FFFE07F
FE1FFF807F
FE03F80000
FE00000000
FE00000000
FE00000000
FE00000000
FE00000000
FE00000000
FE00000000
FE00000000
FE00000000
FE00000000
FE00000000
FE00000000
FE00000000
FE00000000
FE00000000
FE00000000
FE00000000
FE00000000
FE00000000
FE00000000
ENDCHAR
STARTCHAR 00B6
ENCODING 182
SWIDTH 652 0
DWIDTH 58 0
BBX 44 79 5 -11
BITMAP
00003FFFFFF0
000FFFFFFFF0
007FFFFFFFF0
01FFFFFFFFF0
03FFFFFFFFF0
07FFFFFC01F0
0FFFFFFC01F0
1FFFFFFC01F0
1FFFFFFC01F0
3FFFFFFC01F0
3FFFFFFC01F0
7FFFFFFC01F0
7FFFFFFC01F0
7FFFFFFC01F0
7FFFFFFC01F0
FFFFFFFC01F0
FFFFFFFC01F0
FFFFFFFC01F0
FFFFFFFC01F0
FFFFFFFC01F0
FFFFFFFC01F0
FFFFFFFC01F0
FFFFFFFC01F0
FFFFFFFC01F0
FFFFFFFC01F0
FFFFFFFC01F0
FFFFFFFC01F0
FFFFFFFC01F0
FFFFFFFC01F0
FFFFFFFC01F0
7FFFFFFC01F0
7FFFFFFC01F0
7FFFFFFC01F0
7FFFFFFC01F0
3FFFFFFC01F0
3FFFFFFC01F0
1FFFFFFC01F0
1FFFFFFC01F0
0FFFFFFC01F0
07FFFFFC01F0
03FFFFFC01F0
01FFFFFC01F0
007FFFFC01F0
001FFFFC01F0
0000E0FC01F0
000000FC01F0
000000FC01F0
000000FC01F0
000000FC01F0
000000FC01F0
000000FC01F0
000000FC01F0
000000FC01F0
000000FC01F0
000000FC01F0
000000FC01F0
000000FC01F0
000000FC01F0
000000FC01F0
000000FC01F0
000000FC01F0
000000FC01F0
000000FC01F0
000000FC01F0
000000FC01F0
000000FC01F0
000000FC01F0
000000FC01F0
000000FC01F0
000000FC01F0
000000FC01F0
000000FC01F0
000000FC01F0
000000FC01F0
000000FC01F0
000000FC01F0
000000FC01F0
000000FC01F0
000000FC01F0
ENDCHAR
STARTCHAR 00B7
ENCODING 183
SWIDTH 258 0
DWIDTH 23 0
BBX 11 12 6 25
BITMAP
1F80
3FC0
7FE0
7FE0
FFE0
FFE0
FFE0
7FE0
7FE0
7FC0
3F80
0600
ENDCHAR
STARTCHAR 00B8
ENCODING 184
SWIDTH 225 0
DWIDTH 20 0
BBX 18 21 1 -21
BITMAP
01F000
01F000
03E000
03E000
07C000
07F800
0FFE00
0FFF00
01FF80
003F80
001FC0
001FC0
000FC0
001FC0
001FC0
003F80
FFFF80
FFFF00
FFFE00
FFFC00
FFE000
ENDCHAR
STARTCHAR 00B9
ENCODING 185
SWIDTH 348 0
DWIDTH 31 0
BBX 17 38 4 37
BITMAP
003F80
007F80
01FF80
03FF80
0FFF80
1FFF80
3FDF80
FF9F80
FF1F80
FE1F80
781F80
301F80
001F80
001F80
001F80
001F80
001F80
001F80
001F80
001F80
001F80
001F80
001F80
001F80
001F80
001F80
001F80
001F80
001F80
001F80
001F80
001F80
001F80
001F80
001F80
001F80
001F80
001F80
ENDCHAR
STARTCHAR 00BA
ENCODING 186
SWIDTH 371 0
DWIDTH 33 0
BBX 28 30 3 34
BITMAP
007FE000
03FFF800
07FFFE00
0FFFFF00
1FFFFF80
3F803F80
3F001FC0
7E000FC0
7E0007E0
FC0007E0
FC0003E0
FC0003E0
FC0003F0
F80003F0
F80003F0
F80003F0
F80003F0
FC0003F0
FC0003E0
FC0007E0
7C0007E0
7E0007E0
7E000FC0
3F001FC0
3FC03F80
1FFFFF00
0FFFFE00
07FFFC00
01FFF000
003FC000
ENDCHAR
STARTCHAR 00BB
ENCODING 187
SWIDTH 506 0
DWIDTH 45 0
BBX 38 37 4 5
BITMAP
0800020000
1C000F0000
7E003F8000
FF007F8000
FF803FC000
7F801FE000
3FC00FF000
1FE00FF800
0FF007FC00
07F803FE00
07FC01FE00
03FE00FF00
01FE007F80
00FF007FC0
007F803FE0
007FC01FF0
003FE00FF0
001FF007F8
000FF007FC
001FF007F8
003FE00FF8
007FC01FF0
007F803FE0
00FF007FC0
01FF007F80
03FE00FF00
07FC01FE00
07F803FE00
0FF007FC00
1FE007F800
3FC00FF000
7FC01FE000
FF803FC000
FF007FC000
7E003F8000
3C000F0000
0800020000
ENDCHAR
STARTCHAR 00BC
ENCODING 188
SWIDTH 742 0
DWIDTH 66 0
BBX 62 63 3 0
BITMAP
003FC0000003F800
007FC0000003F000
01FFC0000007F000
03FFC0000007E000
07FFC000000FE000
1FFFC000001FC000
3FEFC000001F8000
FF8FC000003F8000
7F0FC000007F0000
7E0FC000007F0000
380FC00000FE0000
100FC00000FC0000
000FC00001FC0000
000FC00003F80000
000FC00003F00000
000FC00007F00000
000FC00007E00000
000FC0000FE00000
000FC0001FC00000
000FC0001F800000
000FC0003F800000
000FC0003F000000
000FC0007F000000
000FC000FE000000
000FC000FC000000
000FC001FC003F80
000FC003F8007F80
000FC003F8007F80
000FC007F000FF80
000FC007E001FF80
000FC00FE003FF80
000FC01FC003FF80
000FC01FC007DF80
000FC03F800FDF80
000FC03F000FBF80
000FC07F001F3F80
000FC0FE003F3F80
000FC0FC003E3F80
000001FC007C3F80
000001F800FC3F80
000003F801F83F80
000007F001F03F80
000007E003F03F80
00000FE007E03F80
00001FC007C03F80
00001FC00FC03F80
00003F801F803F80
00003F001F003F80
00007F003F003F80
0000FE007FFFFFFC
0000FE007FFFFFFC
0001FC007FFFFFFC
0001F8007FFFFFFC
0003F8007FFFFFFC
0007F00000003F80
0007E00000003F80
000FE00000003F80
000FC00000003F80
001FC00000003F80
003F800000003F80
003F000000003F80
007F000000003F80
007E000000003F80
ENDCHAR
STARTCHAR 00BD
ENCODING 189
SWIDTH 765 0
DWIDTH 68 0
BBX 63 63 2 0
BITMAP
003FC0000007E000
007FC000000FE000
01FFC000001FC000
03FFC000001FC000
0FFFC000003F8000
1FFFC000003F0000
3FEFC000007F0000
FF8FC00000FE0000
7F0FC00000FC0000
7E0FC00001FC0000
380FC00001F80000
100FC00003F80000
000FC00007F00000
000FC00007E00000
000FC0000FE00000
000FC0000FC00000
000FC0001FC00000
000FC0003F800000
000FC0003F000000
000FC0007F000000
000FC000FE000000
000FC000FE000000
000FC001FC000000
000FC001F8000000
000FC003F801FC00
000FC007F00FFF80
000FC007F03FFFE0
000FC00FE0FFFFF0
000FC00FC1FFFFF8
000FC01FC3FF8FFC
000FC03F81F803FC
000FC03F00E001FC
000FC07F004000FE
000FC07E000000FE
000FC0FE000000FE
000FC1FC000000FE
000FC1F8000000FE
000FC3F8000000FC
000007F0000000FC
000007F0000001FC
00000FE0000001F8
00000FC0000003F8
00001FC0000007F0
00003F8000000FE0
00003F8000000FC0
00007F0000001FC0
00007E0000003F80
0000FE0000007F00
0001FC000000FE00
0001F8000003FC00
0003F8000007F800
0003F000000FF000
0007F000001FE000
000FE000003F8000
000FC000007F0000
001FC00000FE0000
003F800001FC0000
003F800003FFFFFE
007F000003FFFFFE
007E000003FFFFFE
00FE000003FFFFFE
01FC000003FFFFFE
01FC000003FFFFFE
ENDCHAR
STARTCHAR 00BE
ENCODING 190
SWIDTH 776 0
DWIDTH 69 0
BBX 68 64 1 0
BITMAP
00FFE0000000000000
07FFFC0000000FE000
1FFFFE0000000FC000
7FFFFF0000001FC000
7FFFFF8000003F8000
3F807F8000003F8000
3E003FC000007F0000
18001FC000007E0000
00000FC00000FE0000
00000FC00001FC0000
00000FC00001F80000
00000FC00003F80000
00001FC00003F00000
00001F800007F00000
00003F80000FE00000
0000FF00000FC00000
03FFFE00001FC00000
03FFFC00001F800000
03FFF000003F800000
03FFFC00007F000000
03FFFF00007E000000
0007FF8000FE000000
00003FC001FC000000
00001FC001FC000000
00000FE003F8000000
000007E003F0000000
000007E007F001FC00
000007E00FE003FC00
000007E00FC003FC00
000007E01FC007FC00
00000FE01F800FFC00
80000FE03F800FFC00
E0001FC07F001FFC00
FE007FC07E003FFC00
FFFFFF80FE003EFC00
FFFFFF00FC007CFC00
FFFFFE01FC00FCFC00
3FFFF803F801F8FC00
07FFE003F001F0FC00
00000007F003F0FC00
0000000FE007E0FC00
0000000FE007C0FC00
0000001FC00FC0FC00
0000001F801F80FC00
0000003F801F00FC00
0000007F003F00FC00
0000007E007E00FC00
000000FE007C00FC00
000000FC00FC00FC00
000001FC01F800FC00
000003F803FFFFFFF0
000003F003FFFFFFF0
000007F003FFFFFFF0
000007E003FFFFFFF0
00000FE003FFFFFFF0
00001FC0000000FC00
00001F80000000FC00
00003F80000000FC00
00007F00000000FC00
00007F00000000FC00
0000FE00000000FC00
0000FC00000000FC00
0001FC00000000FC00
0003F800000000FC00
ENDCHAR
STARTCHAR 00BF
ENCODING 191
SWIDTH 427 0
DWIDTH 38 0
BBX 35 66 2 -17
BITMAP
0000080000
00007F0000
0000FF8000
0000FFC000
0001FFC000
0001FFC000
0001FFC000
0001FFC000
0001FFC000
0000FFC000
0000FF8000
00007F0000
0000000000
0000000000
0000000000
0000000000
0000000000
0000000000
0000000000
0000000000
00003F0000
00003F0000
00003F0000
00003F0000
00007F0000
00007F0000
00007F0000
0000FE0000
0000FE0000
0001FE0000
0003FC0000
0007FC0000
000FF80000
001FF00000
007FE00000
00FFC00000
01FF800000
03FF000000
07FE000000
0FFC000000
1FF8000000
1FF0000000
3FE0000000
3FC0000000
7F80000000
7F80000000
7F00000000
FF00000000
FF00000000
FF00000000
FF00000000
FF00000000
FF00000000
FF00000000
7F00000000
7F80000000
7FC0000380
7FE0000F80
3FF8007FC0
1FFFFFFFC0
1FFFFFFFE0
0FFFFFFFE0
07FFFFFFC0
01FFFFFE00
007FFFF800
000FFF0000
ENDCHAR
STARTCHAR 00C0
ENCODING 192
SWIDTH 630 0
DWIDTH 56 0
BBX 57 84 0 0
BITMAP
00007FC000000000
00007FE000000000
00003FE000000000
00001FF000000000
00001FF800000000
00000FF800000000
000007FC00000000
000003FC00000000
000001FE00000000
000000FF00000000
0000007F80000000
0000003F80000000
0000001FC0000000
0000000FE0000000
0000000000000000
0000000000000000
0000000000000000
0000000000000000
0000000000000000
0000000000000000
0000007F00000000
000000FF00000000
000000FF80000000
000000FF80000000
000001FFC0000000
000001FFC0000000
000003FFC0000000
000003FFE0000000
000003FFE0000000
000007F7F0000000
000007F7F0000000
00000FF7F0000000
00000FE7F8000000
00000FE3F8000000
00001FE3FC000000
00001FC3FC000000
00003FC1FC000000
00003FC1FE000000
00003F81FE000000
00007F80FE000000
00007F80FF000000
00007F007F000000
0000FF007F800000
0000FE007F800000
0001FE003F800000
0001FE003FC00000
0001FC003FC00000
0003FC001FE00000
0003FC001FE00000
0007F8000FE00000
0007F8000FF00000
0007F0000FF00000
000FF00007F80000
000FF00007F80000
001FE00007F80000
001FE00003FC0000
001FE00003FC0000
003FFFFFFFFC0000
003FFFFFFFFE0000
003FFFFFFFFE0000
007FFFFFFFFF0000
007FFFFFFFFF0000
00FFFFFFFFFF0000
00FFFFFFFFFF8000
00FF0000007F8000
01FE0000007FC000
01FE0000003FC000
03FC0000003FC000
03FC0000003FE000
03FC0000001FE000
07F80000001FE000
07F80000000FF000
0FF80000000FF000
0FF00000000FF800
0FF000000007F800
1FE000000007F800
1FE000000003FC00
1FE000000003FC00
3FC000000003FE00
3FC000000001FE00
7F8000000001FE00
7F8000000001FF00
7F8000000000FF00
FF0000000000FF80
ENDCHAR
STARTCHAR 00C1
ENCODING 193
SWIDTH 630 0
DWIDTH 56 0
BBX 57 84 0 0
BITMAP
00000000FF800000
00000001FF800000
00000001FF000000
00000003FE000000
00000007FE000000
00000007FC000000
0000000FF8000000
0000000FF0000000
0000001FE0000000
0000003FC0000000
0000003F80000000
0000007F00000000
000000FE00000000
000000FC00000000
0000000000000000
0000000000000000
0000000000000000
0000000000000000
0000000000000000
0000000000000000
0000007F00000000
000000FF00000000
000000FF80000000
000000FF80000000
000001FFC0000000
000001FFC0000000
000003FFC0000000
000003FFE0000000
000003FFE0000000
000007F7F0000000
000007F7F0000000
00000FF7F0000000
00000FE7F8000000
00000FE3F8000000
00001FE3FC000000
00001FC3FC000000
00003FC1FC000000
00003FC1FE000000
00003F81FE000000
00007F80FE000000
00007F80FF000000
00007F007F000000
0000FF007F800000
0000FE007F800000
0001FE003F800000
0001FE003FC00000
0001FC003FC00000
0003FC001FE00000
0003FC001FE00000
0007F8000FE00000
0007F8000FF00000
0007F0000FF00000
000FF00007F80000
000FF00007F80000
001FE00007F80000
001FE00003FC0000
001FE00003FC0000
003FFFFFFFFC0000
003FFFFFFFFE0000
003FFFFFFFFE0000
007FFFFFFFFF0000
007FFFFFFFFF0000
00FFFFFFFFFF0000
00FFFFFFFFFF8000
00FF0000007F8000
01FE0000007FC000
01FE0000003FC000
03FC0000003FC000
03FC0000003FE000
03FC0000001FE000
07F80000001FE000
07F80000000FF000
0FF80000000FF000
0FF00000000FF800
0FF000000007F800
1FE000000007F800
1FE000000003FC00
1FE000000003FC00
3FC000000003FE00
3FC000000001FE00
7F8000000001FE00
7F8000000001FF00
7F8000000000FF00
FF0000000000FF80
ENDCHAR
STARTCHAR 00C2
ENCODING 194
SWIDTH 630 0
DWIDTH 56 0
BBX 57 84 0 0
BITMAP
000000FF00000000
000001FF80000000
000001FFC0000000
000003FFC0000000
000007FFE0000000
00000FFFF0000000
00001FFFF8000000
00001FE7FC000000
00003FC3FE000000
00007F81FF000000
0000FF007F800000
0001FC003F800000
0003F8001FC00000
0007F00007E00000
0000000000000000
0000000000000000
0000000000000000
0000000000000000
0000000000000000
0000000000000000
0000007F00000000
000000FF00000000
000000FF80000000
000000FF80000000
000001FFC0000000
000001FFC0000000
000003FFC0000000
000003FFE0000000
000003FFE0000000
000007F7F0000000
000007F7F0000000
00000FF7F0000000
00000FE7F8000000
00000FE3F8000000
00001FE3FC000000
00001FC3FC000000
00003FC1FC000000
00003FC1FE000000
00003F81FE000000
00007F80FE000000
00007F80FF000000
00007F007F000000
0000FF007F800000
0000FE007F800000
0001FE003F800000
0001FE003FC00000
0001FC003FC00000
0003FC001FE00000
0003FC001FE00000
0007F8000FE00000
0007F8000FF00000
0007F0000FF00000
000FF00007F80000
000FF00007F80000
001FE00007F80000
001FE00003FC0000
001FE00003FC0000
003FFFFFFFFC0000
003FFFFFFFFE0000
003FFFFFFFFE0000
007FFFFFFFFF0000
007FFFFFFFFF0000
00FFFFFFFFFF0000
00FFFFFFFFFF8000
00FF0000007F8000
01FE0000007FC000
01FE0000003FC000
03FC0000003FC000
03FC0000003FE000
03FC0000001FE000
07F80000001FE000
07F80000000FF000
0FF80000000FF000
0FF00000000FF800
0FF000000007F800
1FE000000007F800
1FE000000003FC00
1FE000000003FC00
3FC000000003FE00
3FC000000001FE00
7F8000000001FE00
7F8000000001FF00
7F8000000000FF00
FF0000000000FF80
ENDCHAR
STARTCHAR 00C3
ENCODING 195
SWIDTH 630 0
DWIDTH 56 0
BBX 57 81 0 0
BITMAP
00003F8000F80000
00007FE000F00000
0001FFF801F00000
0001FFFE01F00000
0003FFFF87F00000
0007FFFFFFE00000
0007F1FFFFE00000
0007C03FFFC00000
000FC01FFF800000
000F8007FF000000
000F8001FE000000
0000000000000000
0000000000000000
0000000000000000
0000000000000000
0000000000000000
0000000000000000
0000007F00000000
000000FF00000000
000000FF80000000
000000FF80000000
000001FFC0000000
000001FFC0000000
000003FFC0000000
000003FFE0000000
000003FFE0000000
000007F7F0000000
000007F7F0000000
00000FF7F0000000
00000FE7F8000000
00000FE3F8000000
00001FE3FC000000
00001FC3FC000000
00003FC1FC000000
00003FC1FE000000
00003F81FE000000
00007F80FE000000
00007F80FF000000
00007F007F000000
0000FF007F800000
0000FE007F800000
0001FE003F800000
0001FE003FC00000
0001FC003FC00000
0003FC001FE00000
0003FC001FE00000
0007F8000FE00000
0007F8000FF00000
0007F0000FF00000
000FF00007F80000
000FF00007F80000
001FE00007F80000
001FE00003FC0000
001FE00003FC0000
003FFFFFFFFC0000
003FFFFFFFFE0000
003FFFFFFFFE0000
007FFFFFFFFF0000
007FFFFFFFFF0000
00FFFFFFFFFF0000
00FFFFFFFFFF8000
00FF0000007F8000
01FE0000007FC000
01FE0000003FC000
03FC0000003FC000
03FC0000003FE000
03FC0000001FE000
07F80000001FE000
07F80000000FF000
0FF80000000FF000
0FF00000000FF800
0FF000000007F800
1FE000000007F800
1FE000000003FC00
1FE000000003FC00
3FC000000003FE00
3FC000000001FE00
7F8000000001FE00
7F8000000001FF00
7F8000000000FF00
FF0000000000FF80
ENDCHAR
STARTCHAR 00C4
ENCODING 196
SWIDTH 630 0
DWIDTH 56 0
BBX 57 81 0 0
BITMAP
000018001C000000
00007E003F000000
0000FF007F000000
0000FF007F800000
0000FF007F800000
0000FF007F800000
0000FF007F800000
00007E007F000000
00003C003E000000
0000000000000000
0000000000000000
0000000000000000
0000000000000000
0000000000000000
0000000000000000
0000000000000000
0000000000000000
0000007F00000000
000000FF00000000
000000FF80000000
000000FF80000000
000001FFC0000000
000001FFC0000000
000003FFC0000000
000003FFE0000000
000003FFE0000000
000007F7F0000000
000007F7F0000000
00000FF7F0000000
00000FE7F8000000
00000FE3F8000000
00001FE3FC000000
00001FC3FC000000
00003FC1FC000000
00003FC1FE000000
00003F81FE000000
00007F80FE000000
00007F80FF000000
00007F007F000000
0000FF007F800000
0000FE007F800000
0001FE003F800000
0001FE003FC00000
0001FC003FC00000
0003FC001FE00000
0003FC001FE00000
0007F8000FE00000
0007F8000FF00000
0007F0000FF00000
000FF00007F80000
000FF00007F80000
001FE00007F80000
001FE00003FC0000
001FE00003FC0000
003FFFFFFFFC0000
003FFFFFFFFE0000
003FFFFFFFFE0000
007FFFFFFFFF0000
007FFFFFFFFF0000
00FFFFFFFFFF0000
00FFFFFFFFFF8000
00FF0000007F8000
01FE0000007FC000
01FE0000003FC000
03FC0000003FC000
03FC0000003FE000
03FC0000001FE000
07F80000001FE000
07F80000000FF000
0FF80000000FF000
0FF00000000FF800
0FF000000007F800
1FE000000007F800
1FE000000003FC00
1FE000000003FC00
3FC000000003FE00
3FC000000001FE00
7F8000000001FE00
7F8000000001FF00
7F8000000000FF00
FF0000000000FF80
ENDCHAR
STARTCHAR 00C5
ENCODING 197
SWIDTH 630 0
DWIDTH 56 0
BBX 57 78 0 0
BITMAP
000000FF00000000
000003FFC0000000
000007FFE0000000
00000FFFF0000000
00000FE7F8000000
00001F80F8000000
00001F00FC000000
00001E007C000000
00003E007C000000
00003E007C000000
00001E007C000000
00001F007C000000
00001F00FC000000
00001F81F8000000
00000FFFF8000000
00000FFFF0000000
000007FFE0000000
000001FF80000000
000001FFC0000000
000001FFC0000000
000003FFC0000000
000003FFE0000000
000003FFE0000000
000007F7F0000000
000007F7F0000000
00000FF7F0000000
00000FE7F8000000
00000FE3F8000000
00001FE3FC000000
00001FC3FC000000
00003FC1FC000000
00003FC1FE000000
00003F81FE000000
00007F80FE000000
00007F80FF000000
00007F007F000000
0000FF007F800000
0000FE007F800000
0001FE003F800000
0001FE003FC00000
0001FC003FC00000
0003FC001FE00000
0003FC001FE00000
0007F8000FE00000
0007F8000FF00000
0007F0000FF00000
000FF00007F80000
000FF00007F80000
001FE00007F80000
001FE00003FC0000
001FE00003FC0000
003FFFFFFFFC0000
003FFFFFFFFE0000
003FFFFFFFFE0000
007FFFFFFFFF0000
007FFFFFFFFF0000
00FFFFFFFFFF0000
00FFFFFFFFFF8000
00FF0000007F8000
01FE0000007FC000
01FE0000003FC000
03FC0000003FC000
03FC0000003FE000
03FC0000001FE000
07F80000001FE000
07F80000000FF000
0FF80000000FF000
0FF00000000FF800
0FF000000007F800
1FE000000007F800
1FE000000003FC00
1FE000000003FC00
3FC000000003FE00
3FC000000001FE00
7F8000000001FE00
7F8000000001FF00
7F8000000000FF00
FF0000000000FF80
ENDCHAR
STARTCHAR 00C6
ENCODING 198
SWIDTH 877 0
DWIDTH 78 0
BBX 73 63 0 0
BITMAP
00000003FFFFFFFFFF80
00000007FFFFFFFFFF80
00000007FFFFFFFFFF80
0000000FFFFFFFFFFF80
0000000FFFFFFFFFFF80
0000001FFFFFFFFFFF80
0000001FFFFFFFFFFF80
0000003FC0FF00000000
0000003FC0FF00000000
0000007F80FF00000000
0000007F80FF00000000
000000FF00FF00000000
000000FF00FF00000000
000001FF00FF00000000
000001FE00FF00000000
000003FE00FF00000000
000003FC00FF00000000
000007FC00FF00000000
000007F800FF00000000
000007F800FF00000000
00000FF000FF00000000
00000FF000FF00000000
00001FE000FF00000000
00001FE000FF00000000
00003FC000FF00000000
00003FC000FF00000000
00007F8000FFFFFFFE00
00007F8000FFFFFFFE00
0000FF0000FFFFFFFE00
0000FF0000FFFFFFFE00
0001FF0000FFFFFFFE00
0001FE0000FFFFFFFE00
0003FE0000FFFFFFFE00
0003FC0000FF00000000
0007FC0000FF00000000
0007F80000FF00000000
000FFFFFFFFF00000000
000FFFFFFFFF00000000
000FFFFFFFFF00000000
001FFFFFFFFF00000000
001FFFFFFFFF00000000
003FFFFFFFFF00000000
003FFFFFFFFF00000000
007FC00000FF00000000
007F800000FF00000000
00FF800000FF00000000
00FF000000FF00000000
01FF000000FF00000000
01FE000000FF00000000
03FE000000FF00000000
03FC000000FF00000000
07FC000000FF00000000
07F8000000FF00000000
0FF8000000FF00000000
0FF0000000FF00000000
1FF0000000FF00000000
1FE0000000FFFFFFFF80
3FE0000000FFFFFFFF80
3FC0000000FFFFFFFF80
3FC0000000FFFFFFFF80
7F80000000FFFFFFFF80
7F80000000FFFFFFFF80
FF00000000FFFFFFFF80
ENDCHAR
STARTCHAR 00C7
ENCODING 199
SWIDTH 630 0
DWIDTH 56 0
BBX 48 85 5 -21
BITMAP
000001FFFF00
00001FFFFFF0
00007FFFFFFE
0001FFFFFFFF
0007FFFFFFFF
000FFFFFFFFE
001FFFFFFFFE
007FFF0003FC
00FFF800007C
00FFF000000C
01FFC0000000
03FF80000000
07FF00000000
07FE00000000
0FFC00000000
0FF800000000
1FF800000000
1FF000000000
1FF000000000
3FE000000000
3FE000000000
3FC000000000
7FC000000000
7FC000000000
7FC000000000
7F8000000000
7F8000000000
7F8000000000
7F8000000000
FF8000000000
FF8000000000
FF8000000000
FF8000000000
FF8000000000
FF8000000000
FF8000000000
7F8000000000
7F8000000000
7F8000000000
7F8000000000
7FC000000000
7FC000000000
7FC000000000
3FC000000000
3FE000000000
3FE000000000
3FF000000000
1FF000000000
1FF800000000
0FF800000000
0FFC00000000
07FE00000000
07FF00000000
03FF80000000
03FFC0000000
01FFF0000004
00FFFC00003C
007FFFE00FFC
003FFFFFFFFC
001FFFFFFFFC
0007FFFFFFFC
0003FFFFFFFC
0000FFFFFFF8
00001FFFFFC0
000000FFF800
0000003E0000
0000007C0000
0000007C0000
000000F80000
000000FF0000
000001FFC000
000001FFE000
0000001FF000
00000007F800
00000003F800
00000001F800
00000001F800
00000001F800
00000003F800
00000007F000
00001FFFF000
00001FFFE000
00001FFFC000
00001FFF8000
00001FFC0000
ENDCHAR
STARTCHAR 00C8
ENCODING 200
SWIDTH 551 0
DWIDTH 49 0
BBX 35 84 9 0
BITMAP
01FF000000
01FF800000
00FF800000
00FFC00000
007FC00000
003FE00000
001FF00000
000FF00000
0007F80000
0003FC0000
0001FC0000
0000FE0000
00007F0000
00003F0000
0000000000
0000000000
0000000000
0000000000
0000000000
0000000000
0000000000
FFFFFFFFE0
FFFFFFFFE0
FFFFFFFFE0
FFFFFFFFE0
FFFFFFFFE0
FFFFFFFFE0
FFFFFFFFE0
FF00000000
FF00000000
FF00000000
FF00000000
FF00000000
FF00000000
FF00000000
FF00000000
FF00000000
FF00000000
FF00000000
FF00000000
FF00000000
FF00000000
FF00000000
FF00000000
FF00000000
FF00000000
FF00000000
FFFFFFFF80
FFFFFFFF80
FFFFFFFF80
FFFFFFFF80
FFFFFFFF80
FFFFFFFF80
FFFFFFFF80
FF00000000
FF00000000
FF00000000
FF00000000
FF00000000
FF00000000
FF00000000
FF00000000
FF00000000
FF00000000
FF00000000
FF00000000
FF00000000
FF00000000
FF00000000
FF00000000
FF00000000
FF00000000
FF00000000
FF00000000
FF00000000
FF00000000
FF00000000
FFFFFFFFE0
FFFFFFFFE0
FFFFFFFFE0
FFFFFFFFE0
FFFFFFFFE0
FFFFFFFFE0
FFFFFFFFE0
ENDCHAR
STARTCHAR 00C9
ENCODING 201
SWIDTH 551 0
DWIDTH 49 0
BBX 35 84 9 0
BITMAP
000003FE00
000007FE00
000007FC00
00000FF800
00001FF800
00001FF000
00003FE000
00007FC000
00007F8000
0000FF0000
0001FE0000
0001FC0000
0003F80000
0007F00000
0000000000
0000000000
0000000000
0000000000
0000000000
0000000000
0000000000
FFFFFFFFE0
FFFFFFFFE0
FFFFFFFFE0
FFFFFFFFE0
FFFFFFFFE0
FFFFFFFFE0
FFFFFFFFE0
FF00000000
FF00000000
FF00000000
FF00000000
FF00000000
FF00000000
FF00000000
FF00000000
FF00000000
FF00000000
FF00000000
FF00000000
FF00000000
FF00000000
FF00000000
FF00000000
FF00000000
FF00000000
FF00000000
FFFFFFFF80
FFFFFFFF80
FFFFFFFF80
FFFFFFFF80
FFFFFFFF80
FFFFFFFF80
FFFFFFFF80
FF00000000
FF00000000
FF00000000
FF00000000
FF00000000
FF00000000
FF00000000
FF00000000
FF00000000
FF00000000
FF00000000
FF00000000
FF00000000
FF00000000
FF00000000
FF00000000
FF00000000
FF00000000
FF00000000
FF00000000
FF00000000
FF00000000
FF00000000
FFFFFFFFE0
FFFFFFFFE0
FFFFFFFFE0
FFFFFFFFE0
FFFFFFFFE0
FFFFFFFFE0
FFFFFFFFE0
ENDCHAR
STARTCHAR 00CA
ENCODING 202
SWIDTH 551 0
DWIDTH 49 0
BBX 35 84 9 0
BITMAP
0003FC0000
0007FE0000
000FFF0000
000FFF0000
001FFF8000
003FFFC000
007FFFE000
00FF9FF000
01FF0FF800
01FE07F800
03F803FC00
07F000FE00
0FE0007F00
1FC0003F80
0000000000
0000000000
0000000000
0000000000
0000000000
0000000000
0000000000
FFFFFFFFE0
FFFFFFFFE0
FFFFFFFFE0
FFFFFFFFE0
FFFFFFFFE0
FFFFFFFFE0
FFFFFFFFE0
FF00000000
FF00000000
FF00000000
FF00000000
FF00000000
FF00000000
FF00000000
FF00000000
FF00000000
FF00000000
FF00000000
FF00000000
FF00000000
FF00000000
FF00000000
FF00000000
FF00000000
FF00000000
FF00000000
FFFFFFFF80
FFFFFFFF80
FFFFFFFF80
FFFFFFFF80
FFFFFFFF80
FFFFFFFF80
FFFFFFFF80
FF00000000
FF00000000
FF00000000
FF00000000
FF00000000
FF00000000
FF00000000
FF00000000
FF00000000
FF00000000
FF00000000
FF00000000
FF00000000
FF00000000
FF00000000
FF00000000
FF00000000
FF00000000
FF00000000
FF00000000
FF00000000
FF00000000
FF00000000
FFFFFFFFE0
FFFFFFFFE0
FFFFFFFFE0
FFFFFFFFE0
FFFFFFFFE0
FFFFFFFFE0
FFFFFFFFE0
ENDCHAR
STARTCHAR 00CB
ENCODING 203
SWIDTH 551 0
DWIDTH 49 0
BBX 35 81 9 0
BITMAP
0060007000
01F801FC00
03FC01FC00
03FC03FE00
03FC03FE00
03FC03FE00
03FC01FC00
03F801FC00
00F000F800
0000000000
0000000000
0000000000
0000000000
0000000000
0000000000
0000000000
0000000000
0000000000
FFFFFFFFE0
FFFFFFFFE0
FFFFFFFFE0
FFFFFFFFE0
FFFFFFFFE0
FFFFFFFFE0
FFFFFFFFE0
FF00000000
FF00000000
FF00000000
FF00000000
FF00000000
FF00000000
FF00000000
FF00000000
FF00000000
FF00000000
FF00000000
FF00000000
FF00000000
FF00000000
FF00000000
FF00000000
FF00000000
FF00000000
FF00000000
FFFFFFFF80
FFFFFFFF80
FFFFFFFF80
FFFFFFFF80
FFFFFFFF80
FFFFFFFF80
FFFFFFFF80
FF00000000
FF00000000
FF00000000
FF00000000
FF00000000
FF00000000
FF00000000
FF00000000
FF00000000
FF00000000
FF00000000
FF00000000
FF00000000
FF00000000
FF00000000
FF00000000
FF00000000
FF00000000
FF00000000
FF00000000
FF00000000
FF00000000
FF00000000
FFFFFFFFE0
FFFFFFFFE0
FFFFFFFFE0
FFFFFFFFE0
FFFFFFFFE0
FFFFFFFFE0
FFFFFFFFE0
ENDCHAR
STARTCHAR 00CC
ENCODING 204
SWIDTH 337 0
DWIDTH 30 0
BBX 22 84 4 0
BITMAP
FF8000
FFC000
7FC000
7FE000
3FE000
1FF000
0FF800
07F800
03FC00
01FE00
00FE00
007F00
003F80
001F80
000000
000000
000000
000000
000000
000000
000000
FFFFFC
FFFFFC
FFFFFC
FFFFFC
7FFFF8
07FF80
01FE00
01FE00
01FE00
01FE00
01FE00
01FE00
01FE00
01FE00
01FE00
01FE00
01FE00
01FE00
01FE00
01FE00
01FE00
01FE00
01FE00
01FE00
01FE00
01FE00
01FE00
01FE00
01FE00
01FE00
01FE00
01FE00
01FE00
01FE00
01FE00
01FE00
01FE00
01FE00
01FE00
01FE00
01FE00
01FE00
01FE00
01FE00
01FE00
01FE00
01FE00
01FE00
01FE00
01FE00
01FE00
01FE00
01FE00
01FE00
01FE00
01FE00
01FE00
1FFFE0
FFFFFC
FFFFFC
FFFFFC
FFFFFC
FFFFFC
ENDCHAR
STARTCHAR 00CD
ENCODING 205
SWIDTH 337 0
DWIDTH 30 0
BBX 24 84 4 0
BITMAP
0001FF
0003FF
0003FE
0007FC
000FFC
000FF8
001FF0
003FE0
003FC0
007F80
00FF00
00FE00
01FC00
03F800
000000
000000
000000
000000
000000
000000
000000
FFFFFC
FFFFFC
FFFFFC
FFFFFC
7FFFF8
07FF80
01FE00
01FE00
01FE00
01FE00
01FE00
01FE00
01FE00
01FE00
01FE00
01FE00
01FE00
01FE00
01FE00
01FE00
01FE00
01FE00
01FE00
01FE00
01FE00
01FE00
01FE00
01FE00
01FE00
01FE00
01FE00
01FE00
01FE00
01FE00
01FE00
01FE00
01FE00
01FE00
01FE00
01FE00
01FE00
01FE00
01FE00
01FE00
01FE00
01FE00
01FE00
01FE00
01FE00
01FE00
01FE00
01FE00
01FE00
01FE00
01FE00
01FE00
01FE00
1FFFE0
FFFFFC
FFFFFC
FFFFFC
FFFFFC
FFFFFC
ENDCHAR
STARTCHAR 00CE
ENCODING 206
SWIDTH 337 0
DWIDTH 30 0
BBX 30 84 0 0
BITMAP
001FE000
003FF000
007FF800
007FF800
00FFFC00
01FFFE00
03FFFF00
07FCFF80
0FF87FC0
0FF03FC0
1FC01FE0
3F8007F0
7F0003F8
FE0001FC
00000000
00000000
00000000
00000000
00000000
00000000
00000000
0FFFFFC0
0FFFFFC0
0FFFFFC0
0FFFFFC0
07FFFF80
007FF800
001FE000
001FE000
001FE000
001FE000
001FE000
001FE000
001FE000
001FE000
001FE000
001FE000
001FE000
001FE000
001FE000
001FE000
001FE000
001FE000
001FE000
001FE000
001FE000
001FE000
001FE000
001FE000
001FE000
001FE000
001FE000
001FE000
001FE000
001FE000
001FE000
001FE000
001FE000
001FE000
001FE000
001FE000
001FE000
001FE000
001FE000
001FE000
001FE000
001FE000
001FE000
001FE000
001FE000
001FE000
001FE000
001FE000
001FE000
001FE000
001FE000
001FE000
001FE000
01FFFE00
0FFFFFC0
0FFFFFC0
0FFFFFC0
0FFFFFC0
0FFFFFC0
ENDCHAR
STARTCHAR 00CF
ENCODING 207
SWIDTH 337 0
DWIDTH 30 0
BBX 25 81 3 0
BITMAP
18001C00
7E007F00
FF007F00
FF00FF80
FF00FF80
FF00FF80
FF007F00
FE007F00
3C003E00
00000000
00000000
00000000
00000000
00000000
00000000
00000000
00000000
00000000
7FFFFE00
7FFFFE00
7FFFFE00
7FFFFE00
3FFFFC00
03FFC000
00FF0000
00FF0000
00FF0000
00FF0000
00FF0000
00FF0000
00FF0000
00FF0000
00FF0000
00FF0000
00FF0000
00FF0000
00FF0000
00FF0000
00FF0000
00FF0000
00FF0000
00FF0000
00FF0000
00FF0000
00FF0000
00FF0000
00FF0000
00FF0000
00FF0000
00FF0000
00FF0000
00FF0000
00FF0000
00FF0000
00FF0000
00FF0000
00FF0000
00FF0000
00FF0000
00FF0000
00FF0000
00FF0000
00FF0000
00FF0000
00FF0000
00FF0000
00FF0000
00FF0000
00FF0000
00FF0000
00FF0000
00FF0000
00FF0000
00FF0000
00FF0000
0FFFF000
7FFFFE00
7FFFFE00
7FFFFE00
7FFFFE00
7FFFFE00
ENDCHAR
STARTCHAR 00D0
ENCODING 208
SWIDTH 720 0
DWIDTH 64 0
BBX 56 63 3 0
BITMAP
03FFFFFFC00000
03FFFFFFFC0000
03FFFFFFFF0000
03FFFFFFFFE000
03FFFFFFFFF000
03FFFFFFFFFC00
03FC003FFFFE00
03FC00007FFF00
03FC00000FFF80
03FC000003FFC0
03FC000001FFE0
03FC0000007FE0
03FC0000003FF0
03FC0000001FF8
03FC0000000FF8
03FC0000000FFC
03FC00000007FC
03FC00000007FC
03FC00000003FE
03FC00000003FE
03FC00000001FE
03FC00000001FF
03FC00000001FF
03FC00000001FF
03FC00000000FF
03FC00000000FF
03FC00000000FF
03FC00000000FF
FFFFFFFC0000FF
FFFFFFFC0000FF
FFFFFFFC0000FF
FFFFFFFC0000FF
FFFFFFFC0000FF
FFFFFFFC0000FF
FFFFFFFC0000FF
03FC00000000FF
03FC00000000FF
03FC00000001FF
03FC00000001FF
03FC00000001FF
03FC00000001FE
03FC00000001FE
03FC00000003FE
03FC00000003FE
03FC00000007FC
03FC00000007FC
03FC0000000FFC
03FC0000000FF8
03FC0000001FF8
03FC0000003FF0
03FC0000007FE0
03FC000000FFE0
03FC000003FFC0
03FC00000FFF80
03FC00003FFF00
03FC0003FFFE00
03FFFFFFFFFC00
03FFFFFFFFF000
03FFFFFFFFE000
03FFFFFFFF8000
03FFFFFFFC0000
03FFFFFFF00000
03FFFFFE000000
ENDCHAR
STARTCHAR 00D1
ENCODING 209
SWIDTH 753 0
DWIDTH 67 0
BBX 50 81 9 0
BITMAP
0001FC000F8000
0007FF000F8000
000FFFC00F8000
001FFFE01F0000
001FFFF83F0000
003FFFFFFF0000
003F0FFFFE0000
007E03FFFE0000
007C00FFFC0000
007C003FF80000
0078000FE00000
00000000000000
00000000000000
00000000000000
00000000000000
00000000000000
00000000000000
00000000000000
FF800000003FC0
FFC00000003FC0
FFE00000003FC0
FFE00000003FC0
FFF00000003FC0
FFF80000003FC0
FFF80000003FC0
FFFC0000003FC0
FFFE0000003FC0
FFFE0000003FC0
FDFF0000003FC0
FDFF8000003FC0
FCFF8000003FC0
FC7FC000003FC0
FE7FE000003FC0
FE3FE000003FC0
FE1FF000003FC0
FE1FF000003FC0
FE0FF800003FC0
FE07FC00003FC0
FE07FC00003FC0
FE03FE00003FC0
FE03FF00003FC0
FE01FF00003FC0
FE00FF80003FC0
FE00FFC0003FC0
FE007FC0003FC0
FE003FE0003FC0
FE003FF0003FC0
FE001FF0003FC0
FE000FF8003FC0
FE000FF8003FC0
FE0007FC003FC0
FE0003FE003FC0
FE0003FE003FC0
FE0001FF003FC0
FE0000FF803FC0
FE0000FF803FC0
FE00007FC03FC0
FE00007FE01FC0
FE00003FE01FC0
FE00001FF01FC0
FE00001FF81FC0
FE00000FF81FC0
FE000007FC1FC0
FE000007FE1FC0
FE000003FE1FC0
FE000001FF1FC0
FE000001FF1FC0
FE000000FF9FC0
FE0000007FDFC0
FE0000007FDFC0
FE0000003FFFC0
FE0000003FFFC0
FE0000001FFFC0
FE0000000FFFC0
FE0000000FFFC0
FE00000007FFC0
FE00000003FFC0
FE00000003FFC0
FE00000001FFC0
FE00000000FFC0
FE00000000FFC0
ENDCHAR
STARTCHAR 00D2
ENCODING 210
SWIDTH 776 0
DWIDTH 69 0
BBX 59 85 5 -1
BITMAP
00003FF000000000
00001FF000000000
00001FF800000000
00000FF800000000
000007FC00000000
000003FE00000000
000001FE00000000
000000FF00000000
0000007F80000000
0000007F80000000
0000001FC0000000
0000000FE0000000
00000007E0000000
00000003F0000000
0000000000000000
0000000000000000
0000000000000000
0000000000000000
0000000000000000
0000000000000000
000007FFFC000000
00003FFFFFC00000
0001FFFFFFF00000
0003FFFFFFFC0000
000FFFFFFFFE0000
001FFFFFFFFF8000
003FFFFFFFFFC000
007FFE0007FFE000
00FFF00000FFF000
01FFC000007FF000
03FF8000001FF800
07FF0000000FFC00
07FE00000007FC00
0FFC00000003FE00
0FF800000003FE00
1FF800000001FF00
1FF000000001FF00
1FF000000000FF80
3FE000000000FF80
3FE0000000007F80
3FC0000000007FC0
7FC0000000007FC0
7FC0000000003FC0
7FC0000000003FC0
7F80000000003FC0
7F80000000003FE0
7F80000000003FE0
7F80000000003FE0
7F80000000003FE0
FF80000000003FE0
FF80000000001FE0
FF80000000001FE0
FF80000000001FE0
FF80000000001FE0
FF80000000003FE0
7F80000000003FE0
7F80000000003FE0
7F80000000003FE0
7F80000000003FE0
7F80000000003FE0
7FC0000000003FC0
7FC0000000003FC0
7FC0000000007FC0
3FC0000000007FC0
3FE0000000007F80
3FE000000000FF80
1FE000000000FF80
1FF000000000FF00
1FF000000001FF00
0FF800000001FF00
0FFC00000003FE00
07FC00000007FE00
07FE0000000FFC00
03FF0000001FF800
01FF8000003FF800
01FFE000007FF000
00FFF80003FFE000
007FFF801FFFC000
003FFFFFFFFF8000
001FFFFFFFFF0000
0007FFFFFFFC0000
0001FFFFFFF80000
00007FFFFFE00000
00001FFFFF000000
000000FFE0000000
ENDCHAR
STARTCHAR 00D3
ENCODING 211
SWIDTH 776 0
DWIDTH 69 0
BBX 59 85 5 -1
BITMAP
000000007FE00000
000000007FE00000
00000000FFC00000
00000000FF800000
00000001FF000000
00000003FE000000
00000003FC000000
00000007F8000000
0000000FF8000000
0000000FF0000000
0000001FE0000000
0000003FC0000000
0000003F00000000
0000007E00000000
0000000000000000
0000000000000000
0000000000000000
0000000000000000
0000000000000000
0000000000000000
000007FFFC000000
00003FFFFFC00000
0001FFFFFFF00000
0003FFFFFFFC0000
000FFFFFFFFE0000
001FFFFFFFFF8000
003FFFFFFFFFC000
007FFE0007FFE000
00FFF00000FFF000
01FFC000007FF000
03FF8000001FF800
07FF0000000FFC00
07FE00000007FC00
0FFC00000003FE00
0FF800000003FE00
1FF800000001FF00
1FF000000001FF00
1FF000000000FF80
3FE000000000FF80
3FE0000000007F80
3FC0000000007FC0
7FC0000000007FC0
7FC0000000003FC0
7FC0000000003FC0
7F80000000003FC0
7F80000000003FE0
7F80000000003FE0
7F80000000003FE0
7F80000000003FE0
FF80000000003FE0
FF80000000001FE0
FF80000000001FE0
FF80000000001FE0
FF80000000001FE0
FF80000000003FE0
7F80000000003FE0
7F80000000003FE0
7F80000000003FE0
7F80000000003FE0
7F80000000003FE0
7FC0000000003FC0
7FC0000000003FC0
7FC0000000007FC0
3FC0000000007FC0
3FE0000000007F80
3FE000000000FF80
1FE000000000FF80
1FF000000000FF00
1FF000000001FF00
0FF800000001FF00
0FFC00000003FE00
07FC00000007FE00
07FE0000000FFC00
03FF0000001FF800
01FF8000003FF800
01FFE000007FF000
00FFF80003FFE000
007FFF801FFFC000
003FFFFFFFFF8000
001FFFFFFFFF0000
0007FFFFFFFC0000
0001FFFFFFF80000
00007FFFFFE00000
00001FFFFF000000
000000FFE0000000
ENDCHAR
STARTCHAR 00D4
ENCODING 212
SWIDTH 776 0
DWIDTH 69 0
BBX 59 85 5 -1
BITMAP
0000007FC0000000
0000007FE0000000
000000FFE0000000
000001FFF0000000
000001FFF8000000
000003FFFC000000
000007FBFC000000
00000FF1FE000000
00001FE0FF000000
00003FC07F800000
00007F803FC00000
0000FF001FE00000
0001FE0007F00000
0001F80003F80000
0000000000000000
0000000000000000
0000000000000000
0000000000000000
0000000000000000
0000000000000000
000007FFFC000000
00003FFFFFC00000
0001FFFFFFF00000
0003FFFFFFFC0000
000FFFFFFFFE0000
001FFFFFFFFF8000
003FFFFFFFFFC000
007FFE0007FFE000
00FFF00000FFF000
01FFC000007FF000
03FF8000001FF800
07FF0000000FFC00
07FE00000007FC00
0FFC00000003FE00
0FF800000003FE00
1FF800000001FF00
1FF000000001FF00
1FF000000000FF80
3FE000000000FF80
3FE0000000007F80
3FC0000000007FC0
7FC0000000007FC0
7FC0000000003FC0
7FC0000000003FC0
7F80000000003FC0
7F80000000003FE0
7F80000000003FE0
7F80000000003FE0
7F80000000003FE0
FF80000000003FE0
FF80000000001FE0
FF80000000001FE0
FF80000000001FE0
FF80000000001FE0
FF80000000003FE0
7F80000000003FE0
7F80000000003FE0
7F80000000003FE0
7F80000000003FE0
7F80000000003FE0
7FC0000000003FC0
7FC0000000003FC0
7FC0000000007FC0
3FC0000000007FC0
3FE0000000007F80
3FE000000000FF80
1FE000000000FF80
1FF000000000FF00
1FF000000001FF00
0FF800000001FF00
0FFC00000003FE00
07FC00000007FE00
07FE0000000FFC00
03FF0000001FF800
01FF8000003FF800
01FFE000007FF000
00FFF80003FFE000
007FFF801FFFC000
003FFFFFFFFF8000
001FFFFFFFFF0000
0007FFFFFFFC0000
0001FFFFFFF80000
00007FFFFFE00000
00001FFFFF000000
000000FFE0000000
ENDCHAR
STARTCHAR 00D5
ENCODING 213
SWIDTH 776 0
DWIDTH 69 0
BBX 59 82 5 -1
BITMAP
00000FE0007C0000
00003FF8007C0000
00007FFE007C0000
0000FFFF00F80000
0000FFFFC1F80000
0001FFFFFFF80000
0001F87FFFF00000
0003F01FFFF00000
0003E007FFE00000
0003E001FFC00000
0003C0007F000000
0000000000000000
0000000000000000
0000000000000000
0000000000000000
0000000000000000
0000000000000000
000007FFFC000000
00003FFFFFC00000
0001FFFFFFF00000
0003FFFFFFFC0000
000FFFFFFFFE0000
001FFFFFFFFF8000
003FFFFFFFFFC000
007FFE0007FFE000
00FFF00000FFF000
01FFC000007FF000
03FF8000001FF800
07FF0000000FFC00
07FE00000007FC00
0FFC00000003FE00
0FF800000003FE00
1FF800000001FF00
1FF000000001FF00
1FF000000000FF80
3FE000000000FF80
3FE0000000007F80
3FC0000000007FC0
7FC0000000007FC0
7FC0000000003FC0
7FC0000000003FC0
7F80000000003FC0
7F80000000003FE0
7F80000000003FE0
7F80000000003FE0
7F80000000003FE0
FF80000000003FE0
FF80000000001FE0
FF80000000001FE0
FF80000000001FE0
FF80000000001FE0
FF80000000003FE0
7F80000000003FE0
7F80000000003FE0
7F80000000003FE0
7F80000000003FE0
7F80000000003FE0
7FC0000000003FC0
7FC0000000003FC0
7FC0000000007FC0
3FC0000000007FC0
3FE0000000007F80
3FE000000000FF80
1FE000000000FF80
1FF000000000FF00
1FF000000001FF00
0FF800000001FF00
0FFC00000003FE00
07FC00000007FE00
07FE0000000FFC00
03FF0000001FF800
01FF8000003FF800
01FFE000007FF000
00FFF80003FFE000
007FFF801FFFC000
003FFFFFFFFF8000
001FFFFFFFFF0000
0007FFFFFFFC0000
0001FFFFFFF80000
00007FFFFFE00000
00001FFFFF000000
000000FFE0000000
ENDCHAR
STARTCHAR 00D6
ENCODING 214
SWIDTH 776 0
DWIDTH 69 0
BBX 59 82 5 -1
BITMAP
00000E0006000000
00003F801F800000
00003F803FC00000
00007FC03FC00000
00007FC03FC00000
00007FC03FC00000
00003F803FC00000
00003F801F800000
00001F000F000000
0000000000000000
0000000000000000
0000000000000000
0000000000000000
0000000000000000
0000000000000000
0000000000000000
0000000000000000
000007FFFC000000
00003FFFFFC00000
0001FFFFFFF00000
0003FFFFFFFC0000
000FFFFFFFFE0000
001FFFFFFFFF8000
003FFFFFFFFFC000
007FFE0007FFE000
00FFF00000FFF000
01FFC000007FF000
03FF8000001FF800
07FF0000000FFC00
07FE00000007FC00
0FFC00000003FE00
0FF800000003FE00
1FF800000001FF00
1FF000000001FF00
1FF000000000FF80
3FE000000000FF80
3FE0000000007F80
3FC0000000007FC0
7FC0000000007FC0
7FC0000000003FC0
7FC0000000003FC0
7F80000000003FC0
7F80000000003FE0
7F80000000003FE0
7F80000000003FE0
7F80000000003FE0
FF80000000003FE0
FF80000000001FE0
FF80000000001FE0
FF80000000001FE0
FF80000000001FE0
FF80000000003FE0
7F80000000003FE0
7F80000000003FE0
7F80000000003FE0
7F80000000003FE0
7F80000000003FE0
7FC0000000003FC0
7FC0000000003FC0
7FC0000000007FC0
3FC0000000007FC0
3FE0000000007F80
3FE000000000FF80
1FE000000000FF80
1FF000000000FF00
1FF000000001FF00
0FF800000001FF00
0FFC00000003FE00
07FC00000007FE00
07FE0000000FFC00
03FF0000001FF800
01FF8000003FF800
01FFE000007FF000
00FFF80003FFE000
007FFF801FFFC000
003FFFFFFFFF8000
001FFFFFFFFF0000
0007FFFFFFFC0000
0001FFFFFFF80000
00007FFFFFE00000
00001FFFFF000000
000000FFE0000000
ENDCHAR
STARTCHAR 00D7
ENCODING 215
SWIDTH 562 0
DWIDTH 50 0
BBX 39 39 6 12
BITMAP
0800000020
1C00000070
3E000000F8
7F000001FC
FF800003FE
7FC00007FC
3FE0000FF8
1FF0001FF0
0FF8003FE0
07FC007FC0
03FE00FF80
01FF01FF00
00FF83FE00
007FC7FC00
003FEFF800
001FFFF000
000FFFE000
0007FFC000
0003FF8000
0001FF0000
0003FF8000
0007FFC000
000FFFE000
001FFFF000
003FFFF800
007FCFFC00
00FF83FE00
01FF01FF00
03FE00FF80
07FC007FC0
0FF8003FE0
1FF0001FF0
3FE0000FF8
7FC00007FC
FF800003FE
7F000001FC
3E000000F8
1C00000070
0800000020
ENDCHAR
STARTCHAR 00D8
ENCODING 216
SWIDTH 776 0
DWIDTH 69 0
BBX 59 68 5 -3
BITMAP
0000000000006000
000000000000F000
000007FFFC00FC00
00003FFFFF81FE00
0001FFFFFFF3FC00
0003FFFFFFFFFC00
000FFFFFFFFFF800
001FFFFFFFFFF000
003FFFFFFFFFE000
007FFE0007FFE000
00FFF00001FFE000
01FFC000007FF000
03FF8000007FF800
07FF000000FFFC00
07FE000001FFFC00
0FFC000001FFFE00
0FF8000003FFFE00
1FF8000007F9FF00
1FF0000007F1FF00
1FF000000FF0FF80
3FE000001FE0FF80
3FE000003FC07F80
3FC000003FC07FC0
7FC000007F807FC0
7FC00000FF003FC0
7FC00000FE003FC0
7F800001FE003FC0
7F800003FC003FE0
7F800003F8003FE0
7F800007F8003FE0
7F80000FF0003FE0
FF80001FE0003FE0
FF80001FE0001FE0
FF80003FC0001FE0
FF80007F80001FE0
FF80007F00001FE0
FF8000FF00003FE0
7F8001FE00003FE0
7F8003FC00003FE0
7F8003FC00003FE0
7F8007F800003FE0
7F800FF000003FE0
7FC00FF000003FC0
7FC01FE000003FC0
7FC03FC000007FC0
3FC07F8000007FC0
3FE07F8000007F80
3FE0FF000000FF80
1FE1FE000000FF80
1FF1FE000000FF00
1FF3FC000001FF00
0FFFF8000001FF00
0FFFF0000003FE00
07FFF0000007FE00
07FFE000000FFC00
03FFC000001FF800
01FFC000003FF800
01FFE000007FF000
00FFF80003FFE000
00FFFF801FFFC000
01FFFFFFFFFF8000
03FFFFFFFFFF0000
03FFFFFFFFFC0000
07F9FFFFFFF80000
0FF07FFFFFE00000
0FE01FFFFF000000
03E000FFE0000000
01C0000000000000
ENDCHAR
STARTCHAR 00D9
ENCODING 217
SWIDTH 720 0
DWIDTH 64 0
BBX 49 85 8 -1
BITMAP
0007FE00000000
0007FE00000000
0003FF00000000
0001FF00000000
0000FF80000000
00007F80000000
00007FC0000000
00003FE0000000
00001FE0000000
00000FF0000000
000007F8000000
000003FC000000
000001FC000000
0000007E000000
00000000000000
00000000000000
00000000000000
00000000000000
00000000000000
00000000000000
00000000000000
FF000000007F80
FF000000007F80
FF000000007F80
FF000000007F80
FF000000007F80
FF000000007F80
FF000000007F80
FF000000007F80
FF000000007F80
FF000000007F80
FF000000007F80
FF000000007F80
FF000000007F80
FF000000007F80
FF000000007F80
FF000000007F80
FF000000007F80
FF000000007F80
FF000000007F80
FF000000007F80
FF000000007F80
FF000000007F80
FF000000007F80
FF000000007F80
FF000000007F80
FF000000007F80
FF000000007F80
FF000000007F80
FF000000007F80
FF000000007F80
FF000000007F80
FF000000007F80
FF000000007F80
FF000000007F80
FF000000007F80
FF000000007F80
FF000000007F80
FF000000007F80
FF000000007F80
FF000000007F80
FF000000007F80
FF000000007F80
FF000000007F80
FF000000007F80
FF000000007F80
FF00000000FF00
7F80000000FF00
7F80000000FF00
7F80000001FF00
7FC0000001FE00
3FC0000003FE00
3FE0000003FE00
1FF0000007FC00
1FF800000FFC00
0FFC00001FF800
0FFF00007FF000
07FFF003FFE000
03FFFFFFFFE000
01FFFFFFFF8000
00FFFFFFFF0000
003FFFFFFE0000
000FFFFFF80000
0003FFFFC00000
00001FFC000000
ENDCHAR
STARTCHAR 00DA
ENCODING 218
SWIDTH 720 0
DWIDTH 64 0
BBX 49 85 8 -1
BITMAP
0000000FFC0000
0000001FF80000
0000001FF80000
0000003FF00000
0000003FE00000
0000007FC00000
000000FF800000
000000FF000000
000001FE000000
000001FC000000
000003F8000000
000007F0000000
00000FE0000000
00000FC0000000
00000000000000
00000000000000
00000000000000
00000000000000
00000000000000
00000000000000
00000000000000
FF000000007F80
FF000000007F80
FF000000007F80
FF000000007F80
FF000000007F80
FF000000007F80
FF000000007F80
FF000000007F80
FF000000007F80
FF000000007F80
FF000000007F80
FF000000007F80
FF000000007F80
FF000000007F80
FF000000007F80
FF000000007F80
FF000000007F80
FF000000007F80
FF000000007F80
FF000000007F80
FF000000007F80
FF000000007F80
FF000000007F80
FF000000007F80
FF000000007F80
FF000000007F80
FF000000007F80
FF000000007F80
FF000000007F80
FF000000007F80
FF000000007F80
FF000000007F80
FF000000007F80
FF000000007F80
FF000000007F80
FF000000007F80
FF000000007F80
FF000000007F80
FF000000007F80
FF000000007F80
FF000000007F80
FF000000007F80
FF000000007F80
FF000000007F80
FF000000007F80
FF00000000FF00
7F80000000FF00
7F80000000FF00
7F80000001FF00
7FC0000001FE00
3FC0000003FE00
3FE0000003FE00
1FF0000007FC00
1FF800000FFC00
0FFC00001FF800
0FFF00007FF000
07FFF003FFE000
03FFFFFFFFE000
01FFFFFFFF8000
00FFFFFFFF0000
003FFFFFFE0000
000FFFFFF80000
0003FFFFC00000
00001FFC000000
ENDCHAR
STARTCHAR 00DB
ENCODING 219
SWIDTH 720 0
DWIDTH 64 0
BBX 49 85 8 -1
BITMAP
00000FF8000000
00000FF8000000
00001FFC000000
00003FFE000000
00007FFF000000
0000FFFF000000
0000FF7F800000
0001FE3FC00000
0003FC1FE00000
0007F80FF00000
000FF007F80000
001FE003FC0000
003F8001FE0000
003F00007F0000
00000000000000
00000000000000
00000000000000
00000000000000
00000000000000
00000000000000
00000000000000
FF000000007F80
FF000000007F80
FF000000007F80
FF000000007F80
FF000000007F80
FF000000007F80
FF000000007F80
FF000000007F80
FF000000007F80
FF000000007F80
FF000000007F80
FF000000007F80
FF000000007F80
FF000000007F80
FF000000007F80
FF000000007F80
FF000000007F80
FF000000007F80
FF000000007F80
FF000000007F80
FF000000007F80
FF000000007F80
FF000000007F80
FF000000007F80
FF000000007F80
FF000000007F80
FF000000007F80
FF000000007F80
FF000000007F80
FF000000007F80
FF000000007F80
FF000000007F80
FF000000007F80
FF000000007F80
FF000000007F80
FF000000007F80
FF000000007F80
FF000000007F80
FF000000007F80
FF000000007F80
FF000000007F80
FF000000007F80
FF000000007F80
FF000000007F80
FF000000007F80
FF00000000FF00
7F80000000FF00
7F80000000FF00
7F80000001FF00
7FC0000001FE00
3FC0000003FE00
3FE0000003FE00
1FF0000007FC00
1FF800000FFC00
0FFC00001FF800
0FFF00007FF000
07FFF003FFE000
03FFFFFFFFE000
01FFFFFFFF8000
00FFFFFFFF0000
003FFFFFFE0000
000FFFFFF80000
0003FFFFC00000
00001FFC000000
ENDCHAR
STARTCHAR 00DC
ENCODING 220
SWIDTH 720 0
DWIDTH 64 0
BBX 49 82 8 -1
BITMAP
0001C001C00000
0007E003F00000
000FF007F80000
000FF007F80000
000FF007F80000
000FF007F80000
000FF007F80000
0007F003F00000
0003C001E00000
00000000000000
00000000000000
00000000000000
00000000000000
00000000000000
00000000000000
00000000000000
00000000000000
00000000000000
FF000000007F80
FF000000007F80
FF000000007F80
FF000000007F80
FF000000007F80
FF000000007F80
FF000000007F80
FF000000007F80
FF000000007F80
FF000000007F80
FF000000007F80
FF000000007F80
FF000000007F80
FF000000007F80
FF000000007F80
FF000000007F80
FF000000007F80
FF000000007F80
FF000000007F80
FF000000007F80
FF000000007F80
FF000000007F80
FF000000007F80
FF000000007F80
FF000000007F80
FF000000007F80
FF000000007F80
FF000000007F80
FF000000007F80
FF000000007F80
FF000000007F80
FF000000007F80
FF000000007F80
FF000000007F80
FF000000007F80
FF000000007F80
FF000000007F80
FF000000007F80
FF000000007F80
FF000000007F80
FF000000007F80
FF000000007F80
FF000000007F80
FF000000007F80
FF000000007F80
FF00000000FF00
7F80000000FF00
7F80000000FF00
7F80000001FF00
7FC0000001FE00
3FC0000003FE00
3FE0000003FE00
1FF0000007FC00
1FF800000FFC00
0FFC00001FF800
0FFF00007FF000
07FFF003FFE000
03FFFFFFFFE000
01FFFFFFFF8000
00FFFFFFFF0000
003FFFFFFE0000
000FFFFFF80000
0003FFFFC00000
00001FFC000000
ENDCHAR
STARTCHAR 00DD
ENCODING 221
SWIDTH 562 0
DWIDTH 50 0
BBX 50 84 0 0
BITMAP
00000007FC0000
0000000FFC0000
0000000FF80000
0000001FF00000
0000003FF00000
0000003FE00000
0000007FC00000
000000FF800000
000000FF000000
000001FE000000
000003FC000000
000003F8000000
000007F0000000
00000FE0000000
00000000000000
00000000000000
00000000000000
00000000000000
00000000000000
00000000000000
00000000000000
FF800000007FC0
7FC00000007F80
3FC0000000FF80
3FE0000000FF00
1FE0000001FF00
1FF0000001FE00
0FF0000003FE00
0FF8000007FC00
07F8000007F800
07FC00000FF800
03FE00000FF000
03FE00001FF000
01FF00001FE000
00FF00003FE000
00FF80003FC000
007F80007FC000
007FC0007F8000
003FC000FF8000
003FE000FF0000
001FE001FE0000
001FF001FE0000
000FF003FC0000
000FF803FC0000
0007F807F80000
0007FC0FF80000
0003FC0FF00000
0001FE1FF00000
0001FE1FE00000
0000FF3FE00000
0000FFBFC00000
00007FFF800000
00007FFF800000
00003FFF000000
00003FFF000000
00001FFE000000
00001FFE000000
00000FFC000000
00000FFC000000
000007F8000000
000007F8000000
000007F8000000
000007F8000000
000007F8000000
000007F8000000
000007F8000000
000007F8000000
000007F8000000
000007F8000000
000007F8000000
000007F8000000
000007F8000000
000007F8000000
000007F8000000
000007F8000000
000007F8000000
000007F8000000
000007F8000000
000007F8000000
000007F8000000
000007F8000000
000007F8000000
000007F8000000
000007F8000000
ENDCHAR
STARTCHAR 00DE
ENCODING 222
SWIDTH 596 0
DWIDTH 53 0
BBX 40 63 9 0
BITMAP
FF00000000
FF00000000
FF00000000
FF00000000
FF00000000
FF00000000
FF00000000
FF00000000
FF00000000
FF00000000
FF00000000
FFFFFFC000
FFFFFFFC00
FFFFFFFF00
FFFFFFFF80
FFFFFFFFE0
FFFFFFFFF0
FF003FFFF8
FF0000FFF8
FF00001FFC
FF00000FFC
FF000007FE
FF000003FE
FF000001FF
FF000001FF
FF000001FF
FF000000FF
FF000000FF
FF000000FF
FF000000FF
FF000000FF
FF000000FF
FF000000FF
FF000000FF
FF000001FF
FF000001FE
FF000003FE
FF000003FE
FF000007FC
FF00000FFC
FF00003FF8
FF0001FFF0
FFFFFFFFE0
FFFFFFFFC0
FFFFFFFF80
FFFFFFFF00
FFFFFFFC00
FFFFFFE000
FFFFFF0000
FF00000000
FF00000000
FF00000000
FF00000000
FF00000000
FF00000000
FF00000000
FF00000000
FF00000000
FF00000000
FF00000000
FF00000000
FF00000000
FF00000000
ENDCHAR
STARTCHAR 00DF
ENCODING 223
SWIDTH 630 0
DWIDTH 56 0
BBX 44 69 8 -1
BITMAP
0007FF800000
007FFFF80000
01FFFFFF0000
07FFFFFF8000
0FFFFFFFE000
1FFFFFFFF000
3FFFFFFFF800
3FF8003FF800
7FE0000FFC00
7FC00007FC00
FF800003FC00
FF000003FC00
FF000003FC00
FF000003FC00
FE000003FC00
FE000003FC00
FE000003FC00
FE000007FC00
FE000007F800
FE00000FF800
FE00001FF000
FE00007FE000
FE0000FFC000
FE0001FF8000
FE0003FF0000
FE0007FC0000
FE000FF80000
FE001FF00000
FE001FE00000
FE001FC00000
FE003FC00000
FE003FC00000
FE003FC00000
FE001FE00000
FE001FE00000
FE001FF00000
FE001FFC0000
FE000FFE0000
FE0007FF8000
FE0003FFC000
FE0001FFF000
FE0000FFF800
FE00007FFC00
FE00001FFE00
FE00000FFF00
FE000003FF80
FE000001FFC0
FE0000007FC0
FE0000003FE0
FE0000001FE0
FE0000001FF0
FE0000000FF0
FE0000000FF0
FE0000000FF0
FE0000000FF0
FE0000000FF0
FE0000000FF0
FE0000000FF0
FE0000000FF0
FE0100001FE0
FE01C0003FE0
FE01F8007FE0
FE01FFC7FFC0
FE01FFFFFF80
FE01FFFFFF80
FE01FFFFFE00
FE00FFFFFC00
FE003FFFF000
000003FF0000
ENDCHAR
STARTCHAR 00E0
ENCODING 224
SWIDTH 551 0
DWIDTH 49 0
BBX 39 69 4 -1
BITMAP
007FE00000
003FF00000
001FF00000
001FF80000
000FF80000
0007FC0000
0003FE0000
0001FE0000
0000FF0000
00007F8000
00003F8000
00001FC000
00000FE000
000007E000
0000000000
0000000000
0000000000
0000000000
0000000000
0000000000
0003FFF800
003FFFFF00
00FFFFFF80
03FFFFFFE0
03FFFFFFF0
03FFFFFFF0
03FF007FF8
01F8000FF8
01C00007FC
00000003FC
00000003FC
00000003FC
00000001FE
00000001FE
00000001FE
00000001FE
00000001FE
00000001FE
00000001FE
0000007FFE
0003FFFFFE
003FFFFFFE
00FFFFFFFE
03FFFFFFFE
07FFFFFFFE
0FFFC001FE
1FFC0001FE
3FF00001FE
7FE00001FE
7FC00001FE
7F800001FE
FF800001FE
FF000001FE
FF000003FE
FF000003FE
FF000003FE
FF000007FE
FF000007FE
FF80000FFE
7F80001FFE
7FC0007FFE
7FF001FEFE
3FFF3FFCFE
3FFFFFF8FE
1FFFFFF0FE
0FFFFFE0FE
03FFFF807E
00FFFF007E
001FF00000
ENDCHAR
STARTCHAR 00E1
ENCODING 225
SWIDTH 551 0
DWIDTH 49 0
BBX 39 69 4 -1
BITMAP
000000FFC0
000000FFC0
000001FF80
000001FF00
000003FE00
000007FC00
000007F800
00000FF800
00000FF000
00001FE000
00003FC000
00007F8000
00007E0000
0000FC0000
0000000000
0000000000
0000000000
0000000000
0000000000
0000000000
0003FFF800
003FFFFF00
00FFFFFF80
03FFFFFFE0
03FFFFFFF0
03FFFFFFF0
03FF007FF8
01F8000FF8
01C00007FC
00000003FC
00000003FC
00000003FC
00000001FE
00000001FE
00000001FE
00000001FE
00000001FE
00000001FE
00000001FE
0000007FFE
0003FFFFFE
003FFFFFFE
00FFFFFFFE
03FFFFFFFE
07FFFFFFFE
0FFFC001FE
1FFC0001FE
3FF00001FE
7FE00001FE
7FC00001FE
7F800001FE
FF800001FE
FF000001FE
FF000003FE
FF000003FE
FF000003FE
FF000007FE
FF000007FE
FF80000FFE
7F80001FFE
7FC0007FFE
7FF001FEFE
3FFF3FFCFE
3FFFFFF8FE
1FFFFFF0FE
0FFFFFE0FE
03FFFF807E
00FFFF007E
001FF00000
ENDCHAR
STARTCHAR 00E2
ENCODING 226
SWIDTH 551 0
DWIDTH 49 0
BBX 39 69 4 -1
BITMAP
00007F8000
0000FFC000
0001FFE000
0003FFE000
0003FFF000
0007FFF800
000FF7FC00
001FE3FE00
003FC1FF00
007F80FF00
00FF003F80
00FE001FC0
01FC000FE0
03F00007F0
0000000000
0000000000
0000000000
0000000000
0000000000
0000000000
0003FFF800
003FFFFF00
00FFFFFF80
03FFFFFFE0
03FFFFFFF0
03FFFFFFF0
03FF007FF8
01F8000FF8
01C00007FC
00000003FC
00000003FC
00000003FC
00000001FE
00000001FE
00000001FE
00000001FE
00000001FE
00000001FE
00000001FE
0000007FFE
0003FFFFFE
003FFFFFFE
00FFFFFFFE
03FFFFFFFE
07FFFFFFFE
0FFFC001FE
1FFC0001FE
3FF00001FE
7FE00001FE
7FC00001FE
7F800001FE
FF800001FE
FF000001FE
FF000003FE
FF000003FE
FF000003FE
FF000007FE
FF000007FE
FF80000FFE
7F80001FFE
7FC0007FFE
7FF001FEFE
3FFF3FFCFE
3FFFFFF8FE
1FFFFFF0FE
0FFFFFE0FE
03FFFF807E
00FFFF007E
001FF00000
ENDCHAR
STARTCHAR 00E3
ENCODING 227
SWIDTH 551 0
DWIDTH 49 0
BBX 39 66 4 -1
BITMAP
001FC00078
007FF000F8
00FFFC00F8
01FFFF01F8
01FFFFC3F0
03FFFFFFF0
03F07FFFE0
07E01FFFE0
07C00FFFC0
07C003FF80
078000FE00
0000000000
0000000000
0000000000
0000000000
0000000000
0000000000
0003FFF800
003FFFFF00
00FFFFFF80
03FFFFFFE0
03FFFFFFF0
03FFFFFFF0
03FF007FF8
01F8000FF8
01C00007FC
00000003FC
00000003FC
00000003FC
00000001FE
00000001FE
00000001FE
00000001FE
00000001FE
00000001FE
00000001FE
0000007FFE
0003FFFFFE
003FFFFFFE
00FFFFFFFE
03FFFFFFFE
07FFFFFFFE
0FFFC001FE
1FFC0001FE
3FF00001FE
7FE00001FE
7FC00001FE
7F800001FE
FF800001FE
FF000001FE
FF000003FE
FF000003FE
FF000003FE
FF000007FE
FF000007FE
FF80000FFE
7F80001FFE
7FC0007FFE
7FF001FEFE
3FFF3FFCFE
3FFFFFF8FE
1FFFFFF0FE
0FFFFFE0FE
03FFFF807E
00FFFF007E
001FF00000
ENDCHAR
STARTCHAR 00E4
ENCODING 228
SWIDTH 551 0
DWIDTH 49 0
BBX 39 66 4 -1
BITMAP
001E001E00
007F003F80
007F803F80
007F807F80
007F807FC0
007F807F80
007F803F80
007F003F80
001E001E00
0000000000
0000000000
0000000000
0000000000
0000000000
0000000000
0000000000
0000000000
0003FFF800
003FFFFF00
00FFFFFF80
03FFFFFFE0
03FFFFFFF0
03FFFFFFF0
03FF007FF8
01F8000FF8
01C00007FC
00000003FC
00000003FC
00000003FC
00000001FE
00000001FE
00000001FE
00000001FE
00000001FE
00000001FE
00000001FE
0000007FFE
0003FFFFFE
003FFFFFFE
00FFFFFFFE
03FFFFFFFE
07FFFFFFFE
0FFFC001FE
1FFC0001FE
3FF00001FE
7FE00001FE
7FC00001FE
7F800001FE
FF800001FE
FF000001FE
FF000003FE
FF000003FE
FF000003FE
FF000007FE
FF000007FE
FF80000FFE
7F80001FFE
7FC0007FFE
7FF001FEFE
3FFF3FFCFE
3FFFFFF8FE
1FFFFFF0FE
0FFFFFE0FE
03FFFF807E
00FFFF007E
001FF00000
ENDCHAR
STARTCHAR 00E5
ENCODING 229
SWIDTH 551 0
DWIDTH 49 0
BBX 39 74 4 -1
BITMAP
00001E0000
0000FFC000
0003FFF000
0007FFF800
000FFFF800
000FC0FC00
000F807C00
001F007E00
001F003E00
001F003E00
001F003E00
001F003E00
001F807C00
000F80FC00
000FF3FC00
0007FFF800
0003FFF000
0001FFE000
00007F8000
0000000000
0000000000
0000000000
0000000000
0000000000
0000000000
0003FFF800
003FFFFF00
00FFFFFF80
03FFFFFFE0
03FFFFFFF0
03FFFFFFF0
03FF007FF8
01F8000FF8
01C00007FC
00000003FC
00000003FC
00000003FC
00000001FE
00000001FE
00000001FE
00000001FE
00000001FE
00000001FE
00000001FE
0000007FFE
0003FFFFFE
003FFFFFFE
00FFFFFFFE
03FFFFFFFE
07FFFFFFFE
0FFFC001FE
1FFC0001FE
3FF00001FE
7FE00001FE
7FC00001FE
7F800001FE
FF800001FE
FF000001FE
FF000003FE
FF000003FE
FF000003FE
FF000007FE
FF000007FE
FF80000FFE
7F80001FFE
7FC0007FFE
7FF001FEFE
3FFF3FFCFE
3FFFFFF8FE
1FFFFFF0FE
0FFFFFE0FE
03FFFF807E
00FFFF007E
001FF00000
ENDCHAR
STARTCHAR 00E6
ENCODING 230
SWIDTH 855 0
DWIDTH 76 0
BBX 68 50 4 -1
BITMAP
000000000000400000
000FFFE0001FFF0000
007FFFFC007FFFC000
03FFFFFE01FFFFF000
0FFFFFFF03FFFFF800
0FFFFFFF87FFFFFC00
07FFFFFFCFFFFFFE00
07FE00FFFFFC07FF00
03E0003FFFF001FF80
0380001FFFC0007F80
0200000FFF80007FC0
00000007FF80003FC0
00000007FF00001FE0
00000007FE00001FE0
00000003FE00001FE0
00000003FE00001FF0
00000003FC00000FF0
00000003FC00000FF0
00000003FC00000FF0
00000003FC00000FF0
000001FFFFFFFFFFF0
0007FFFFFFFFFFFFF0
003FFFFFFFFFFFFFF0
00FFFFFFFFFFFFFFF0
03FFFFFFFFFFFFFFF0
0FFFFFFFFFFFFFFFF0
1FFFC003FFFFFFFFF0
1FFC0003FC00000000
3FF00003FC00000000
7FE00003FC00000000
7FC00003FC00000000
7F800003FC00000000
FF800007FC00000000
FF000007FE00000000
FF000007FE00000000
FF000007FE00000000
FF00000FFF00000000
FF00000FFF00000000
FF00001FFF80000000
FF80001FFFC0000000
7F80003FBFE0000040
7FC000FF3FF00003C0
7FF003FE1FFE001FC0
3FFF7FFC0FFFFFFFC0
3FFFFFF807FFFFFFC0
1FFFFFF003FFFFFFC0
0FFFFFE001FFFFFFC0
03FFFFC0007FFFFF00
00FFFF00001FFFFC00
001FF0000001FF8000
ENDCHAR
STARTCHAR 00E7
ENCODING 231
SWIDTH 472 0
DWIDTH 42 0
BBX 35 70 5 -21
BITMAP
0000030000
0001FFFC00
000FFFFF80
003FFFFFE0
00FFFFFFC0
01FFFFFFC0
03FFFFFF80
07FFF0FF80
0FFF000780
0FFC000000
1FF8000000
1FF0000000
3FE0000000
3FC0000000
7FC0000000
7F80000000
7F80000000
7F80000000
FF80000000
FF00000000
FF00000000
FF00000000
FF00000000
FF00000000
FF00000000
FF00000000
FF00000000
FF00000000
FF00000000
FF00000000
FF00000000
FF00000000
FF80000000
7F80000000
7F80000000
7FC0000000
7FC0000000
3FE0000000
3FE0000000
1FF0000000
1FF8000000
0FFE0001C0
07FF800FC0
03FFFFFFC0
03FFFFFFC0
00FFFFFFC0
007FFFFFC0
001FFFFFC0
0007FFFE00
00007FE000
00003E0000
00007C0000
00007C0000
0000F80000
0000FF0000
0001FFC000
0001FFE000
00003FF000
000007F000
000003F800
000003F800
000001F800
000001F800
000003F800
000007F000
001FFFF000
001FFFE000
001FFFC000
001FFF8000
001FFE0000
ENDCHAR
STARTCHAR 00E8
ENCODING 232
SWIDTH 562 0
DWIDTH 50 0
BBX 41 69 5 -1
BITMAP
007FC0000000
007FE0000000
003FE0000000
001FF0000000
000FF8000000
000FF8000000
0007FC000000
0003FE000000
0001FE000000
0000FF000000
00007F800000
00003F800000
00001FC00000
000007E00000
000000000000
000000000000
000000000000
000000000000
000000000000
00000C000000
0003FFF00000
000FFFFC0000
003FFFFF0000
00FFFFFF8000
01FFFFFFE000
03FFFFFFF000
07FF807FF000
07FC001FF800
0FF80007FC00
1FF00007FC00
1FE00003FE00
3FE00001FE00
3FC00001FE00
3FC00001FF00
7F800000FF00
7F800000FF00
7F800000FF00
FF000000FF00
FF000000FF00
FFFFFFFFFF80
FFFFFFFFFF80
FFFFFFFFFF80
FFFFFFFFFF80
FFFFFFFFFF80
FFFFFFFFFF80
FFFFFFFFFF80
FF0000000000
FF0000000000
FF0000000000
FF0000000000
FF0000000000
7F8000000000
7F8000000000
7F8000000000
7FC000000000
3FC000000000
3FE000000000
1FF000000000
1FF800000000
0FFC00000400
0FFE00003C00
07FFC001FC00
03FFFFFFFC00
01FFFFFFFC00
00FFFFFFFC00
003FFFFFFC00
000FFFFFF800
0003FFFFC000
00003FF80000
ENDCHAR
STARTCHAR 00E9
ENCODING 233
SWIDTH 562 0
DWIDTH 50 0
BBX 41 69 5 -1
BITMAP
000000FF8000
000001FF8000
000001FF0000
000003FE0000
000007FE0000
000007FC0000
00000FF80000
00000FF00000
00001FE00000
00003FC00000
00007F800000
00007F000000
0000FE000000
0000FC000000
000000000000
000000000000
000000000000
000000000000
000000000000
00000C000000
0003FFF00000
000FFFFC0000
003FFFFF0000
00FFFFFF8000
01FFFFFFE000
03FFFFFFF000
07FF807FF000
07FC001FF800
0FF80007FC00
1FF00007FC00
1FE00003FE00
3FE00001FE00
3FC00001FE00
3FC00001FF00
7F800000FF00
7F800000FF00
7F800000FF00
FF000000FF00
FF000000FF00
FFFFFFFFFF80
FFFFFFFFFF80
FFFFFFFFFF80
FFFFFFFFFF80
FFFFFFFFFF80
FFFFFFFFFF80
FFFFFFFFFF80
FF0000000000
FF0000000000
FF0000000000
FF0000000000
FF0000000000
7F8000000000
7F8000000000
7F8000000000
7FC000000000
3FC000000000
3FE000000000
1FF000000000
1FF800000000
0FFC00000400
0FFE00003C00
07FFC001FC00
03FFFFFFFC00
01FFFFFFFC00
00FFFFFFFC00
003FFFFFFC00
000FFFFFF800
0003FFFFC000
00003FF80000
ENDCHAR
STARTCHAR 00EA
ENCODING 234
SWIDTH 562 0
DWIDTH 50 0
BBX 41 69 5 -1
BITMAP
0000FF800000
0001FF800000
0003FFC00000
0003FFE00000
0007FFE00000
000FFFF00000
001FF7F80000
003FE3FC0000
003FC1FE0000
007F80FF0000
00FE007F8000
01FC003FC000
03F8001FE000
07F00007E000
000000000000
000000000000
000000000000
000000000000
000000000000
00000C000000
0003FFF00000
000FFFFC0000
003FFFFF0000
00FFFFFF8000
01FFFFFFE000
03FFFFFFF000
07FF807FF000
07FC001FF800
0FF80007FC00
1FF00007FC00
1FE00003FE00
3FE00001FE00
3FC00001FE00
3FC00001FF00
7F800000FF00
7F800000FF00
7F800000FF00
FF000000FF00
FF000000FF00
FFFFFFFFFF80
FFFFFFFFFF80
FFFFFFFFFF80
FFFFFFFFFF80
FFFFFFFFFF80
FFFFFFFFFF80
FFFFFFFFFF80
FF0000000000
FF0000000000
FF0000000000
FF0000000000
FF0000000000
7F8000000000
7F8000000000
7F8000000000
7FC000000000
3FC000000000
3FE000000000
1FF000000000
1FF800000000
0FFC00000400
0FFE00003C00
07FFC001FC00
03FFFFFFFC00
01FFFFFFFC00
00FFFFFFFC00
003FFFFFFC00
000FFFFFF800
0003FFFFC000
00003FF80000
ENDCHAR
STARTCHAR 00EB
ENCODING 235
SWIDTH 562 0
DWIDTH 50 0
BBX 41 66 5 -1
BITMAP
003C001E0000
007E007F0000
00FF007F8000
00FF007F8000
00FF007F8000
00FF007F8000
00FF007F8000
007E007F0000
003C001E0000
000000000000
000000000000
000000000000
000000000000
000000000000
000000000000
000000000000
00000C000000
0003FFF00000
000FFFFC0000
003FFFFF0000
00FFFFFF8000
01FFFFFFE000
03FFFFFFF000
07FF807FF000
07FC001FF800
0FF80007FC00
1FF00007FC00
1FE00003FE00
3FE00001FE00
3FC00001FE00
3FC00001FF00
7F800000FF00
7F800000FF00
7F800000FF00
FF000000FF00
FF000000FF00
FFFFFFFFFF80
FFFFFFFFFF80
FFFFFFFFFF80
FFFFFFFFFF80
FFFFFFFFFF80
FFFFFFFFFF80
FFFFFFFFFF80
FF0000000000
FF0000000000
FF0000000000
FF0000000000
FF0000000000
7F8000000000
7F8000000000
7F8000000000
7FC000000000
3FC000000000
3FE000000000
1FF000000000
1FF800000000
0FFC00000400
0FFE00003C00
07FFC001FC00
03FFFFFFFC00
01FFFFFFFC00
00FFFFFFFC00
003FFFFFFC00
000FFFFFF800
0003FFFFC000
00003FF80000
ENDCHAR
STARTCHAR 00EC
ENCODING 236
SWIDTH 247 0
DWIDTH 22 0
BBX 18 68 0 0
BITMAP
FFC000
FFC000
7FE000
3FE000
1FF000
0FF000
07F800
07FC00
03FC00
01FE00
00FF00
007F80
001F80
000FC0
000000
000000
000000
000000
000000
000000
00FE00
00FE00
00FE00
00FE00
00FE00
00FE00
00FE00
00FE00
00FE00
00FE00
00FE00
00FE00
00FE00
00FE00
00FE00
00FE00
00FE00
00FE00
00FE00
00FE00
00FE00
00FE00
00FE00
00FE00
00FE00
00FE00
00FE00
00FE00
00FE00
00FE00
00FE00
00FE00
00FE00
00FE00
00FE00
00FE00
00FE00
00FE00
00FE00
00FE00
00FE00
00FE00
00FE00
00FE00
00FE00
00FE00
00FE00
00FE00
ENDCHAR
STARTCHAR 00ED
ENCODING 237
SWIDTH 247 0
DWIDTH 22 0
BBX 18 68 7 0
BITMAP
00FFC0
01FF80
01FF00
03FF00
03FE00
07FC00
0FF800
0FF000
1FE000
3FC000
3F8000
7F0000
FE0000
FC0000
000000
000000
000000
000000
000000
000000
7F0000
7F0000
7F0000
7F0000
7F0000
7F0000
7F0000
7F0000
7F0000
7F0000
7F0000
7F0000
7F0000
7F0000
7F0000
7F0000
7F0000
7F0000
7F0000
7F0000
7F0000
7F0000
7F0000
7F0000
7F0000
7F0000
7F0000
7F0000
7F0000
7F0000
7F0000
7F0000
7F0000
7F0000
7F0000
7F0000
7F0000
7F0000
7F0000
7F0000
7F0000
7F0000
7F0000
7F0000
7F0000
7F0000
7F0000
7F0000
ENDCHAR
STARTCHAR 00EE
ENCODING 238
SWIDTH 247 0
DWIDTH 22 0
BBX 30 68 -4 0
BITMAP
001FF000
003FF000
003FF800
007FFC00
00FFFE00
01FFFE00
03FEFF00
03FC7F80
07F83FC0
0FF01FE0
1FE00FF0
3F8007F8
7F0001FC
FE0000FC
00000000
00000000
00000000
00000000
00000000
00000000
000FE000
000FE000
000FE000
000FE000
000FE000
000FE000
000FE000
000FE000
000FE000
000FE000
000FE000
000FE000
000FE000
000FE000
000FE000
000FE000
000FE000
000FE000
000FE000
000FE000
000FE000
000FE000
000FE000
000FE000
000FE000
000FE000
000FE000
000FE000
000FE000
000FE000
000FE000
000FE000
000FE000
000FE000
000FE000
000FE000
000FE000
000FE000
000FE000
000FE000
000FE000
000FE000
000FE000
000FE000
000FE000
000FE000
000FE000
000FE000
ENDCHAR
STARTCHAR 00EF
ENCODING 239
SWIDTH 247 0
DWIDTH 22 0
BBX 25 65 -1 0
BITMAP
3C001E00
7E003F00
FF007F80
FF007F80
FF007F80
FF007F80
FF007F80
7E003F00
3C001E00
00000000
00000000
00000000
00000000
00000000
00000000
00000000
00000000
007F0000
007F0000
007F0000
007F0000
007F0000
007F0000
007F0000
007F0000
007F0000
007F0000
007F0000
007F0000
007F0000
007F0000
007F0000
007F0000
007F0000
007F0000
007F0000
007F0000
007F0000
007F0000
007F0000
007F0000
007F0000
007F0000
007F0000
007F0000
007F0000
007F0000
007F0000
007F0000
007F0000
007F0000
007F0000
007F0000
007F0000
007F0000
007F0000
007F0000
007F0000
007F0000
007F0000
007F0000
007F0000
007F0000
007F0000
007F0000
ENDCHAR
STARTCHAR 00F0
ENCODING 240
SWIDTH 596 0
DWIDTH 53 0
BBX 44 69 5 -1
BITMAP
000200001000
000780003000
0007E000F800
000FF803FC00
001FFE07FC00
001FFF1FFE00
0007FFFFF800
0001FFFFE000
00007FFF8000
00003FFF0000
00003FFC0000
0000FFFE0000
0001FFFF0000
0007FFFF8000
001FFE7FC000
007FF83FE000
003FF01FF000
003FC01FF000
001F000FF800
000C0007FC00
00080003FC00
00000001FE00
00000001FE00
00000000FF00
00000000FF00
000000007F80
0001FFC07F80
000FFFFC3F80
003FFFFF3FC0
00FFFFFF9FC0
01FFFFFFDFC0
03FFFFFFFFE0
07FFE07FFFE0
0FFE0007FFE0
1FF80001FFE0
1FF00000FFE0
3FE000007FF0
3FC000003FF0
7FC000003FF0
7F8000001FF0
7F8000001FF0
FF0000001FF0
FF0000000FF0
FF0000000FF0
FF0000000FF0
FF0000000FF0
FF0000000FF0
FF0000000FF0
FF0000000FF0
FF0000000FF0
FF0000000FE0
FF0000000FE0
FF0000001FE0
7F8000001FE0
7F8000001FE0
7F8000003FC0
3FC000003FC0
3FE000007F80
3FE00000FF80
1FF00001FF00
0FFC0003FF00
07FF000FFE00
07FFFFFFFC00
03FFFFFFF800
00FFFFFFF000
007FFFFFC000
001FFFFF8000
0007FFFE0000
00007FC00000
ENDCHAR
STARTCHAR 00F1
ENCODING 241
SWIDTH 607 0
DWIDTH 54 0
BBX 40 65 8 0
BITMAP
007F8001F0
00FFE001F0
01FFF803E0
03FFFC03E0
07FFFF8FE0
07FFFFFFC0
0FC1FFFFC0
0F807FFF80
0F801FFF00
1F0007FE00
1F0001F800
0000000000
0000000000
0000000000
0000000000
0000000000
0000070000
FC00FFFC00
FC07FFFF00
FC0FFFFFC0
FC3FFFFFE0
FE7FFFFFF0
FEFFFFFFF8
FEFF807FFC
FFFC000FFC
FFF00007FC
FFE00003FE
FFC00003FE
FFC00001FE
FF800001FE
FF800000FF
FF800000FF
FF000000FF
FF000000FF
FF000000FF
FF000000FF
FF000000FF
FE000000FF
FE000000FF
FE000000FF
FE000000FF
FE000000FF
FE000000FF
FE000000FF
FE000000FF
FE000000FF
FE000000FF
FE000000FF
FE000000FF
FE000000FF
FE000000FF
FE000000FF
FE000000FF
FE000000FF
FE000000FF
FE000000FF
FE000000FF
FE000000FF
FE000000FF
FE000000FF
FE000000FF
FE000000FF
FE000000FF
FE000000FF
FE000000FF
ENDCHAR
STARTCHAR 00F2
ENCODING 242
SWIDTH 596 0
DWIDTH 53 0
BBX 44 69 5 -1
BITMAP
003FF0000000
001FF8000000
000FF8000000
000FFC000000
0007FC000000
0003FE000000
0001FF000000
0000FF000000
00007F800000
00003FC00000
00001FC00000
00000FE00000
000007F00000
000003F00000
000000000000
000000000000
000000000000
000000000000
000000000000
000003000000
0001FFF80000
000FFFFF0000
003FFFFFC000
00FFFFFFE000
01FFFFFFF000
03FFFFFFF800
07FFC03FFC00
0FFE0007FE00
0FFC0003FF00
1FF00001FF00
1FF00000FF80
3FE000007FC0
3FC000007FC0
7FC000003FC0
7F8000003FE0
7F8000001FE0
7F8000001FE0
FF8000001FE0
FF0000001FF0
FF0000000FF0
FF0000000FF0
FF0000000FF0
FF0000000FF0
FF0000000FF0
FF0000000FF0
FF0000000FF0
FF0000000FF0
FF0000000FF0
FF0000000FF0
FF0000001FF0
FF8000001FE0
7F8000001FE0
7F8000001FE0
7F8000003FE0
7FC000003FE0
3FC000003FC0
3FE000007FC0
1FE00000FF80
1FF00000FF80
0FF80001FF00
0FFC0007FF00
07FF001FFE00
03FFFFFFFC00
01FFFFFFF800
00FFFFFFF000
003FFFFFC000
001FFFFF8000
0003FFFC0000
00007FC00000
ENDCHAR
STARTCHAR 00F3
ENCODING 243
SWIDTH 596 0
DWIDTH 53 0
BBX 44 69 5 -1
BITMAP
0000007FE000
0000007FE000
000000FFC000
000000FF8000
000001FF0000
000003FE0000
000003FC0000
000007F80000
00000FF80000
00000FF00000
00001FE00000
00003FC00000
00003F000000
00007E000000
000000000000
000000000000
000000000000
000000000000
000000000000
000003000000
0001FFF80000
000FFFFF0000
003FFFFFC000
00FFFFFFE000
01FFFFFFF000
03FFFFFFF800
07FFC03FFC00
0FFE0007FE00
0FFC0003FF00
1FF00001FF00
1FF00000FF80
3FE000007FC0
3FC000007FC0
7FC000003FC0
7F8000003FE0
7F8000001FE0
7F8000001FE0
FF8000001FE0
FF0000001FF0
FF0000000FF0
FF0000000FF0
FF0000000FF0
FF0000000FF0
FF0000000FF0
FF0000000FF0
FF0000000FF0
FF0000000FF0
FF0000000FF0
FF0000000FF0
FF0000001FF0
FF8000001FE0
7F8000001FE0
7F8000001FE0
7F8000003FE0
7FC000003FE0
3FC000003FC0
3FE000007FC0
1FE00000FF80
1FF00000FF80
0FF80001FF00
0FFC0007FF00
07FF001FFE00
03FFFFFFFC00
01FFFFFFF800
00FFFFFFF000
003FFFFFC000
001FFFFF8000
0003FFFC0000
00007FC00000
ENDCHAR
STARTCHAR 00F4
ENCODING 244
SWIDTH 596 0
DWIDTH 53 0
BBX 44 69 5 -1
BITMAP
00007FC00000
00007FE00000
0000FFF00000
0001FFF00000
0001FFF80000
0003FFFC0000
0007FBFE0000
000FF1FF0000
001FE0FF8000
003FC07F8000
007F803FC000
00FF000FE000
00FE0007F000
01F80003F800
000000000000
000000000000
000000000000
000000000000
000000000000
000003000000
0001FFF80000
000FFFFF0000
003FFFFFC000
00FFFFFFE000
01FFFFFFF000
03FFFFFFF800
07FFC03FFC00
0FFE0007FE00
0FFC0003FF00
1FF00001FF00
1FF00000FF80
3FE000007FC0
3FC000007FC0
7FC000003FC0
7F8000003FE0
7F8000001FE0
7F8000001FE0
FF8000001FE0
FF0000001FF0
FF0000000FF0
FF0000000FF0
FF0000000FF0
FF0000000FF0
FF0000000FF0
FF0000000FF0
FF0000000FF0
FF0000000FF0
FF0000000FF0
FF0000000FF0
FF0000001FF0
FF8000001FE0
7F8000001FE0
7F8000001FE0
7F8000003FE0
7FC000003FE0
3FC000003FC0
3FE000007FC0
1FE00000FF80
1FF00000FF80
0FF80001FF00
0FFC0007FF00
07FF001FFE00
03FFFFFFFC00
01FFFFFFF800
00FFFFFFF000
003FFFFFC000
001FFFFF8000
0003FFFC0000
00007FC00000
ENDCHAR
STARTCHAR 00F5
ENCODING 245
SWIDTH 596 0
DWIDTH 53 0
BBX 44 66 5 -1
BITMAP
000FE0003C00
003FF8007C00
007FFE007C00
00FFFF80FC00
00FFFFE1F800
01FFFFFFF800
01F83FFFF000
03F00FFFF000
03E007FFE000
03E001FFC000
03C0007F0000
000000000000
000000000000
000000000000
000000000000
000000000000
000003000000
0001FFF80000
000FFFFF0000
003FFFFFC000
00FFFFFFE000
01FFFFFFF000
03FFFFFFF800
07FFC03FFC00
0FFE0007FE00
0FFC0003FF00
1FF00001FF00
1FF00000FF80
3FE000007FC0
3FC000007FC0
7FC000003FC0
7F8000003FE0
7F8000001FE0
7F8000001FE0
FF8000001FE0
FF0000001FF0
FF0000000FF0
FF0000000FF0
FF0000000FF0
FF0000000FF0
FF0000000FF0
FF0000000FF0
FF0000000FF0
FF0000000FF0
FF0000000FF0
FF0000000FF0
FF0000001FF0
FF8000001FE0
7F8000001FE0
7F8000001FE0
7F8000003FE0
7FC000003FE0
3FC000003FC0
3FE000007FC0
1FE00000FF80
1FF00000FF80
0FF80001FF00
0FFC0007FF00
07FF001FFE00
03FFFFFFFC00
01FFFFFFF800
00FFFFFFF000
003FFFFFC000
001FFFFF8000
0003FFFC0000
00007FC00000
ENDCHAR
STARTCHAR 00F6
ENCODING 246
SWIDTH 596 0
DWIDTH 53 0
BBX 44 66 5 -1
BITMAP
000F000F0000
003F801FC000
003FC03FC000
003FC03FC000
007FC03FC000
003FC03FC000
003FC01FC000
003F801FC000
000E000F0000
000000000000
000000000000
000000000000
000000000000
000000000000
000000000000
000000000000
000003000000
0001FFF80000
000FFFFF0000
003FFFFFC000
00FFFFFFE000
01FFFFFFF000
03FFFFFFF800
07FFC03FFC00
0FFE0007FE00
0FFC0003FF00
1FF00001FF00
1FF00000FF80
3FE000007FC0
3FC000007FC0
7FC000003FC0
7F8000003FE0
7F8000001FE0
7F8000001FE0
FF8000001FE0
FF0000001FF0
FF0000000FF0
FF0000000FF0
FF0000000FF0
FF0000000FF0
FF0000000FF0
FF0000000FF0
FF0000000FF0
FF0000000FF0
FF0000000FF0
FF0000000FF0
FF0000001FF0
FF8000001FE0
7F8000001FE0
7F8000001FE0
7F8000003FE0
7FC000003FE0
3FC000003FC0
3FE000007FC0
1FE00000FF80
1FF00000FF80
0FF80001FF00
0FFC0007FF00
07FF001FFE00
03FFFFFFFC00
01FFFFFFF800
00FFFFFFF000
003FFFFFC000
001FFFFF8000
0003FFFC0000
00007FC00000
ENDCHAR
STARTCHAR 00F7
ENCODING 247
SWIDTH 562 0
DWIDTH 50 0
BBX 42 41 4 11
BITMAP
00001E000000
00003F800000
00007FC00000
00007FC00000
0000FFC00000
0000FFC00000
0000FFC00000
00007FC00000
00007FC00000
00003F800000
00001F000000
000000000000
000000000000
000000000000
000000000000
000000000000
000000000000
000000000000
FFFFFFFFFFC0
FFFFFFFFFFC0
FFFFFFFFFFC0
FFFFFFFFFFC0
FFFFFFFFFFC0
FFFFFFFFFFC0
000000000000
000000000000
000000000000
000000000000
000000000000
000000000000
000000000000
00003F800000
00007F800000
00007FC00000
0000FFC00000
0000FFC00000
0000FFC00000
0000FFC00000
00007FC00000
00007F800000
00001F000000
ENDCHAR
STARTCHAR 00F8
ENCODING 248
SWIDTH 596 0
DWIDTH 53 0
BBX 44 53 5 -3
BITMAP
000000000400
000002000F00
0001FFF81FC0
000FFFFF3FC0
003FFFFFBF80
00FFFFFFFF80
01FFFFFFFF00
03FFFFFFFE00
07FFC03FFE00
0FFE000FFE00
0FFC0007FF00
1FF00007FF00
1FF0000FFF80
3FE0001FFF80
3FC0001FFFC0
7FC0003FFFC0
7F80007FBFE0
7F8000FF1FE0
7F8000FE1FE0
FF8001FE1FE0
FF0003FC1FF0
FF0003F80FF0
FF0007F80FF0
FF000FF00FF0
FF001FE00FF0
FF001FC00FF0
FF003FC00FF0
FF007F800FF0
FF007F000FF0
FF00FF000FF0
FF01FE000FF0
FF03FC001FF0
FF03F8001FE0
7F87F8001FE0
7F8FF0001FE0
7F8FE0003FE0
7FDFE0003FE0
3FFFC0003FC0
3FFF80007FC0
1FFF0000FF80
1FFF0000FF80
0FFE0001FF00
0FFE0007FF00
07FF801FFE00
07FFFFFFFC00
0FFFFFFFF800
0FFFFFFFF000
1FFFFFFFC000
3FDFFFFF8000
3F87FFFC0000
1F007FC00000
070000000000
020000000000
ENDCHAR
STARTCHAR 00F9
ENCODING 249
SWIDTH 607 0
DWIDTH 54 0
BBX 40 69 7 -1
BITMAP
007FE00000
007FE00000
003FF00000
001FF00000
000FF80000
0007F80000
0003FC0000
0003FE0000
0001FE0000
0000FF0000
00007F8000
00003FC000
00000FC000
000007E000
0000000000
0000000000
0000000000
0000000000
0000000000
0000000000
FF0000007F
FF0000007F
FF0000007F
FF0000007F
FF0000007F
FF0000007F
FF0000007F
FF0000007F
FF0000007F
FF0000007F
FF0000007F
FF0000007F
FF0000007F
FF0000007F
FF0000007F
FF0000007F
FF0000007F
FF0000007F
FF0000007F
FF0000007F
FF0000007F
FF0000007F
FF0000007F
FF0000007F
FF0000007F
FF0000007F
FF0000007F
FF000000FF
FF000000FF
FF000000FF
FF000000FF
FF000000FF
FF000000FF
FF000000FF
FF000001FF
FF000001FF
FF800003FF
7F800003FF
7FC00007FF
7FE0000FFF
7FF0001FFF
3FF8007FFF
1FFFFFFF7F
1FFFFFFE7F
0FFFFFFC7F
07FFFFF83F
01FFFFE03F
007FFF803F
0007F80000
ENDCHAR
STARTCHAR 00FA
ENCODING 250
SWIDTH 607 0
DWIDTH 54 0
BBX 40 69 7 -1
BITMAP
000000FFC0
000001FF80
000001FF00
000003FF00
000003FE00
000007FC00
00000FF800
00000FF000
00001FE000
00003FC000
00003F8000
00007F0000
0000FE0000
0000FC0000
0000000000
0000000000
0000000000
0000000000
0000000000
0000000000
FF0000007F
FF0000007F
FF0000007F
FF0000007F
FF0000007F
FF0000007F
FF0000007F
FF0000007F
FF0000007F
FF0000007F
FF0000007F
FF0000007F
FF0000007F
FF0000007F
FF0000007F
FF0000007F
FF0000007F
FF0000007F
FF0000007F
FF0000007F
FF0000007F
FF0000007F
FF0000007F
FF0000007F
FF0000007F
FF0000007F
FF0000007F
FF000000FF
FF000000FF
FF000000FF
FF000000FF
FF000000FF
FF000000FF
FF000000FF
FF000001FF
FF000001FF
FF800003FF
7F800003FF
7FC00007FF
7FE0000FFF
7FF0001FFF
3FF8007FFF
1FFFFFFF7F
1FFFFFFE7F
0FFFFFFC7F
07FFFFF83F
01FFFFE03F
007FFF803F
0007F80000
ENDCHAR
STARTCHAR 00FB
ENCODING 251
SWIDTH 607 0
DWIDTH 54 0
BBX 40 69 7 -1
BITMAP
0000FF8000
0001FF8000
0001FFC000
0003FFE000
0007FFF000
000FFFF000
001FF7F800
001FE3FC00
003FC1FE00
007F80FF00
00FF007F80
01FC003FC0
03F8000FE0
07F00007E0
0000000000
0000000000
0000000000
0000000000
0000000000
0000000000
FF0000007F
FF0000007F
FF0000007F
FF0000007F
FF0000007F
FF0000007F
FF0000007F
FF0000007F
FF0000007F
FF0000007F
FF0000007F
FF0000007F
FF0000007F
FF0000007F
FF0000007F
FF0000007F
FF0000007F
FF0000007F
FF0000007F
FF0000007F
FF0000007F
FF0000007F
FF0000007F
FF0000007F
FF0000007F
FF0000007F
FF0000007F
FF000000FF
FF000000FF
FF000000FF
FF000000FF
FF000000FF
FF000000FF
FF000000FF
FF000001FF
FF000001FF
FF800003FF
7F800003FF
7FC00007FF
7FE0000FFF
7FF0001FFF
3FF8007FFF
1FFFFFFF7F
1FFFFFFE7F
0FFFFFFC7F
07FFFFF83F
01FFFFE03F
007FFF803F
0007F80000
ENDCHAR
STARTCHAR 00FC
ENCODING 252
SWIDTH 607 0
DWIDTH 54 0
BBX 40 66 7 -1
BITMAP
003C001E00
007E003F00
00FF007F80
00FF007F80
00FF007F80
00FF007F80
00FF007F80
007E003F00
003C001E00
0000000000
0000000000
0000000000
0000000000
0000000000
0000000000
0000000000
0000000000
FF0000007F
FF0000007F
FF0000007F
FF0000007F
FF0000007F
FF0000007F
FF0000007F
FF0000007F
FF0000007F
FF0000007F
FF0000007F
FF0000007F
FF0000007F
FF0000007F
FF0000007F
FF0000007F
FF0000007F
FF0000007F
FF0000007F
FF0000007F
FF0000007F
FF0000007F
FF0000007F
FF0000007F
FF0000007F
FF0000007F
FF0000007F
FF000000FF
FF000000FF
FF000000FF
FF000000FF
FF000000FF
FF000000FF
FF000000FF
FF000001FF
FF000001FF
FF800003FF
7F800003FF
7FC00007FF
7FE0000FFF
7FF0001FFF
3FF8007FFF
1FFFFFFF7F
1FFFFFFE7F
0FFFFFFC7F
07FFFFF83F
01FFFFE03F
007FFF803F
0007F80000
ENDCHAR
STARTCHAR 00FD
ENCODING 253
SWIDTH 506 0
DWIDTH 45 0
BBX 45 89 0 -21
BITMAP
0000003FF000
0000003FE000
0000007FE000
000000FFC000
000000FF8000
000001FF0000
000001FE0000
000003FC0000
000007F80000
000007F00000
00000FE00000
00001FC00000
00003F800000
00003F000000
000000000000
000000000000
000000000000
000000000000
000000000000
000000000000
FF00000007F8
7F8000000FF8
7F8000000FF8
7FC000000FF0
3FC000001FF0
3FC000001FE0
1FE000001FE0
1FE000003FE0
1FF000003FC0
0FF000003FC0
0FF000007FC0
07F800007F80
07F800007F80
07F80000FF00
03FC0000FF00
03FC0001FF00
01FE0001FE00
01FE0001FE00
01FE0003FC00
00FF0003FC00
00FF0003FC00
007F0007F800
007F8007F800
007F8007F800
003FC00FF000
003FC00FF000
001FC00FE000
001FE01FE000
001FE01FE000
000FE03FC000
000FF03FC000
0007F03FC000
0007F87F8000
0007F87F8000
0003F87F0000
0003FCFF0000
0001FCFF0000
0001FCFE0000
0001FCFE0000
0000FFFE0000
0000FFFC0000
00007FFC0000
00007FF80000
00007FF80000
00003FF80000
00003FF00000
00001FF00000
00001FE00000
00001FE00000
00001FE00000
00003FC00000
00003FC00000
00003FC00000
00007F800000
00007F800000
0000FF000000
0000FF000000
0001FF000000
0001FE000000
0003FE000000
0007FC000000
000FF8000000
407FF8000000
7FFFF0000000
7FFFE0000000
7FFFC0000000
7FFF80000000
7FFF00000000
7FF800000000
ENDCHAR
STARTCHAR 00FE
ENCODING 254
SWIDTH 607 0
DWIDTH 54 0
BBX 42 89 8 -21
BITMAP
FE0000000000
FE0000000000
FE0000000000
FE0000000000
FE0000000000
FE0000000000
FE0000000000
FE0000000000
FE0000000000
FE0000000000
FE0000000000
FE0000000000
FE0000000000
FE0000000000
FE0000000000
FE0000000000
FE0000000000
FE0000000000
FE0000000000
FE0002000000
FE01FFF80000
FE07FFFE0000
FE0FFFFF8000
FE3FFFFFC000
FE7FFFFFE000
FEFFFFFFF000
FEFF807FF800
FFFC001FFC00
FFF00007FC00
FFE00003FE00
FFC00001FE00
FFC00001FF00
FF800000FF00
FF800000FF00
FF000000FF80
FF0000007F80
FF0000007F80
FF0000007F80
FF0000007F80
FF0000007FC0
FE0000003FC0
FE0000003FC0
FE0000003FC0
FE0000003FC0
FE0000003FC0
FE0000003FC0
FE0000003FC0
FE0000003FC0
FF0000007FC0
FF0000007F80
FF0000007F80
FF0000007F80
FF0000007F80
FF000000FF80
FF800000FF00
FF800000FF00
FFC00001FF00
FFC00001FE00
FFE00003FE00
FFF00007FC00
FFF8000FFC00
FFFE003FF800
FEFFFFFFF000
FE7FFFFFF000
FE3FFFFFC000
FE1FFFFF8000
FE0FFFFF0000
FE03FFFC0000
FE003FC00000
FE0000000000
FE0000000000
FE0000000000
FE0000000000
FE0000000000
FE0000000000
FE0000000000
FE0000000000
FE0000000000
FE0000000000
FE0000000000
FE0000000000
FE0000000000
FE0000000000
FE0000000000
FE0000000000
FE0000000000
FE0000000000
FE0000000000
FE0000000000
ENDCHAR
STARTCHAR 00FF
ENCODING 255
SWIDTH 506 0
DWIDTH 45 0
BBX 45 86 0 -21
BITMAP
000700078000
001FC00FC000
001FC01FE000
003FE01FE000
003FE01FE000
003FE01FE000
001FC01FE000
001FC00FC000
000F00078000
000000000000
000000000000
000000000000
000000000000
000000000000
000000000000
000000000000
000000000000
FF00000007F8
7F8000000FF8
7F8000000FF8
7FC000000FF0
3FC000001FF0
3FC000001FE0
1FE000001FE0
1FE000003FE0
1FF000003FC0
0FF000003FC0
0FF000007FC0
07F800007F80
07F800007F80
07F80000FF00
03FC0000FF00
03FC0001FF00
01FE0001FE00
01FE0001FE00
01FE0003FC00
00FF0003FC00
00FF0003FC00
007F0007F800
007F8007F800
007F8007F800
003FC00FF000
003FC00FF000
001FC00FE000
001FE01FE000
001FE01FE000
000FE03FC000
000FF03FC000
0007F03FC000
0007F87F8000
0007F87F8000
0003F87F0000
0003FCFF0000
0001FCFF0000
0001FCFE0000
0001FCFE0000
0000FFFE0000
0000FFFC0000
00007FFC0000
00007FF80000
00007FF80000
00003FF80000
00003FF00000
00001FF00000
00001FE00000
00001FE00000
00001FE00000
00003FC00000
00003FC00000
00003FC00000
00007F800000
00007F800000
0000FF000000
0000FF000000
0001FF000000
0001FE000000
0003FE000000
0007FC000000
000FF8000000
407FF8000000
7FFFF0000000
7FFFE0000000
7FFFC0000000
7FFF80000000
7FFF00000000
7FF800000000
ENDCHAR
STARTCHAR 0100
ENCODING 256
SWIDTH 630 0
DWIDTH 56 0
BBX 57 76 0 0
BITMAP
0001FFFFFF800000
0001FFFFFF800000
0001FFFFFF800000
0001FFFFFF800000
0001FFFFFF800000
0001FFFFFF800000
0000000000000000
0000000000000000
0000000000000000
0000000000000000
0000000000000000
0000000000000000
0000007F00000000
000000FF00000000
000000FF80000000
000000FF80000000
000001FFC0000000
000001FFC0000000
000003FFC0000000
000003FFE0000000
000003FFE0000000
000007F7F0000000
000007F7F0000000
00000FF7F0000000
00000FE7F8000000
00000FE3F8000000
00001FE3FC000000
00001FC3FC000000
00003FC1FC000000
00003FC1FE000000
00003F81FE000000
00007F80FE000000
00007F80FF000000
00007F007F000000
0000FF007F800000
0000FE007F800000
0001FE003F800000
0001FE003FC00000
0001FC003FC00000
0003FC001FE00000
0003FC001FE00000
0007F8000FE00000
0007F8000FF00000
0007F0000FF00000
000FF00007F80000
000FF00007F80000
001FE00007F80000
001FE00003FC0000
001FE00003FC0000
003FFFFFFFFC0000
003FFFFFFFFE0000
003FFFFFFFFE0000
007FFFFFFFFF0000
007FFFFFFFFF0000
00FFFFFFFFFF0000
00FFFFFFFFFF8000
00FF0000007F8000
01FE0000007FC000
01FE0000003FC000
03FC0000003FC000
03FC0000003FE000
03FC0000001FE000
07F80000001FE000
07F80000000FF000
0FF80000000FF000
0FF00000000FF800
0FF000000007F800
1FE000000007F800
1FE000000003FC00
1FE000000003FC00
3FC000000003FE00
3FC000000001FE00
7F8000000001FE00
7F8000000001FF00
7F8000000000FF00
FF0000000000FF80
ENDCHAR
STARTCHAR 0101
ENCODING 257
SWIDTH 551 0
DWIDTH 49 0
BBX 39 61 4 -1
BITMAP
00FFFFFFC0
00FFFFFFC0
00FFFFFFC0
00FFFFFFC0
00FFFFFFC0
00FFFFFFC0
0000000000
0000000000
0000000000
0000000000
0000000000
0000000000
0003FFF800
003FFFFF00
00FFFFFF80
03FFFFFFE0
03FFFFFFF0
03FFFFFFF0
03FF007FF8
01F8000FF8
01C00007FC
00000003FC
00000003FC
00000003FC
00000001FE
00000001FE
00000001FE
00000001FE
00000001FE
00000001FE
00000001FE
0000007FFE
0003FFFFFE
003FFFFFFE
00FFFFFFFE
03FFFFFFFE
07FFFFFFFE
0FFFC001FE
1FFC0001FE
3FF00001FE
7FE00001FE
7FC00001FE
7F800001FE
FF800001FE
FF000001FE
FF000003FE
FF000003FE
FF000003FE
FF000007FE
FF000007FE
FF80000FFE
7F80001FFE
7FC0007FFE
7FF001FEFE
3FFF3FFCFE
3FFFFFF8FE
1FFFFFF0FE
0FFFFFE0FE
03FFFF807E
00FFFF007E
001FF00000
ENDCHAR
STARTCHAR 0102
ENCODING 258
SWIDTH 630 0
DWIDTH 56 0
BBX 57 82 0 0
BITMAP
0003E00007C00000
0003E00007C00000
0001F00007C00000
0001F0000F800000
0001F8001F800000
0000FE00FF800000
0000FFFFFF000000
00007FFFFE000000
00003FFFFE000000
00001FFFF8000000
00000FFFF0000000
000003FFC0000000
0000000000000000
0000000000000000
0000000000000000
0000000000000000
0000000000000000
0000000000000000
0000007F00000000
000000FF00000000
000000FF80000000
000000FF80000000
000001FFC0000000
000001FFC0000000
000003FFC0000000
000003FFE0000000
000003FFE0000000
000007F7F0000000
000007F7F0000000
00000FF7F0000000
00000FE7F8000000
00000FE3F8000000
00001FE3FC000000
00001FC3FC000000
00003FC1FC000000
00003FC1FE000000
00003F81FE000000
00007F80FE000000
00007F80FF000000
00007F007F000000
0000FF007F800000
0000FE007F800000
0001FE003F800000
0001FE003FC00000
0001FC003FC00000
0003FC001FE00000
0003FC001FE00000
0007F8000FE00000
0007F8000FF00000
0007F0000FF00000
000FF00007F80000
000FF00007F80000
001FE00007F80000
001FE00003FC0000
001FE00003FC0000
003FFFFFFFFC0000
003FFFFFFFFE0000
003FFFFFFFFE0000
007FFFFFFFFF0000
007FFFFFFFFF0000
00FFFFFFFFFF0000
00FFFFFFFFFF8000
00FF0000007F8000
01FE0000007FC000
01FE0000003FC000
03FC0000003FC000
03FC0000003FE000
03FC0000001FE000
07F80000001FE000
07F80000000FF000
0FF80000000FF000
0FF00000000FF800
0FF000000007F800
1FE000000007F800
1FE000000003FC00
1FE000000003FC00
3FC000000003FE00
3FC000000001FE00
7F8000000001FE00
7F8000000001FF00
7F8000000000FF00
FF0000000000FF80
ENDCHAR
STARTCHAR 0103
ENCODING 259
SWIDTH 551 0
DWIDTH 49 0
BBX 39 67 4 -1
BITMAP
01F00003E0
01F00003E0
01F00007C0
00F80007C0
00FC001FC0
00FF80FF80
007FFFFF80
003FFFFF00
003FFFFE00
001FFFFC00
0007FFF000
0000FFC000
0000000000
0000000000
0000000000
0000000000
0000000000
0000000000
0003FFF800
003FFFFF00
00FFFFFF80
03FFFFFFE0
03FFFFFFF0
03FFFFFFF0
03FF007FF8
01F8000FF8
01C00007FC
00000003FC
00000003FC
00000003FC
00000001FE
00000001FE
00000001FE
00000001FE
00000001FE
00000001FE
00000001FE
0000007FFE
0003FFFFFE
003FFFFFFE
00FFFFFFFE
03FFFFFFFE
07FFFFFFFE
0FFFC001FE
1FFC0001FE
3FF00001FE
7FE00001FE
7FC00001FE
7F800001FE
FF800001FE
FF000001FE
FF000003FE
FF000003FE
FF000003FE
FF000007FE
FF000007FE
FF80000FFE
7F80001FFE
7FC0007FFE
7FF001FEFE
3FFF3FFCFE
3FFFFFF8FE
1FFFFFF0FE
0FFFFFE0FE
03FFFF807E
00FFFF007E
001FF00000
ENDCHAR
STARTCHAR 0104
ENCODING 260
SWIDTH 630 0
DWIDTH 56 0
BBX 57 84 0 -20
BITMAP
0000007F00000000
000000FF00000000
000000FF80000000
000000FF80000000
000001FFC0000000
000001FFC0000000
000003FFC0000000
000003FFE0000000
000003FFE0000000
000007F7F0000000
000007F7F0000000
00000FF7F0000000
00000FE7F8000000
00000FE3F8000000
00001FE3FC000000
00001FC3FC000000
00003FC1FC000000
00003FC1FE000000
00003F81FE000000
00007F80FE000000
00007F80FF000000
00007F007F000000
0000FF007F800000
0000FE007F800000
0001FE003F800000
0001FE003FC00000
0001FC003FC00000
0003FC001FE00000
0003FC001FE00000
0007F8000FE00000
0007F8000FF00000
0007F0000FF00000
000FF00007F80000
000FF00007F80000
001FE00007F80000
001FE00003FC0000
001FE00003FC0000
003FFFFFFFFC0000
003FFFFFFFFE0000
003FFFFFFFFE0000
007FFFFFFFFF0000
007FFFFFFFFF0000
00FFFFFFFFFF0000
00FFFFFFFFFF8000
00FF0000007F8000
01FE0000007FC000
01FE0000003FC000
03FC0000003FC000
03FC0000003FE000
03FC0000001FE000
07F80000001FE000
07F80000000FF000
0FF80000000FF000
0FF00000000FF800
0FF000000007F800
1FE000000007F800
1FE000000003FC00
1FE000000003FC00
3FC000000003FE00
3FC000000001FE00
7F8000000001FE00
7F8000000001FF00
7F8000000000FF00
FF0000000000FF80
000000000000FC00
000000000001F800
000000000003F000
000000000007E000
00000000000FC000
00000000000FC000
00000000001F8000
00000000001F8000
00000000003F8000
00000000003F0000
00000000003F0000
00000000003F8000
00000000003F8000
00000000003FC000
00000000001FFF80
00000000001FFF80
00000000000FFF80
00000000000FFF80
000000000003FF80
0000000000007000
ENDCHAR
STARTCHAR 0105
ENCODING 261
SWIDTH 551 0
DWIDTH 49 0
BBX 41 68 4 -20
BITMAP
0003FFF80000
003FFFFF0000
00FFFFFF8000
03FFFFFFE000
03FFFFFFF000
03FFFFFFF000
03FF007FF800
01F8000FF800
01C00007FC00
00000003FC00
00000003FC00
00000003FC00
00000001FE00
00000001FE00
00000001FE00
00000001FE00
00000001FE00
00000001FE00
00000001FE00
0000007FFE00
0003FFFFFE00
003FFFFFFE00
00FFFFFFFE00
03FFFFFFFE00
07FFFFFFFE00
0FFFC001FE00
1FFC0001FE00
3FF00001FE00
7FE00001FE00
7FC00001FE00
7F800001FE00
FF800001FE00
FF000001FE00
FF000003FE00
FF000003FE00
FF000003FE00
FF000007FE00
FF000007FE00
FF80000FFE00
7F80001FFE00
7FC0007FFE00
7FF001FEFE00
3FFF3FFCFE00
3FFFFFF8FE00
1FFFFFF0FE00
0FFFFFE0FE00
03FFFF807E00
00FFFF007E00
001FF000FC00
00000001F800
00000003F000
00000007E000
00000007E000
0000000FC000
0000001F8000
0000001F8000
0000001F8000
0000003F8000
0000003F8000
0000003F8000
0000003F8000
0000003FC000
0000001FFF80
0000001FFF80
0000000FFF80
00000007FF80
00000003FF80
000000003000
ENDCHAR
STARTCHAR 0106
ENCODING 262
SWIDTH 630 0
DWIDTH 56 0
BBX 48 85 5 -1
BITMAP
00000000FFC0
00000000FFC0
00000001FF80
00000001FF00
00000003FE00
00000007FC00
00000007F800
0000000FF000
0000001FF000
0000001FE000
0000003FC000
0000007F8000
0000007E0000
000000FC0000
000000000000
000000000000
000000000000
000000000000
000000000000
000000000000
000001FFFF00
00001FFFFFF0
00007FFFFFFE
0001FFFFFFFF
0007FFFFFFFF
000FFFFFFFFE
001FFFFFFFFE
007FFF0003FC
00FFF800007C
00FFF000000C
01FFC0000000
03FF80000000
07FF00000000
07FE00000000
0FFC00000000
0FF800000000
1FF800000000
1FF000000000
1FF000000000
3FE000000000
3FE000000000
3FC000000000
7FC000000000
7FC000000000
7FC000000000
7F8000000000
7F8000000000
7F8000000000
7F8000000000
FF8000000000
FF8000000000
FF8000000000
FF8000000000
FF8000000000
FF8000000000
FF8000000000
7F8000000000
7F8000000000
7F8000000000
7F8000000000
7FC000000000
7FC000000000
7FC000000000
3FC000000000
3FE000000000
3FE000000000
3FF000000000
1FF000000000
1FF800000000
0FF800000000
0FFC00000000
07FE00000000
07FF00000000
03FF80000000
03FFC0000000
01FFF0000004
00FFFC00003C
007FFFE00FFC
003FFFFFFFFC
001FFFFFFFFC
0007FFFFFFFC
0003FFFFFFFC
0000FFFFFFF8
00001FFFFFC0
000000FFF800
ENDCHAR
STARTCHAR 0107
ENCODING 263
SWIDTH 472 0
DWIDTH 42 0
BBX 35 69 5 -1
BITMAP
000000FF80
000001FF80
000001FF00
000003FE00
000007FE00
000007FC00
00000FF800
00001FF000
00001FE000
00003FC000
00007F8000
00007F0000
0000FE0000
0000FC0000
0000000000
0000000000
0000000000
0000000000
0000000000
0000030000
0001FFFC00
000FFFFF80
003FFFFFE0
00FFFFFFC0
01FFFFFFC0
03FFFFFF80
07FFF0FF80
0FFF000780
0FFC000000
1FF8000000
1FF0000000
3FE0000000
3FC0000000
7FC0000000
7F80000000
7F80000000
7F80000000
FF80000000
FF00000000
FF00000000
FF00000000
FF00000000
FF00000000
FF00000000
FF00000000
FF00000000
FF00000000
FF00000000
FF00000000
FF00000000
FF00000000
FF80000000
7F80000000
7F80000000
7FC0000000
7FC0000000
3FE0000000
3FE0000000
1FF0000000
1FF8000000
0FFE0001C0
07FF800FC0
03FFFFFFC0
03FFFFFFC0
00FFFFFFC0
007FFFFFC0
001FFFFFC0
0007FFFE00
00007FE000
ENDCHAR
STARTCHAR 0108
ENCODING 264
SWIDTH 630 0
DWIDTH 56 0
BBX 48 85 5 -1
BITMAP
000000FF8000
000000FFC000
000001FFC000
000003FFE000
000003FFF000
000007FFF800
00000FF7F800
00001FE3FC00
00003FC1FE00
00007F80FF00
0000FF007F80
0001FE003FC0
0001FC000FE0
0003F00007F0
000000000000
000000000000
000000000000
000000000000
000000000000
000000000000
000001FFFF00
00001FFFFFF0
00007FFFFFFE
0001FFFFFFFF
0007FFFFFFFF
000FFFFFFFFE
001FFFFFFFFE
007FFF0003FC
00FFF800007C
00FFF000000C
01FFC0000000
03FF80000000
07FF00000000
07FE00000000
0FFC00000000
0FF800000000
1FF800000000
1FF000000000
1FF000000000
3FE000000000
3FE000000000
3FC000000000
7FC000000000
7FC000000000
7FC000000000
7F8000000000
7F8000000000
7F8000000000
7F8000000000
FF8000000000
FF8000000000
FF8000000000
FF8000000000
FF8000000000
FF8000000000
FF8000000000
7F8000000000
7F8000000000
7F8000000000
7F8000000000
7FC000000000
7FC000000000
7FC000000000
3FC000000000
3FE000000000
3FE000000000
3FF000000000
1FF000000000
1FF800000000
0FF800000000
0FFC00000000
07FE00000000
07FF00000000
03FF80000000
03FFC0000000
01FFF0000004
00FFFC00003C
007FFFE00FFC
003FFFFFFFFC
001FFFFFFFFC
0007FFFFFFFC
0003FFFFFFFC
0000FFFFFFF8
00001FFFFFC0
000000FFF800
ENDCHAR
STARTCHAR 0109
ENCODING 265
SWIDTH 472 0
DWIDTH 42 0
BBX 35 69 5 -1
BITMAP
0000FF0000
0001FF8000
0003FFC000
0003FFE000
0007FFE000
000FFFF000
001FFFF800
003FE7FC00
007FC1FE00
007F80FF00
00FE007F80
01FC003FC0
03F8001FE0
07F00007E0
0000000000
0000000000
0000000000
0000000000
0000000000
0000030000
0001FFFC00
000FFFFF80
003FFFFFE0
00FFFFFFC0
01FFFFFFC0
03FFFFFF80
07FFF0FF80
0FFF000780
0FFC000000
1FF8000000
1FF0000000
3FE0000000
3FC0000000
7FC0000000
7F80000000
7F80000000
7F80000000
FF80000000
FF00000000
FF00000000
FF00000000
FF00000000
FF00000000
FF00000000
FF00000000
FF00000000
FF00000000
FF00000000
FF00000000
FF00000000
FF00000000
FF80000000
7F80000000
7F80000000
7FC0000000
7FC0000000
3FE0000000
3FE0000000
1FF0000000
1FF8000000
0FFE0001C0
07FF800FC0
03FFFFFFC0
03FFFFFFC0
00FFFFFFC0
007FFFFFC0
001FFFFFC0
0007FFFE00
00007FE000
ENDCHAR
STARTCHAR 010A
ENCODING 266
SWIDTH 630 0
DWIDTH 56 0
BBX 48 82 5 -1
BITMAP
0000003F0000
0000007F8000
0000007F8000
000000FF8000
000000FF8000
000000FF8000
000000FF8000
0000007F8000
0000003F0000
000000080000
000000000000
000000000000
000000000000
000000000000
000000000000
000000000000
000000000000
000001FFFF00
00001FFFFFF0
00007FFFFFFE
0001FFFFFFFF
0007FFFFFFFF
000FFFFFFFFE
001FFFFFFFFE
007FFF0003FC
00FFF800007C
00FFF000000C
01FFC0000000
03FF80000000
07FF00000000
07FE00000000
0FFC00000000
0FF800000000
1FF800000000
1FF000000000
1FF000000000
3FE000000000
3FE000000000
3FC000000000
7FC000000000
7FC000000000
7FC000000000
7F8000000000
7F8000000000
7F8000000000
7F8000000000
FF8000000000
FF8000000000
FF8000000000
FF8000000000
FF8000000000
FF8000000000
FF8000000000
7F8000000000
7F8000000000
7F8000000000
7F8000000000
7FC000000000
7FC000000000
7FC000000000
3FC000000000
3FE000000000
3FE000000000
3FF000000000
1FF000000000
1FF800000000
0FF800000000
0FFC00000000
07FE00000000
07FF00000000
03FF80000000
03FFC0000000
01FFF0000004
00FFFC00003C
007FFFE00FFC
003FFFFFFFFC
001FFFFFFFFC
0007FFFFFFFC
0003FFFFFFFC
0000FFFFFFF8
00001FFFFFC0
000000FFF800
ENDCHAR
STARTCHAR 010B
ENCODING 267
SWIDTH 472 0
DWIDTH 42 0
BBX 35 66 5 0
BITMAP
00007E0000
0000FF0000
0000FF8000
0000FF8000
0000FF8000
0000FF8000
0000FF8000
0000FF0000
00007E0000
0000000000
0000000000
0000000000
0000000000
0000000000
0000000000
0000000000
0000030000
0001FFFC00
000FFFFF80
003FFFFFE0
00FFFFFFC0
01FFFFFFC0
03FFFFFF80
07FFF0FF80
0FFF000780
0FFC000000
1FF8000000
1FF0000000
3FE0000000
3FC0000000
7FC0000000
7F80000000
7F80000000
7F80000000
FF80000000
FF00000000
FF00000000
FF00000000
FF00000000
FF00000000
FF00000000
FF00000000
FF00000000
FF00000000
FF00000000
FF00000000
FF00000000
FF00000000
FF80000000
7F80000000
7F80000000
7FC0000000
7FC0000000
3FE0000000
3FE0000000
1FF0000000
1FF8000000
0FFE0001C0
07FF800FC0
03FFFFFFC0
03FFFFFFC0
00FFFFFFC0
007FFFFFC0
001FFFFFC0
0007FFFE00
00007FE000
ENDCHAR
STARTCHAR 010C
ENCODING 268
SWIDTH 630 0
DWIDTH 56 0
BBX 48 85 5 -1
BITMAP
0003F00003F0
0003F8000FF0
0001FC001FE0
0000FF003FC0
00007F807F80
00003FC1FF00
00001FE3FE00
00000FF7FC00
00000FFFF800
000007FFF000
000003FFE000
000001FFC000
000000FFC000
000000FF8000
000000000000
000000000000
000000000000
000000000000
000000000000
000000000000
000001FFFF00
00001FFFFFF0
00007FFFFFFE
0001FFFFFFFF
0007FFFFFFFF
000FFFFFFFFE
001FFFFFFFFE
007FFF0003FC
00FFF800007C
00FFF000000C
01FFC0000000
03FF80000000
07FF00000000
07FE00000000
0FFC00000000
0FF800000000
1FF800000000
1FF000000000
1FF000000000
3FE000000000
3FE000000000
3FC000000000
7FC000000000
7FC000000000
7FC000000000
7F8000000000
7F8000000000
7F8000000000
7F8000000000
FF8000000000
FF8000000000
FF8000000000
FF8000000000
FF8000000000
FF8000000000
FF8000000000
7F8000000000
7F8000000000
7F8000000000
7F8000000000
7FC000000000
7FC000000000
7FC000000000
3FC000000000
3FE000000000
3FE000000000
3FF000000000
1FF000000000
1FF800000000
0FF800000000
0FFC00000000
07FE00000000
07FF00000000
03FF80000000
03FFC0000000
01FFF0000004
00FFFC00003C
007FFFE00FFC
003FFFFFFFFC
001FFFFFFFFC
0007FFFFFFFC
0003FFFFFFFC
0000FFFFFFF8
00001FFFFFC0
000000FFF800
ENDCHAR
STARTCHAR 010D
ENCODING 269
SWIDTH 472 0
DWIDTH 42 0
BBX 35 69 5 -1
BITMAP
07E00007E0
03F8001FE0
01FC003FC0
01FE007F80
00FF00FF00
007FC1FE00
003FE3FC00
001FF7F800
000FFFF000
0007FFE000
0003FFE000
0003FFC000
0001FF8000
0000FF0000
0000000000
0000000000
0000000000
0000000000
0000000000
0000030000
0001FFFC00
000FFFFF80
003FFFFFE0
00FFFFFFC0
01FFFFFFC0
03FFFFFF80
07FFF0FF80
0FFF000780
0FFC000000
1FF8000000
1FF0000000
3FE0000000
3FC0000000
7FC0000000
7F80000000
7F80000000
7F80000000
FF80000000
FF00000000
FF00000000
FF00000000
FF00000000
FF00000000
FF00000000
FF00000000
FF00000000
FF00000000
FF00000000
FF00000000
FF00000000
FF00000000
FF80000000
7F80000000
7F80000000
7FC0000000
7FC0000000
3FE0000000
3FE0000000
1FF0000000
1FF8000000
0FFE0001C0
07FF800FC0
03FFFFFFC0
03FFFFFFC0
00FFFFFFC0
007FFFFFC0
001FFFFFC0
0007FFFE00
00007FE000
ENDCHAR
STARTCHAR 010E
ENCODING 270
SWIDTH 720 0
DWIDTH 64 0
BBX 50 84 9 0
BITMAP
00FC0000FC0000
00FE0001FC0000
007F8007F80000
003FC00FF00000
001FE01FE00000
000FF03FC00000
0007F87F800000
0003FCFF000000
0001FFFE000000
0000FFFC000000
0000FFFC000000
00007FF8000000
00003FF0000000
00003FE0000000
00000000000000
00000000000000
00000000000000
00000000000000
00000000000000
00000000000000
00000000000000
FFFFFFF0000000
FFFFFFFF000000
FFFFFFFFE00000
FFFFFFFFF80000
FFFFFFFFFC0000
FFFFFFFFFF0000
FF000FFFFF8000
FF00001FFFC000
FF000003FFE000
FF000000FFF000
FF0000007FF800
FF0000001FF800
FF0000000FFC00
FF00000007FE00
FF00000003FE00
FF00000003FF00
FF00000001FF00
FF00000001FF00
FF00000000FF80
FF00000000FF80
FF000000007F80
FF000000007FC0
FF000000007FC0
FF000000007FC0
FF000000003FC0
FF000000003FC0
FF000000003FC0
FF000000003FC0
FF000000003FC0
FF000000003FC0
FF000000003FC0
FF000000003FC0
FF000000003FC0
FF000000003FC0
FF000000003FC0
FF000000003FC0
FF000000003FC0
FF000000007FC0
FF000000007FC0
FF000000007FC0
FF000000007F80
FF000000007F80
FF00000000FF80
FF00000000FF80
FF00000001FF00
FF00000001FF00
FF00000003FF00
FF00000003FE00
FF00000007FE00
FF0000000FFC00
FF0000001FF800
FF0000003FF800
FF000000FFF000
FF000003FFE000
FF00000FFFC000
FF0000FFFF8000
FFFFFFFFFF0000
FFFFFFFFFC0000
FFFFFFFFF80000
FFFFFFFFE00000
FFFFFFFF000000
FFFFFFFC000000
FFFFFF80000000
ENDCHAR
STARTCHAR 010F
ENCODING 271
SWIDTH 607 0
DWIDTH 54 0
BBX 56 69 5 -1
BITMAP
000000003FC0FF
000000003FC0FF
000000003FC0FF
000000003FC0FE
000000003FC0FE
000000003FC0FE
000000003FC1FC
000000003FC1FC
000000003FC1F8
000000003FC1F8
000000003FC3F0
000000003FC3F0
000000003FC3E0
000000003FC3E0
000000003FC7C0
000000003FC000
000000003FC000
000000003FC000
000000003FC000
000030003FC000
0007FFC03FC000
001FFFF83FC000
007FFFFC3FC000
00FFFFFE1FC000
03FFFFFF9FC000
07FFFFFF9FC000
07FF807FFFC000
0FFE000FFFC000
1FF80007FFC000
1FF00001FFC000
3FE00001FFC000
3FE00000FFC000
3FC00000FFC000
7FC000007FC000
7F8000007FC000
7F8000007FC000
7F8000003FC000
FF8000003FC000
FF0000003FC000
FF0000003FC000
FF0000003FC000
FF0000003FC000
FF0000003FC000
FF0000003FC000
FF0000003FC000
FF0000003FC000
FF0000003FC000
FF0000003FC000
FF0000003FC000
FF0000003FC000
FF0000003FC000
FF8000003FC000
7F8000003FC000
7F8000007FC000
7FC000007FC000
7FC000007FC000
3FC00000FFC000
3FE00000FFC000
3FF00001FFC000
1FF80003FFC000
0FFC0007FFC000
0FFF001FFFC000
07FFFFFFDFC000
03FFFFFF9FC000
01FFFFFF1FC000
00FFFFFE1FC000
003FFFF80FC000
000FFFE00FC000
0001FF00000000
ENDCHAR
STARTCHAR 0110
ENCODING 272
SWIDTH 720 0
DWIDTH 64 0
BBX 56 63 3 0
BITMAP
03FFFFFFC00000
03FFFFFFFC0000
03FFFFFFFF0000
03FFFFFFFFE000
03FFFFFFFFF000
03FFFFFFFFFC00
03FC003FFFFE00
03FC00007FFF00
03FC00000FFF80
03FC000003FFC0
03FC000001FFE0
03FC0000007FE0
03FC0000003FF0
03FC0000001FF8
03FC0000000FF8
03FC0000000FFC
03FC00000007FC
03FC00000007FC
03FC00000003FE
03FC00000003FE
03FC00000001FE
03FC00000001FF
03FC00000001FF
03FC00000001FF
03FC00000000FF
03FC00000000FF
03FC00000000FF
03FC00000000FF
FFFFFFFC0000FF
FFFFFFFC0000FF
FFFFFFFC0000FF
FFFFFFFC0000FF
FFFFFFFC0000FF
FFFFFFFC0000FF
FFFFFFFC0000FF
03FC00000000FF
03FC00000000FF
03FC00000001FF
03FC00000001FF
03FC00000001FF
03FC00000001FE
03FC00000001FE
03FC00000003FE
03FC00000003FE
03FC00000007FC
03FC00000007FC
03FC0000000FFC
03FC0000000FF8
03FC0000001FF8
03FC0000003FF0
03FC0000007FE0
03FC000000FFE0
03FC000003FFC0
03FC00000FFF80
03FC00003FFF00
03FC0003FFFE00
03FFFFFFFFFC00
03FFFFFFFFF000
03FFFFFFFFE000
03FFFFFFFF8000
03FFFFFFFC0000
03FFFFFFF00000
03FFFFFE000000
ENDCHAR
STARTCHAR 0111
ENCODING 273
SWIDTH 607 0
DWIDTH 54 0
BBX 49 69 5 -1
BITMAP
000000003FC000
000000003FC000
000000003FC000
000000003FC000
000000003FC000
000000003FC000
000000003FC000
000000003FC000
0001FFFFFFFF80
0001FFFFFFFF80
0001FFFFFFFF80
0001FFFFFFFF80
0001FFFFFFFF80
0001FFFFFFFF80
000000003FC000
000000003FC000
000000003FC000
000000003FC000
000000003FC000
000000003FC000
0003FFC03FC000
001FFFF03FC000
007FFFFC3FC000
00FFFFFE3FC000
01FFFFFF1FC000
03FFFFFF9FC000
07FFC0FFDFC000
0FFE000FFFC000
1FFC0007FFC000
1FF00003FFC000
3FF00001FFC000
3FE00000FFC000
3FC00000FFC000
7FC000007FC000
7FC000007FC000
7F8000007FC000
7F8000003FC000
FF8000003FC000
FF8000003FC000
FF0000003FC000
FF0000003FC000
FF0000003FC000
FF0000003FC000
FF0000003FC000
FF0000003FC000
FF0000003FC000
FF0000003FC000
FF0000003FC000
FF0000003FC000
FF0000003FC000
FF8000003FC000
FF8000003FC000
7F8000003FC000
7F8000003FC000
7FC000007FC000
7FC000007FC000
3FC00000FFC000
3FE00000FFC000
3FF00001FFC000
1FF80003FFC000
0FFC0007FFC000
0FFF001FFFC000
07FFFFFF9FC000
03FFFFFF9FC000
01FFFFFF1FC000
00FFFFFC1FC000
003FFFF81FC000
000FFFE00FC000
0001FF00000000
ENDCHAR
STARTCHAR 0112
ENCODING 274
SWIDTH 551 0
DWIDTH 49 0
BBX 35 76 9 0
BITMAP
07FFFFFE00
07FFFFFE00
07FFFFFE00
07FFFFFE00
07FFFFFE00
07FFFFFE00
0000000000
0000000000
0000000000
0000000000
0000000000
0000000000
0000000000
FFFFFFFFE0
FFFFFFFFE0
FFFFFFFFE0
FFFFFFFFE0
FFFFFFFFE0
FFFFFFFFE0
FFFFFFFFE0
FF00000000
FF00000000
FF00000000
FF00000000
FF00000000
FF00000000
FF00000000
FF00000000
FF00000000
FF00000000
FF00000000
FF00000000
FF00000000
FF00000000
FF00000000
FF00000000
FF00000000
FF00000000
FF00000000
FFFFFFFF80
FFFFFFFF80
FFFFFFFF80
FFFFFFFF80
FFFFFFFF80
FFFFFFFF80
FFFFFFFF80
FF00000000
FF00000000
FF00000000
FF00000000
FF00000000
FF00000000
FF00000000
FF00000000
FF00000000
FF00000000
FF00000000
FF00000000
FF00000000
FF00000000
FF00000000
FF00000000
FF00000000
FF00000000
FF00000000
FF00000000
FF00000000
FF00000000
FF00000000
FFFFFFFFE0
FFFFFFFFE0
FFFFFFFFE0
FFFFFFFFE0
FFFFFFFFE0
FFFFFFFFE0
FFFFFFFFE0
ENDCHAR
STARTCHAR 0113
ENCODING 275
SWIDTH 562 0
DWIDTH 50 0
BBX 41 61 5 -1
BITMAP
01FFFFFF8000
01FFFFFF8000
01FFFFFF8000
01FFFFFF8000
01FFFFFF8000
01FFFFFF8000
000000000000
000000000000
000000000000
000000000000
000000000000
00000C000000
0003FFF00000
000FFFFC0000
003FFFFF0000
00FFFFFF8000
01FFFFFFE000
03FFFFFFF000
07FF807FF000
07FC001FF800
0FF80007FC00
1FF00007FC00
1FE00003FE00
3FE00001FE00
3FC00001FE00
3FC00001FF00
7F800000FF00
7F800000FF00
7F800000FF00
FF000000FF00
FF000000FF00
FFFFFFFFFF80
FFFFFFFFFF80
FFFFFFFFFF80
FFFFFFFFFF80
FFFFFFFFFF80
FFFFFFFFFF80
FFFFFFFFFF80
FF0000000000
FF0000000000
FF0000000000
FF0000000000
FF0000000000
7F8000000000
7F8000000000
7F8000000000
7FC000000000
3FC000000000
3FE000000000
1FF000000000
1FF800000000
0FFC00000400
0FFE00003C00
07FFC001FC00
03FFFFFFFC00
01FFFFFFFC00
00FFFFFFFC00
003FFFFFFC00
000FFFFFF800
0003FFFFC000
00003FF80000
ENDCHAR
STARTCHAR 0114
ENCODING 276
SWIDTH 551 0
DWIDTH 49 0
BBX 35 82 9 0
BITMAP
0F80001F00
0F80001F00
0FC0003F00
07C0003E00
07E0007E00
07F803FC00
03FFFFFC00
01FFFFF800
01FFFFF000
00FFFFE000
003FFFC000
000FFF0000
0000000000
0000000000
0000000000
0000000000
0000000000
0000000000
0000000000
FFFFFFFFE0
FFFFFFFFE0
FFFFFFFFE0
FFFFFFFFE0
FFFFFFFFE0
FFFFFFFFE0
FFFFFFFFE0
FF00000000
FF00000000
FF00000000
FF00000000
FF00000000
FF00000000
FF00000000
FF00000000
FF00000000
FF00000000
FF00000000
FF00000000
FF00000000
FF00000000
FF00000000
FF00000000
FF00000000
FF00000000
FF00000000
FFFFFFFF80
FFFFFFFF80
FFFFFFFF80
FFFFFFFF80
FFFFFFFF80
FFFFFFFF80
FFFFFFFF80
FF00000000
FF00000000
FF00000000
FF00000000
FF00000000
FF00000000
FF00000000
FF00000000
FF00000000
FF00000000
FF00000000
FF00000000
FF00000000
FF00000000
FF00000000
FF00000000
FF00000000
FF00000000
FF00000000
FF00000000
FF00000000
FF00000000
FF00000000
FFFFFFFFE0
FFFFFFFFE0
FFFFFFFFE0
FFFFFFFFE0
FFFFFFFFE0
FFFFFFFFE0
FFFFFFFFE0
ENDCHAR
STARTCHAR 0115
ENCODING 277
SWIDTH 562 0
DWIDTH 50 0
BBX 41 67 5 -1
BITMAP
03E00007C000
01E00007C000
01F00007C000
01F0000F8000
01F8001F8000
00FF00FF8000
00FFFFFF0000
007FFFFE0000
003FFFFC0000
001FFFF80000
000FFFF00000
0001FF800000
000000000000
000000000000
000000000000
000000000000
000000000000
00000C000000
0003FFF00000
000FFFFC0000
003FFFFF0000
00FFFFFF8000
01FFFFFFE000
03FFFFFFF000
07FF807FF000
07FC001FF800
0FF80007FC00
1FF00007FC00
1FE00003FE00
3FE00001FE00
3FC00001FE00
3FC00001FF00
7F800000FF00
7F800000FF00
7F800000FF00
FF000000FF00
FF000000FF00
FFFFFFFFFF80
FFFFFFFFFF80
FFFFFFFFFF80
FFFFFFFFFF80
FFFFFFFFFF80
FFFFFFFFFF80
FFFFFFFFFF80
FF0000000000
FF0000000000
FF0000000000
FF0000000000
FF0000000000
7F8000000000
7F8000000000
7F8000000000
7FC000000000
3FC000000000
3FE000000000
1FF000000000
1FF800000000
0FFC00000400
0FFE00003C00
07FFC001FC00
03FFFFFFFC00
01FFFFFFFC00
00FFFFFFFC00
003FFFFFFC00
000FFFFFF800
0003FFFFC000
00003FF80000
ENDCHAR
STARTCHAR 0116
ENCODING 278
SWIDTH 551 0
DWIDTH 49 0
BBX 35 81 9 0
BITMAP
0001F80000
0003FC0000
0003FC0000
0003FE0000
0003FE0000
0003FE0000
0003FC0000
0003FC0000
0001F80000
0000200000
0000000000
0000000000
0000000000
0000000000
0000000000
0000000000
0000000000
0000000000
FFFFFFFFE0
FFFFFFFFE0
FFFFFFFFE0
FFFFFFFFE0
FFFFFFFFE0
FFFFFFFFE0
FFFFFFFFE0
FF00000000
FF00000000
FF00000000
FF00000000
FF00000000
FF00000000
FF00000000
FF00000000
FF00000000
FF00000000
FF00000000
FF00000000
FF00000000
FF00000000
FF00000000
FF00000000
FF00000000
FF00000000
FF00000000
FFFFFFFF80
FFFFFFFF80
FFFFFFFF80
FFFFFFFF80
FFFFFFFF80
FFFFFFFF80
FFFFFFFF80
FF00000000
FF00000000
FF00000000
FF00000000
FF00000000
FF00000000
FF00000000
FF00000000
FF00000000
FF00000000
FF00000000
FF00000000
FF00000000
FF00000000
FF00000000
FF00000000
FF00000000
FF00000000
FF00000000
FF00000000
FF00000000
FF00000000
FF00000000
FFFFFFFFE0
FFFFFFFFE0
FFFFFFFFE0
FFFFFFFFE0
FFFFFFFFE0
FFFFFFFFE0
FFFFFFFFE0
ENDCHAR
STARTCHAR 0117
ENCODING 279
SWIDTH 562 0
DWIDTH 50 0
BBX 41 67 5 -1
BITMAP
000008000000
00007E000000
0000FF000000
0000FF800000
0000FF800000
0000FF800000
0000FF800000
0000FF800000
00007F000000
00007E000000
000000000000
000000000000
000000000000
000000000000
000000000000
000000000000
000000000000
00000C000000
0003FFF00000
000FFFFC0000
003FFFFF0000
00FFFFFF8000
01FFFFFFE000
03FFFFFFF000
07FF807FF000
07FC001FF800
0FF80007FC00
1FF00007FC00
1FE00003FE00
3FE00001FE00
3FC00001FE00
3FC00001FF00
7F800000FF00
7F800000FF00
7F800000FF00
FF000000FF00
FF000000FF00
FFFFFFFFFF80
FFFFFFFFFF80
FFFFFFFFFF80
FFFFFFFFFF80
FFFFFFFFFF80
FFFFFFFFFF80
FFFFFFFFFF80
FF0000000000
FF0000000000
FF0000000000
FF0000000000
FF0000000000
7F8000000000
7F8000000000
7F8000000000
7FC000000000
3FC000000000
3FE000000000
1FF000000000
1FF800000000
0FFC00000400
0FFE00003C00
07FFC001FC00
03FFFFFFFC00
01FFFFFFFC00
00FFFFFFFC00
003FFFFFFC00
000FFFFFF800
0003FFFFC000
00003FF80000
ENDCHAR
STARTCHAR 0118
ENCODING 280
SWIDTH 551 0
DWIDTH 49 0
BBX 35 83 9 -20
BITMAP
FFFFFFFFE0
FFFFFFFFE0
FFFFFFFFE0
FFFFFFFFE0
FFFFFFFFE0
FFFFFFFFE0
FFFFFFFFE0
FF00000000
FF00000000
FF00000000
FF00000000
FF00000000
FF00000000
FF00000000
FF00000000
FF00000000
FF00000000
FF00000000
FF00000000
FF00000000
FF00000000
FF00000000
FF00000000
FF00000000
FF00000000
FF00000000
FFFFFFFF80
FFFFFFFF80
FFFFFFFF80
FFFFFFFF80
FFFFFFFF80
FFFFFFFF80
FFFFFFFF80
FF00000000
FF00000000
FF00000000
FF00000000
FF00000000
FF00000000
FF00000000
FF00000000
FF00000000
FF00000000
FF00000000
FF00000000
FF00000000
FF00000000
FF00000000
FF00000000
FF00000000
FF00000000
FF00000000
FF00000000
FF00000000
FF00000000
FF00000000
FFFFFFFFE0
FFFFFFFFE0
FFFFFFFFE0
FFFFFFFFE0
FFFFFFFFE0
FFFFFFFFE0
FFFFFFFFE0
0000003F00
0000007E00
000000FC00
000001F800
000003F000
000003F000
000007E000
000007E000
00000FE000
00000FC000
00000FC000
00000FC000
00000FE000
00000FF000
00000FFFE0
000007FFE0
000007FFE0
000003FFE0
000000FFE0
0000000C00
ENDCHAR
STARTCHAR 0119
ENCODING 281
SWIDTH 562 0
DWIDTH 50 0
BBX 41 69 5 -20
BITMAP
00000C000000
0003FFF00000
000FFFFC0000
003FFFFF0000
00FFFFFF8000
01FFFFFFE000
03FFFFFFF000
07FF807FF000
07FC001FF800
0FF80007FC00
1FF00007FC00
1FE00003FE00
3FE00001FE00
3FC00001FE00
3FC00001FF00
7F800000FF00
7F800000FF00
7F800000FF00
FF000000FF00
FF000000FF00
FFFFFFFFFF80
FFFFFFFFFF80
FFFFFFFFFF80
FFFFFFFFFF80
FFFFFFFFFF80
FFFFFFFFFF80
FFFFFFFFFF80
FF0000000000
FF0000000000
FF0000000000
FF0000000000
FF0000000000
7F8000000000
7F8000000000
7F8000000000
7FC000000000
3FC000000000
3FE000000000
1FF000000000
1FF800000000
0FFC00000400
0FFE00003C00
07FFC001FC00
03FFFFFFFC00
01FFFFFFFC00
00FFFFFFFC00
003FFFFFFC00
000FFFFFFC00
0003FFFFF000
00003FFFE000
0000000FC000
0000001F8000
0000003F0000
0000003F0000
0000007E0000
000000FC0000
000000FC0000
000000FC0000
000001FC0000
000001FC0000
000001FC0000
000001FC0000
000001FE0000
000000FFFC00
000000FFFC00
0000007FFC00
0000003FFC00
0000001FFC00
000000018000
ENDCHAR
STARTCHAR 011A
ENCODING 282
SWIDTH 551 0
DWIDTH 49 0
BBX 35 84 9 0
BITMAP
1F80001F80
1FC0003F80
0FF000FF00
07F801FE00
03FC03FC00
01FE07F800
00FF0FF000
007F9FE000
003FFFC000
001FFF8000
001FFF8000
000FFF0000
0007FE0000
0003FC0000
0000000000
0000000000
0000000000
0000000000
0000000000
0000000000
0000000000
FFFFFFFFE0
FFFFFFFFE0
FFFFFFFFE0
FFFFFFFFE0
FFFFFFFFE0
FFFFFFFFE0
FFFFFFFFE0
FF00000000
FF00000000
FF00000000
FF00000000
FF00000000
FF00000000
FF00000000
FF00000000
FF00000000
FF00000000
FF00000000
FF00000000
FF00000000
FF00000000
FF00000000
FF00000000
FF00000000
FF00000000
FF00000000
FFFFFFFF80
FFFFFFFF80
FFFFFFFF80
FFFFFFFF80
FFFFFFFF80
FFFFFFFF80
FFFFFFFF80
FF00000000
FF00000000
FF00000000
FF00000000
FF00000000
FF00000000
FF00000000
FF00000000
FF00000000
FF00000000
FF00000000
FF00000000
FF00000000
FF00000000
FF00000000
FF00000000
FF00000000
FF00000000
FF00000000
FF00000000
FF00000000
FF00000000
FF00000000
FFFFFFFFE0
FFFFFFFFE0
FFFFFFFFE0
FFFFFFFFE0
FFFFFFFFE0
FFFFFFFFE0
FFFFFFFFE0
ENDCHAR
STARTCHAR 011B
ENCODING 283
SWIDTH 562 0
DWIDTH 50 0
BBX 41 69 5 -1
BITMAP
07F00007E000
03F8000FE000
01FC003FC000
00FE007F8000
00FF80FF0000
007FC1FE0000
003FE3FC0000
001FF7F80000
000FFFF00000
0007FFF00000
0003FFE00000
0003FFC00000
0001FF800000
0000FF800000
000000000000
000000000000
000000000000
000000000000
000000000000
00000C000000
0003FFF00000
000FFFFC0000
003FFFFF0000
00FFFFFF8000
01FFFFFFE000
03FFFFFFF000
07FF807FF000
07FC001FF800
0FF80007FC00
1FF00007FC00
1FE00003FE00
3FE00001FE00
3FC00001FE00
3FC00001FF00
7F800000FF00
7F800000FF00
7F800000FF00
FF000000FF00
FF000000FF00
FFFFFFFFFF80
FFFFFFFFFF80
FFFFFFFFFF80
FFFFFFFFFF80
FFFFFFFFFF80
FFFFFFFFFF80
FFFFFFFFFF80
FF0000000000
FF0000000000
FF0000000000
FF0000000000
FF0000000000
7F8000000000
7F8000000000
7F8000000000
7FC000000000
3FC000000000
3FE000000000
1FF000000000
1FF800000000
0FFC00000400
0FFE00003C00
07FFC001FC00
03FFFFFFFC00
01FFFFFFFC00
00FFFFFFFC00
003FFFFFFC00
000FFFFFF800
0003FFFFC000
00003FF80000
ENDCHAR
STARTCHAR 011C
ENCODING 284
SWIDTH 720 0
DWIDTH 64 0
BBX 53 85 5 -1
BITMAP
0000001FE00000
0000003FF00000
0000007FF00000
0000007FF80000
000000FFFC0000
000001FFFE0000
000003FFFF0000
000007FCFF8000
00000FF87F8000
00001FE03FC000
00001FC01FE000
00003F8007F000
00007F0003F800
0000FE0001FC00
00000000000000
00000000000000
00000000000000
00000000000000
00000000000000
00000000000000
000000FFFFE000
000007FFFFFE00
00003FFFFFFFC0
0000FFFFFFFFF0
0003FFFFFFFFF0
0007FFFFFFFFE0
001FFFFFFFFFE0
003FFFC000FFC0
007FFE00000FC0
00FFF0000001C0
01FFE000000000
01FF8000000000
03FF0000000000
07FE0000000000
07FC0000000000
0FF80000000000
0FF80000000000
1FF00000000000
1FF00000000000
3FE00000000000
3FE00000000000
3FC00000000000
7FC00000000000
7FC00000000000
7FC00000000000
7F800000000000
7F800000000000
7F800000000000
7F800000000000
FF800000000000
FF800001FFFFF8
FF800001FFFFF8
FF800001FFFFF8
FF800001FFFFF8
FF800001FFFFF8
7F800001FFFFF8
7F800001FFFFF8
7F800001FFFFF8
7F8000000007F8
7F8000000007F8
7FC000000007F8
7FC000000007F8
7FC000000007F8
3FC000000007F8
3FE000000007F8
3FE000000007F8
1FF000000007F8
1FF000000007F8
1FF800000007F8
0FF800000007F8
0FFC00000007F8
07FE00000007F8
07FF00000007F8
03FF80000007F8
01FFE0000007F8
00FFF0000007F8
007FFE000007F8
003FFFE000FFF8
001FFFFFFFFFF8
000FFFFFFFFFF8
0007FFFFFFFFF8
0001FFFFFFFFF8
00007FFFFFFFC0
00000FFFFFFC00
0000007FFE0000
ENDCHAR
STARTCHAR 011D
ENCODING 285
SWIDTH 607 0
DWIDTH 54 0
BBX 42 89 5 -21
BITMAP
00007FC00000
0000FFC00000
0000FFE00000
0001FFF00000
0003FFF80000
0007FFF80000
000FFBFC0000
000FF1FE0000
001FE0FF0000
003FC07F8000
007F803FC000
00FE001FE000
01FC000FF000
03F80003F000
000000000000
000000000000
000000000000
000000000000
000000000000
000038000000
0007FFC00FC0
001FFFF00FC0
007FFFFC0FC0
00FFFFFE1FC0
01FFFFFF9FC0
03FFFFFF9FC0
07FF807FDFC0
0FFE000FFFC0
0FF80007FFC0
1FF00003FFC0
3FF00001FFC0
3FE00000FFC0
3FC00000FFC0
7FC000007FC0
7F8000007FC0
7F8000003FC0
7F8000003FC0
FF8000003FC0
FF0000003FC0
FF0000003FC0
FF0000003FC0
FF0000003FC0
FF0000003FC0
FF0000003FC0
FF0000003FC0
FF0000003FC0
FF0000003FC0
FF0000003FC0
FF0000003FC0
FF0000003FC0
FF0000003FC0
FF8000003FC0
7F8000003FC0
7F8000003FC0
7FC000007FC0
7FC000007FC0
3FC000007FC0
3FE00000FFC0
1FF00001FFC0
1FF80003FFC0
0FFC0007FFC0
0FFF001FFFC0
07FFFFFFDFC0
03FFFFFFBFC0
01FFFFFF3FC0
00FFFFFE3FC0
003FFFF83FC0
000FFFE03FC0
0001FF003FC0
000000003FC0
000000003FC0
000000003FC0
000000003FC0
000000003FC0
000000003FC0
000000007F80
000000007F80
00000000FF80
00000000FF80
00000001FF00
0E000007FF00
0FC0000FFE00
0FFE007FFC00
0FFFFFFFFC00
0FFFFFFFF800
0FFFFFFFE000
0FFFFFFFC000
01FFFFFF0000
001FFFF80000
ENDCHAR
STARTCHAR 011E
ENCODING 286
SWIDTH 720 0
DWIDTH 64 0
BBX 53 83 5 -1
BITMAP
00007C0000F800
00007C0000F800
00007C0001F000
00003E0001F000
00003F0003F000
00003FC01FE000
00001FFFFFE000
00001FFFFFC000
00000FFFFF8000
000007FFFF0000
000001FFFE0000
0000007FF00000
00000000000000
00000000000000
00000000000000
00000000000000
00000000000000
00000000000000
000000FFFFE000
000007FFFFFE00
00003FFFFFFFC0
0000FFFFFFFFF0
0003FFFFFFFFF0
0007FFFFFFFFE0
001FFFFFFFFFE0
003FFFC000FFC0
007FFE00000FC0
00FFF0000001C0
01FFE000000000
01FF8000000000
03FF0000000000
07FE0000000000
07FC0000000000
0FF80000000000
0FF80000000000
1FF00000000000
1FF00000000000
3FE00000000000
3FE00000000000
3FC00000000000
7FC00000000000
7FC00000000000
7FC00000000000
7F800000000000
7F800000000000
7F800000000000
7F800000000000
FF800000000000
FF800001FFFFF8
FF800001FFFFF8
FF800001FFFFF8
FF800001FFFFF8
FF800001FFFFF8
7F800001FFFFF8
7F800001FFFFF8
7F800001FFFFF8
7F8000000007F8
7F8000000007F8
7FC000000007F8
7FC000000007F8
7FC000000007F8
3FC000000007F8
3FE000000007F8
3FE000000007F8
1FF000000007F8
1FF000000007F8
1FF800000007F8
0FF800000007F8
0FFC00000007F8
07FE00000007F8
07FF00000007F8
03FF80000007F8
01FFE0000007F8
00FFF0000007F8
007FFE000007F8
003FFFE000FFF8
001FFFFFFFFFF8
000FFFFFFFFFF8
0007FFFFFFFFF8
0001FFFFFFFFF8
00007FFFFFFFC0
00000FFFFFFC00
0000007FFE0000
ENDCHAR
STARTCHAR 011F
ENCODING 287
SWIDTH 607 0
DWIDTH 54 0
BBX 42 87 5 -21
BITMAP
00F00003E000
00F80003E000
00F80003E000
00F80007E000
00FC000FC000
007F807FC000
007FFFFF8000
003FFFFF0000
001FFFFE0000
000FFFFC0000
0007FFF80000
0000FFC00000
000000000000
000000000000
000000000000
000000000000
000000000000
000038000000
0007FFC00FC0
001FFFF00FC0
007FFFFC0FC0
00FFFFFE1FC0
01FFFFFF9FC0
03FFFFFF9FC0
07FF807FDFC0
0FFE000FFFC0
0FF80007FFC0
1FF00003FFC0
3FF00001FFC0
3FE00000FFC0
3FC00000FFC0
7FC000007FC0
7F8000007FC0
7F8000003FC0
7F8000003FC0
FF8000003FC0
FF0000003FC0
FF0000003FC0
FF0000003FC0
FF0000003FC0
FF0000003FC0
FF0000003FC0
FF0000003FC0
FF0000003FC0
FF0000003FC0
FF0000003FC0
FF0000003FC0
FF0000003FC0
FF0000003FC0
FF8000003FC0
7F8000003FC0
7F8000003FC0
7FC000007FC0
7FC000007FC0
3FC000007FC0
3FE00000FFC0
1FF00001FFC0
1FF80003FFC0
0FFC0007FFC0
0FFF001FFFC0
07FFFFFFDFC0
03FFFFFFBFC0
01FFFFFF3FC0
00FFFFFE3FC0
003FFFF83FC0
000FFFE03FC0
0001FF003FC0
000000003FC0
000000003FC0
000000003FC0
000000003FC0
000000003FC0
000000003FC0
000000007F80
000000007F80
00000000FF80
00000000FF80
00000001FF00
0E000007FF00
0FC0000FFE00
0FFE007FFC00
0FFFFFFFFC00
0FFFFFFFF800
0FFFFFFFE000
0FFFFFFFC000
01FFFFFF0000
001FFFF80000
ENDCHAR
STARTCHAR 0120
ENCODING 288
SWIDTH 720 0
DWIDTH 64 0
BBX 53 82 5 -1
BITMAP
0000000FC00000
0000001FE00000
0000001FE00000
0000001FF00000
0000003FF00000
0000003FF00000
0000001FE00000
0000001FE00000
0000000FC00000
00000003000000
00000000000000
00000000000000
00000000000000
00000000000000
00000000000000
00000000000000
00000000000000
000000FFFFE000
000007FFFFFE00
00003FFFFFFFC0
0000FFFFFFFFF0
0003FFFFFFFFF0
0007FFFFFFFFE0
001FFFFFFFFFE0
003FFFC000FFC0
007FFE00000FC0
00FFF0000001C0
01FFE000000000
01FF8000000000
03FF0000000000
07FE0000000000
07FC0000000000
0FF80000000000
0FF80000000000
1FF00000000000
1FF00000000000
3FE00000000000
3FE00000000000
3FC00000000000
7FC00000000000
7FC00000000000
7FC00000000000
7F800000000000
7F800000000000
7F800000000000
7F800000000000
FF800000000000
FF800001FFFFF8
FF800001FFFFF8
FF800001FFFFF8
FF800001FFFFF8
FF800001FFFFF8
7F800001FFFFF8
7F800001FFFFF8
7F800001FFFFF8
7F8000000007F8
7F8000000007F8
7FC000000007F8
7FC000000007F8
7FC000000007F8
3FC000000007F8
3FE000000007F8
3FE000000007F8
1FF000000007F8
1FF000000007F8
1FF800000007F8
0FF800000007F8
0FFC00000007F8
07FE00000007F8
07FF00000007F8
03FF80000007F8
01FFE0000007F8
00FFF0000007F8
007FFE000007F8
003FFFE000FFF8
001FFFFFFFFFF8
000FFFFFFFFFF8
0007FFFFFFFFF8
0001FFFFFFFFF8
00007FFFFFFFC0
00000FFFFFFC00
0000007FFE0000
ENDCHAR
STARTCHAR 0121
ENCODING 289
SWIDTH 607 0
DWIDTH 54 0
BBX 42 87 5 -21
BITMAP
000004000000
00003F000000
00003F800000
00007FC00000
00007FC00000
00007FC00000
00007FC00000
00007FC00000
00003F800000
00001F000000
000000000000
000000000000
000000000000
000000000000
000000000000
000000000000
000000000000
000038000000
0007FFC00FC0
001FFFF00FC0
007FFFFC0FC0
00FFFFFE1FC0
01FFFFFF9FC0
03FFFFFF9FC0
07FF807FDFC0
0FFE000FFFC0
0FF80007FFC0
1FF00003FFC0
3FF00001FFC0
3FE00000FFC0
3FC00000FFC0
7FC000007FC0
7F8000007FC0
7F8000003FC0
7F8000003FC0
FF8000003FC0
FF0000003FC0
FF0000003FC0
FF0000003FC0
FF0000003FC0
FF0000003FC0
FF0000003FC0
FF0000003FC0
FF0000003FC0
FF0000003FC0
FF0000003FC0
FF0000003FC0
FF0000003FC0
FF0000003FC0
FF8000003FC0
7F8000003FC0
7F8000003FC0
7FC000007FC0
7FC000007FC0
3FC000007FC0
3FE00000FFC0
1FF00001FFC0
1FF80003FFC0
0FFC0007FFC0
0FFF001FFFC0
07FFFFFFDFC0
03FFFFFFBFC0
01FFFFFF3FC0
00FFFFFE3FC0
003FFFF83FC0
000FFFE03FC0
0001FF003FC0
000000003FC0
000000003FC0
000000003FC0
000000003FC0
000000003FC0
000000003FC0
000000007F80
000000007F80
00000000FF80
00000000FF80
00000001FF00
0E000007FF00
0FC0000FFE00
0FFE007FFC00
0FFFFFFFFC00
0FFFFFFFF800
0FFFFFFFE000
0FFFFFFFC000
01FFFFFF0000
001FFFF80000
ENDCHAR
STARTCHAR 0122
ENCODING 290
SWIDTH 720 0
DWIDTH 64 0
BBX 53 84 5 -20
BITMAP
000000FFFFE000
000007FFFFFE00
00003FFFFFFFC0
0000FFFFFFFFF0
0003FFFFFFFFF0
0007FFFFFFFFE0
001FFFFFFFFFE0
003FFFC000FFC0
007FFE00000FC0
00FFF0000001C0
01FFE000000000
01FF8000000000
03FF0000000000
07FE0000000000
07FC0000000000
0FF80000000000
0FF80000000000
1FF00000000000
1FF00000000000
3FE00000000000
3FE00000000000
3FC00000000000
7FC00000000000
7FC00000000000
7FC00000000000
7F800000000000
7F800000000000
7F800000000000
7F800000000000
FF800000000000
FF800001FFFFF8
FF800001FFFFF8
FF800001FFFFF8
FF800001FFFFF8
FF800001FFFFF8
7F800001FFFFF8
7F800001FFFFF8
7F800001FFFFF8
7F8000000007F8
7F8000000007F8
7FC000000007F8
7FC000000007F8
7FC000000007F8
3FC000000007F8
3FE000000007F8
3FE000000007F8
1FF000000007F8
1FF000000007F8
1FF800000007F8
0FF800000007F8
0FFC00000007F8
07FE00000007F8
07FF00000007F8
03FF80000007F8
01FFE0000007F8
00FFF0000007F8
007FFE000007F8
003FFFE000FFF8
001FFFFFFFFFF8
000FFFFFFFFFF8
0007FFFFFFFFF8
0001FFFFFFFFF8
00007FFFFFFFC0
00000FFFFFFC00
0000007FFE0000
00000000000000
00000000000000
00000000000000
00000000000000
00000007F00000
00000007F00000
0000000FF00000
0000000FF00000
0000000FE00000
0000000FE00000
0000001FC00000
0000001FC00000
0000001F800000
0000001F800000
0000003F000000
0000003F000000
0000007E000000
0000007C000000
00000078000000
ENDCHAR
STARTCHAR 0123
ENCODING 291
SWIDTH 607 0
DWIDTH 54 0
BBX 42 89 5 -21
BITMAP
000003E00000
000003E00000
000007E00000
00000FC00000
00000FC00000
00001FC00000
00001F800000
00003F800000
00003F800000
00007F000000
00007F000000
0000FF000000
0000FF000000
0000FF000000
000000000000
000000000000
000000000000
000000000000
000000000000
000038000000
0007FFC00FC0
001FFFF00FC0
007FFFFC0FC0
00FFFFFE1FC0
01FFFFFF9FC0
03FFFFFF9FC0
07FF807FDFC0
0FFE000FFFC0
0FF80007FFC0
1FF00003FFC0
3FF00001FFC0
3FE00000FFC0
3FC00000FFC0
7FC000007FC0
7F8000007FC0
7F8000003FC0
7F8000003FC0
FF8000003FC0
FF0000003FC0
FF0000003FC0
FF0000003FC0
FF0000003FC0
FF0000003FC0
FF0000003FC0
FF0000003FC0
FF0000003FC0
FF0000003FC0
FF0000003FC0
FF0000003FC0
FF0000003FC0
FF0000003FC0
FF8000003FC0
7F8000003FC0
7F8000003FC0
7FC000007FC0
7FC000007FC0
3FC000007FC0
3FE00000FFC0
1FF00001FFC0
1FF80003FFC0
0FFC0007FFC0
0FFF001FFFC0
07FFFFFFDFC0
03FFFFFFBFC0
01FFFFFF3FC0
00FFFFFE3FC0
003FFFF83FC0
000FFFE03FC0
0001FF003FC0
000000003FC0
000000003FC0
000000003FC0
000000003FC0
000000003FC0
000000003FC0
000000007F80
000000007F80
00000000FF80
00000000FF80
00000001FF00
0E000007FF00
0FC0000FFE00
0FFE007FFC00
0FFFFFFFFC00
0FFFFFFFF800
0FFFFFFFE000
0FFFFFFFC000
01FFFFFF0000
001FFFF80000
ENDCHAR
STARTCHAR 0124
ENCODING 292
SWIDTH 731 0
DWIDTH 65 0
BBX 48 84 9 0
BITMAP
00000FF00000
00001FF80000
00003FF80000
00003FFC0000
00007FFE0000
0000FFFF0000
0001FFFF8000
0003FE7FC000
0007FC3FC000
000FF01FE000
000FE00FF000
001FC003F800
003F8001FC00
007E0000FE00
000000000000
000000000000
000000000000
000000000000
000000000000
000000000000
000000000000
FF00000000FF
FF00000000FF
FF00000000FF
FF00000000FF
FF00000000FF
FF00000000FF
FF00000000FF
FF00000000FF
FF00000000FF
FF00000000FF
FF00000000FF
FF00000000FF
FF00000000FF
FF00000000FF
FF00000000FF
FF00000000FF
FF00000000FF
FF00000000FF
FF00000000FF
FF00000000FF
FF00000000FF
FF00000000FF
FF00000000FF
FF00000000FF
FF00000000FF
FF00000000FF
FFFFFFFFFFFF
FFFFFFFFFFFF
FFFFFFFFFFFF
FFFFFFFFFFFF
FFFFFFFFFFFF
FFFFFFFFFFFF
FFFFFFFFFFFF
FF00000000FF
FF00000000FF
FF00000000FF
FF00000000FF
FF00000000FF
FF00000000FF
FF00000000FF
FF00000000FF
FF00000000FF
FF00000000FF
FF00000000FF
FF00000000FF
FF00000000FF
FF00000000FF
FF00000000FF
FF00000000FF
FF00000000FF
FF00000000FF
FF00000000FF
FF00000000FF
FF00000000FF
FF00000000FF
FF00000000FF
FF00000000FF
FF00000000FF
FF00000000FF
FF00000000FF
FF00000000FF
FF00000000FF
FF00000000FF
ENDCHAR
ENDFONT
